<?xml version="1.0" encoding="UTF-8"?>
<svg width="52px" height="40px" viewBox="0 0 52 40" version="1.1" xmlns="http://www.w3.org/2000/svg" xmlns:xlink="http://www.w3.org/1999/xlink">
    <!-- Generator: Sketch 64 (93537) - https://sketch.com -->
    <title>07 Misc/Images/Payment/Maestro</title>
    <desc>Created with Sketch.</desc>
    <g id="07-Misc/Images/Payment/Maestro" stroke="none" stroke-width="1" fill="none" fill-rule="evenodd">
        <g id="Maestro" fill-rule="nonzero">
            <path d="M15.556044,39.6659341 L15.556044,37.0285714 C15.5871479,36.5810314 15.4241294,36.1417541 15.1085948,35.8228537 C14.7930601,35.5039534 14.3555372,35.3362835 13.9076923,35.3626374 C13.315971,35.3238452 12.750035,35.6101819 12.4307692,36.1098901 C12.1396905,35.625081 11.6067157,35.3383541 11.0417582,35.3626374 C10.5498538,35.3377701 10.0815655,35.5752592 9.81098901,35.9868132 L9.81098901,35.4681319 L8.8967033,35.4681319 L8.8967033,39.6659341 L9.81978022,39.6659341 L9.81978022,37.3406593 C9.7783635,37.0493786 9.86997278,36.7548983 10.0693175,36.5385155 C10.2686623,36.3221327 10.5546586,36.2067334 10.8483516,36.2241758 C11.4549451,36.2241758 11.7626374,36.6197802 11.7626374,37.3318681 L11.7626374,39.6659341 L12.6857143,39.6659341 L12.6857143,37.3406593 C12.647591,37.0500408 12.740339,36.7574828 12.938937,36.5419107 C13.1375349,36.3263385 13.4215222,36.2099617 13.7142857,36.2241758 C14.3384615,36.2241758 14.6373626,36.6197802 14.6373626,37.3318681 L14.6373626,39.6659341 L15.556044,39.6659341 Z M20.6989011,37.5692308 L20.6989011,35.4725275 L19.7758242,35.4725275 L19.7758242,35.9824176 C19.4613032,35.5765365 18.9702477,35.3473772 18.4571429,35.367033 C17.2433302,35.367033 16.2593407,36.3510225 16.2593407,37.5648352 C16.2593407,38.7786478 17.2433302,39.7626374 18.4571429,39.7626374 C18.9702477,39.7822931 19.4613032,39.5531339 19.7758242,39.1472527 L19.7758242,39.6571429 L20.6901099,39.6571429 L20.6989011,37.5692308 Z M17.3010989,37.5692308 C17.341756,36.8794148 17.9263481,36.3486191 18.616875,36.3745374 C19.3074018,36.4004557 19.8505592,36.9735804 19.8393916,37.6645032 C19.828224,38.3554261 19.266828,38.9106976 18.5758242,38.9142857 C18.2220462,38.9225828 17.8811549,38.7813893 17.6368525,38.5253737 C17.39255,38.2693581 17.2674639,37.9222329 17.2923077,37.5692308 L17.3010989,37.5692308 Z M40.232967,35.3714286 C40.533967,35.3706507 40.8323482,35.4273431 41.1120879,35.5384615 C41.3791037,35.6453927 41.6225334,35.8036967 41.8285714,36.0043956 C42.0319461,36.2032826 42.1933705,36.4409352 42.3032967,36.7032967 C42.5329486,37.2668804 42.5329486,37.8979548 42.3032967,38.4615385 C42.193476,38.7239571 42.0320381,38.9616295 41.8285714,39.1604396 C41.6225334,39.3611385 41.3791037,39.5194425 41.1120879,39.6263736 C40.5324656,39.8515994 39.8895124,39.8515994 39.3098901,39.6263736 C39.0441198,39.5195486 38.8021106,39.3611969 38.5978022,39.1604396 C38.3963709,38.9608504 38.2365121,38.7233032 38.1274725,38.4615385 C37.8982876,37.8978634 37.8982876,37.2669718 38.1274725,36.7032967 C38.2365121,36.441532 38.3963709,36.2039847 38.5978022,36.0043956 C38.8021106,35.8036382 39.0441198,35.6452865 39.3098901,35.5384615 C39.5996822,35.4183418 39.9104772,35.3570794 40.2241758,35.3582255 L40.232967,35.3714286 Z M40.232967,36.2505495 C40.0539483,36.2481076 39.8762031,36.2809681 39.7098901,36.3472527 C39.5532383,36.4100615 39.4111204,36.5043081 39.2923077,36.6241758 C39.1710998,36.7503639 39.0768755,36.8999264 39.0153846,37.0637363 C38.8811015,37.4147002 38.8811015,37.8028822 39.0153846,38.1538462 C39.0767643,38.3177111 39.1710021,38.4672949 39.2923077,38.5934066 C39.4110407,38.7133713 39.55318,38.807632 39.7098901,38.8703297 C40.044764,39.0014569 40.4167744,39.0014569 40.7516484,38.8703297 C40.9158516,38.8096341 41.0655681,38.7153126 41.1912088,38.5934066 C41.3127118,38.4674495 41.4069768,38.3178224 41.4681319,38.1538462 C41.6024149,37.8028822 41.6024149,37.4147002 41.4681319,37.0637363 C41.4069768,36.89976 41.3127118,36.7501329 41.1912088,36.6241758 C41.0655681,36.5022698 40.9158516,36.4079483 40.7516484,36.3472527 C40.5858315,36.2713438 40.4064644,36.2294915 40.2241758,36.2241758 L40.232967,36.2505495 Z M25.6659341,37.5692308 C25.6659341,36.2505495 24.8483516,35.3714286 23.6747253,35.3714286 C22.4609127,35.388422 21.4906991,36.3861874 21.5076925,37.6 C21.5246858,38.8138126 22.5224512,39.7840263 23.7362637,39.767033 C24.3620503,39.7884141 24.9738211,39.5787535 25.4549451,39.178022 L25.0153846,38.5010989 C24.668291,38.7794631 24.2382865,38.934141 23.7934066,38.9406593 C23.1649962,38.9947033 22.6077276,38.5387563 22.5362637,37.9120879 L25.6527473,37.9120879 C25.6659341,37.8021978 25.6659341,37.6923077 25.6659341,37.5692308 Z M22.5406593,37.2 C22.5759411,36.6201098 23.0631364,36.1717349 23.643956,36.1846154 C23.9202651,36.1787246 24.1875912,36.2828702 24.387094,36.4741292 C24.5865969,36.6653881 24.7019245,36.928084 24.7076923,37.2043956 L22.5406593,37.2 Z M29.5120879,36.5406593 C29.1106677,36.3095189 28.6565882,36.1854038 28.1934066,36.1802198 C27.6923077,36.1802198 27.3934066,36.3648352 27.3934066,36.6725275 C27.3934066,36.9802198 27.7098901,37.032967 28.1054945,37.0857143 L28.5450549,37.1472527 C29.4593407,37.2791209 30.0131868,37.6659341 30.0131868,38.4043956 C30.0131868,39.1428571 29.3098901,39.7758242 28.1010989,39.7758242 C27.4532391,39.7930576 26.8169369,39.6020129 26.2857143,39.2307692 L26.7252747,38.5186813 C27.1286608,38.8179471 27.6210121,38.9727746 28.1230769,38.9582418 C28.7472527,38.9582418 29.0813187,38.7736264 29.0813187,38.4483516 C29.0813187,38.210989 28.843956,38.0791209 28.3428571,38.0087912 L27.9032967,37.9472527 C26.9626374,37.8153846 26.4527473,37.3934066 26.4527473,36.7076923 C26.4527473,35.8725275 27.1384615,35.3626374 28.210989,35.3626374 C28.8112707,35.3425252 29.4047176,35.4950822 29.9208791,35.8021978 L29.5120879,36.5406593 Z M33.9076923,36.3032967 L32.4175824,36.3032967 L32.4175824,38.1978022 C32.4175824,38.6373626 32.567033,38.9010989 33.0241758,38.9010989 C33.3095081,38.8916495 33.5877816,38.8099823 33.832967,38.6637363 L34.0967033,39.4461538 C33.7539814,39.6600342 33.3578279,39.7727856 32.9538462,39.7714407 C31.8725275,39.7714407 31.4945055,39.1912088 31.4945055,38.2153846 L31.4945055,36.3032967 L30.6417582,36.3032967 L30.6417582,35.4681319 L31.4945055,35.4681319 L31.4945055,34.1934066 L32.4175824,34.1934066 L32.4175824,35.4681319 L33.9076923,35.4681319 L33.9076923,36.3032967 Z M37.0681319,35.3626374 C37.2898999,35.3634943 37.5098998,35.4021429 37.7186813,35.4769231 L37.4373626,36.356044 C37.255687,36.2836098 37.0614973,36.2477594 36.8659341,36.2505495 C36.2681319,36.2505495 35.9868132,36.6373626 35.9868132,37.3318681 L35.9868132,39.6835165 L35.0725275,39.6835165 L35.0725275,35.4857143 L35.978022,35.4857143 L35.978022,35.9956044 C36.2065859,35.6029904 36.631612,35.3668648 37.0857143,35.3802198 L37.0681319,35.3626374 Z M43.389011,39.0549451 C43.4461595,39.0542449 43.5028961,39.0646964 43.556044,39.0857143 C43.6065243,39.1063139 43.6527317,39.1361251 43.6923077,39.1736264 C43.7309315,39.2115259 43.7622253,39.2562314 43.7846154,39.3054945 C43.8296093,39.4092515 43.8296093,39.5270122 43.7846154,39.6307692 C43.7622253,39.6800324 43.7309315,39.7247379 43.6923077,39.7626374 C43.6527317,39.8001386 43.6065243,39.8299499 43.556044,39.8505495 C43.5034208,39.8737693 43.4465293,39.8857465 43.389011,39.8857144 C43.2189229,39.8844323 43.0648408,39.7851349 42.9934066,39.6307692 C42.9489337,39.5269047 42.9489337,39.409359 42.9934066,39.3054945 C43.0157966,39.2562314 43.0470905,39.2115259 43.0857143,39.1736264 C43.1252903,39.1361251 43.1714977,39.1063139 43.221978,39.0857143 C43.2682383,39.0673175 43.3172878,39.0569131 43.367033,39.0549451 L43.389011,39.0549451 Z M43.389011,39.797808 C43.4328833,39.7980687 43.4763188,39.7890821 43.5164835,39.7714286 C43.5543017,39.754544 43.5885997,39.7306845 43.6175824,39.7010989 C43.6932711,39.6248698 43.7264427,39.5161872 43.7062215,39.4106848 C43.6860002,39.3051825 43.6149939,39.2164673 43.5164835,39.1736264 C43.4762792,39.1560973 43.4328703,39.1471162 43.389011,39.1472512 C43.3451896,39.1474843 43.3018541,39.1564503 43.2615385,39.1736264 C43.222046,39.1898198 43.1861811,39.2137297 43.156044,39.243956 C43.0420673,39.3683108 43.0420673,39.5591617 43.156044,39.6835165 C43.2175314,39.7457742 43.3015093,39.7806329 43.389011,39.7802198 L43.389011,39.797808 Z M43.4153846,39.2747253 C43.4564182,39.2727354 43.4968531,39.2851769 43.5296703,39.3098901 C43.5569681,39.3324817 43.5716973,39.36685 43.5692308,39.4021978 C43.5705068,39.4317166 43.5593453,39.4604176 43.5384615,39.4813187 C43.5129838,39.5044598 43.480482,39.5183891 43.4461538,39.5208791 L43.5736264,39.6659341 L43.4725275,39.6659341 L43.3538462,39.5208791 L43.3142857,39.5208791 L43.3142857,39.6659341 L43.2307692,39.6659341 L43.2307692,39.2615385 L43.4153846,39.2747253 Z M43.3186813,39.3494505 L43.3186813,39.4549451 L43.4153846,39.4549451 C43.4325928,39.4600755 43.4509237,39.4600755 43.4681319,39.4549451 C43.4744013,39.4425034 43.4744013,39.4278263 43.4681319,39.4153846 C43.4744013,39.402943 43.4744013,39.3882658 43.4681319,39.3758242 C43.4509237,39.3706937 43.4325928,39.3706937 43.4153846,39.3758242 L43.3186813,39.3494505 Z" id="Shape" fill="#000000"></path>
            <g id="_Group_">
                <rect id="Rectangle" fill="#7673C0" x="18.7428571" y="3.44175824" width="13.8461538" height="24.8835165"></rect>
                <path d="M19.621978,15.8857143 C19.6168012,11.0292274 21.8456456,6.44023923 25.6659341,3.44175824 C19.1779298,-1.6571201 9.86089552,-0.914424373 4.26259248,5.14789882 C-1.33571056,11.210222 -1.33571056,20.556811 4.26259248,26.6191342 C9.86089552,32.6814573 19.1779298,33.4241531 25.6659341,28.3252747 C21.846861,25.3277456 19.6181527,20.7406587 19.621978,15.8857143 L19.621978,15.8857143 Z" id="_Path_" fill="#EB001B"></path>
                <path d="M49.7582418,26.0447497 L49.7582418,25.2669719 L49.9648352,25.2669719 L49.9648352,25.1003053 L49.4417582,25.1003053 L49.4417582,25.2669719 L49.6483516,25.2669719 L49.6483516,26.0725275 L49.7582418,26.0447497 Z M50.7736264,26.0447497 L50.7736264,25.0725275 L50.6153846,25.0725275 L50.4307692,25.7669719 L50.2461538,25.0725275 L50.0835165,25.0725275 L50.0835165,26.0447497 L50.1978022,26.0447497 L50.1978022,25.315583 L50.3692308,25.9475275 L50.4879121,25.9475275 L50.6593407,25.315583 L50.6593407,26.0516941 L50.7736264,26.0447497 Z" id="Shape" fill="#00A1DF"></path>
                <path d="M51.2659341,15.8857143 C51.2644707,21.9427112 47.8056536,27.4674795 42.3577765,30.1147138 C36.9098994,32.761948 30.4288701,32.0671531 25.6659341,28.3252747 C29.4833408,25.3252008 31.7122168,20.7387237 31.7122168,15.8835165 C31.7122168,11.0283092 29.4833408,6.44183217 25.6659341,3.44175824 C30.4288307,-0.302810912 36.9116878,-0.999181285 42.3612111,1.64839829 C47.8107345,4.29597787 51.2703297,9.82268994 51.2703297,15.8813187 L51.2659341,15.8857143 Z" id="Path" fill="#00A1DF"></path>
            </g>
        </g>
    </g>
</svg>