<?xml version="1.0" encoding="utf-8"?>
<svg width="610" height="187" fill="none" xmlns="http://www.w3.org/2000/svg"><path d="M101 0l101 58v118H0V58L101 0z" fill="#1E1E1E"/><path d="M16 61l85-49 85 49-85 50-85-50z" fill="#fff"/><path d="M11 71l85 49v44l-85 1V71z" fill="#FC3F4D"/><path d="M106 120l85-49 1 94h-86v-45z" fill="#BDEA18"/><path d="M274 59h10v17c4-5 13-6 18-1 3 3 4 8 4 12v23h-9l-1-23c0-2-1-5-3-6-4-1-9 2-9 6v23h-10V59zM356 59c4-2 9 1 9 5 1 5-5 7-9 5-3-2-3-8 0-10zM465 59c4-2 9 1 9 5s-5 7-8 5c-4-1-5-8-1-10zM522 59h10v29l11-15h12l-13 16 13 21h-11l-12-19v19h-10V59zM600 59h10v51h-10V59zM251 65h10v8h6v8h-6v15c0 2 0 4 2 5h5l-1 9c-4 0-8 1-12-2-3-3-4-7-4-11V81h-4v-8h4v-8zM376 75c6-5 17-4 22 3l-7 5c-2-2-5-4-9-3-1 1-2 4 0 5 4 2 10 3 14 6 4 5 3 13-2 17-8 5-19 3-24-4l6-5c3 2 7 5 11 3 2-1 3-4 1-5-4-2-9-3-13-6-5-4-5-13 1-16zM491 76c4-5 13-6 18-1 4 3 5 8 5 12v23h-10V86c-1-3-5-6-8-5s-4 3-4 6v23h-10V73h9v3zM314 73h10v22c0 3 3 7 6 7 4 0 7-4 6-7l1-22h10v37h-10v-4c-4 5-12 6-17 2-4-2-6-7-6-12V73zM355 73h9v37h-9V73zM401 73h11l6 25 7-25h9l7 25 6-25h11l-11 37h-11l-6-23-7 23h-11l-11-37zM463 73h10v37h-10V73zM378 145c2-3 6-5 10-5v5c-5 0-9 3-10 8v22h-5v-34h5v4zM476 141l5-1v5c2-3 6-5 10-5v5c-4 0-8 3-9 7-2 8-1 15-1 23h-5v-34zM246 141l6-1 9 28 9-28 5 1 9 27 9-28 6 1-12 34h-5l-9-27-9 27h-6l-12-34z" fill="#1E1E1E"/><path fill-rule="evenodd" clip-rule="evenodd" d="M400 127l-5 1v47h5v-3-2c5 7 16 7 22 1 8-7 8-22-1-29-7-4-16-3-21 4a644 644 0 000-19zm19 22c-3-4-8-5-13-3-7 3-8 14-4 20 3 5 11 6 16 2 5-5 6-14 1-19zM465 146c-4-5-12-7-19-6-11 2-16 16-11 26 4 10 18 13 27 6 7-6 9-18 3-26zm-6 2c-3-3-8-4-12-3-8 2-11 14-6 20 3 6 12 7 18 3 5-5 5-15 0-20zM524 145c-5-6-15-7-21-3-11 8-10 27 2 32 6 3 14 1 19-4l-1 1c0 3 0 7-3 9-6 4-13 2-19 0l-1 2-1 2 10 3h6c3 0 7-2 10-4 3-4 4-9 4-13v-25-4h-6l1 4zm-1 10c0-7-9-13-16-9-10 4-8 22 3 24 9 2 15-7 13-15zM323 141c-6-3-13-1-19 2l2 5c5-3 10-5 15-2 3 2 3 5 3 8v2c-5-4-13-4-18 0s-5 11-1 15c5 6 14 6 20 1v3h5v-10l-1-14c0-4-2-9-6-10zm1 24c1-6-6-9-11-7-3 0-6 4-5 8 3 7 15 7 16-1zM357 141c-7-2-13-1-19 2l1 2 1 3c5-3 10-5 15-2 3 2 3 5 3 9-5-3-13-3-18 1-4 4-5 11-1 15 5 6 14 6 20 1v3h5v-11l-1-14c0-4-2-8-6-9zm1 23c0-5-6-8-11-6-4 0-7 5-5 9 4 6 16 5 16-3zM572 72c-7 2-12 7-13 14-2 6-1 13 4 18 7 9 24 9 30-2l-4-3-2-2c-3 4-8 6-12 5s-6-5-7-8h26c0-6 0-12-4-17-5-5-12-6-18-5zm5 8c-4-1-8 3-9 7h16c0-3-3-7-7-7z" fill="#1E1E1E"/></svg>
