<?xml version="1.0" encoding="UTF-8"?>
<svg width="78px" height="26px" viewBox="0 0 78 26" version="1.1" xmlns="http://www.w3.org/2000/svg" xmlns:xlink="http://www.w3.org/1999/xlink">
    <!-- Generator: Sketch 64 (93537) - https://sketch.com -->
    <title>07 Misc/Images/Payment/VISA</title>
    <desc>Created with Sketch.</desc>
    <g id="07-Misc/Images/Payment/VISA" stroke="none" stroke-width="1" fill="none" fill-rule="evenodd">
        <g id="Visa" transform="translate(0.000000, 1.000000)" fill="#2566AF" fill-rule="nonzero">
            <path d="M33.4063364,23.583301 L27.1183813,23.583301 L31.0482725,-0.568441998 L37.3368737,-0.568441998 L33.4063364,23.583301 Z M21.8285655,-0.568441998 L15.8339148,16.0433109 L15.1245575,12.4661602 L15.1252035,12.4674523 L13.0094064,1.60614518 C13.0094064,1.60614518 12.7535726,-0.568441998 10.0266171,-0.568441998 L0.116288084,-0.568441998 L0,-0.159495568 C0,-0.159495568 3.03059669,0.471044267 6.57738326,2.60105435 L12.040339,23.5839471 L18.5918805,23.5839471 L28.595886,-0.568441998 L21.8285655,-0.568441998 Z M71.2865338,23.583301 L77.0602372,23.583301 L72.0262553,-0.569088043 L66.9715999,-0.569088043 C64.6374396,-0.569088043 64.0689201,1.23079308 64.0689201,1.23079308 L54.6909321,23.583301 L61.2457038,23.583301 L62.5565289,19.9958136 L70.5500426,19.9958136 L71.2865338,23.583301 Z M64.3673928,15.0400031 L67.6712665,6.00183477 L69.5299377,15.0400031 L64.3673928,15.0400031 Z M55.1825723,5.23950177 L56.0799287,0.0530532083 C56.0799287,0.0530532083 53.3109802,-1 50.4244515,-1 C47.3040546,-1 39.8939194,0.363800811 39.8939194,6.99545184 C39.8939194,13.2349536 48.590976,13.312479 48.590976,16.5898648 C48.590976,19.8672507 40.7899837,19.2799959 38.2154947,17.2132982 L37.2806678,22.6361992 C37.2806678,22.6361992 40.0883789,24 44.3781172,24 C48.6691475,24 55.1425175,21.7782515 55.1425175,15.7312712 C55.1425175,9.4517146 46.3672895,8.86704396 46.3672895,6.13685815 C46.3679355,3.40602631 52.4917952,3.75682869 55.1825723,5.23950177 L55.1825723,5.23950177 Z" id="Shape"></path>
        </g>
    </g>
</svg>