<?xml version="1.0" encoding="utf-8"?>
<!-- Generator: Adobe Illustrator 23.0.3, SVG Export Plug-In . SVG Version: 6.00 Build 0)  -->
<svg version="1.1" id="Laag_1" xmlns="http://www.w3.org/2000/svg" xmlns:xlink="http://www.w3.org/1999/xlink" x="0px" y="0px"
	 viewBox="0 0 1019.5 537.4" style="enable-background:new 0 0 1019.5 537.4;" xml:space="preserve">
<style type="text/css">
	.st0{fill:#006EB3;}
	.st1{fill:#FF702E;}
	.st2{fill:#FFFFFF;}
</style>
<title>bva-eps-logo</title>
<path class="st0" d="M536.9,468.1c0,0,0,68.8-68.8,68.8H265.5v0C118.9,535.2,0.5,415.8,0.5,268.7C0.5,120.6,120.6,0.5,268.7,0.5
	c148.1,0,268.2,120.1,268.2,268.2V468.1z"/>
<g>
	<path class="st1" d="M120,358.1c0-7.6-4.9-13.2-11.5-13.2c-7,0-12,5.6-12,13.2c0,7.7,5,13.2,12,13.2
		C115.2,371.3,120,365.9,120,358.1 M83.3,358.1c0-14,8.5-25.2,21.9-25.2c5.6,0,11.6,2.2,15.1,6.9v-5.9H133v48.5h-12.7v-5.8
		c-3.4,4.7-9.5,6.8-15.1,6.8C91.8,383.3,83.3,372.1,83.3,358.1"/>
	<path class="st1" d="M143.6,362.9v-29h13v27.3c0,6.8,2.9,9.9,8.9,9.9c6.8,0,10.1-5.7,10.1-12.3v-24.8h13v48.5h-12.2v-6.8
		c-2.9,4.8-9.5,7.8-15.1,7.8C147.9,383.3,143.6,375.5,143.6,362.9"/>
	<path class="st1" d="M197.3,358.1c0-14.1,11.4-25.2,25.9-25.2c6.3-0.1,12.5,2.1,17.4,6.2l-7.9,9.1c-2.5-2.2-5.8-3.4-9.2-3.3
		c-7.6,0-13,5.5-13,13.2c0,7.6,5.1,13.2,13.4,13.2c3.9,0,7.7-1.4,10.6-4l6.9,9.7c-5.1,4.2-11.5,6.4-18.1,6.3
		C208.8,383.3,197.3,372.2,197.3,358.1"/>
	<path class="st1" d="M252.6,366.7v-22.4h-7.1v-10.5h7.1v-9.3l13-2.9v12.2h13.4v10.5h-13.4v22.2c0,4.2,2,5.5,4.4,5.5
		c2.2-0.1,4.4-0.8,6.2-2l3.7,9.6c-3.7,2.4-7.9,3.7-12.3,3.7C257.8,383.3,252.6,377.7,252.6,366.7"/>
	<path class="st1" d="M287.1,333.8h13v48.5h-13V333.8z M285.8,320.3c0-4.3,3.4-7.7,7.7-7.8s7.7,3.4,7.8,7.7c0,4.3-3.4,7.7-7.7,7.8
		c0,0-0.1,0-0.1,0C289.3,327.9,285.9,324.5,285.8,320.3"/>
	<path class="st1" d="M347.1,358.1c0-7.6-5.4-13.2-12.7-13.2s-12.7,5.6-12.7,13.2c0,7.7,5.4,13.2,12.7,13.2S347.1,365.8,347.1,358.1
		 M308.5,358.1c0-14.1,11.4-25.2,25.9-25.2c14.6,0,26,11.2,26,25.2s-11.4,25.2-26,25.2C319.9,383.3,308.5,372.2,308.5,358.1"/>
	<path class="st1" d="M369.2,333.8h12.7v6.5c3.9-5.3,9.4-7.5,15.3-7.5c12.8,0,17.3,8.2,17.3,21.5v27.9h-13v-26.3
		c0-7.1-1.8-10.9-8.4-10.9c-6.5,0-10.9,5.2-10.9,12.6v24.5h-13V333.8z"/>
	<path class="st1" d="M421.9,376.7l4.7-10c4.3,3.4,9.6,5.3,15.1,5.1c3,0,8-1.2,8-4.1c0-2.9-4.2-3.6-8.3-4.8
		c-9.6-2.5-17.5-5.7-17.5-15c0-9.9,9.7-15.1,18.8-15.1c6.4-0.2,12.6,1.5,18,4.8l-4.4,9.7c-4.2-2.2-8.8-3.3-13.5-3.4
		c-3,0-5.8,1.4-5.8,3.4c0,2.7,4.1,3.6,8.5,4.6c8.2,1.9,17.3,5.5,17.3,15.4c0,11.9-12.1,15.9-21.2,15.9
		C431.4,383.3,424.7,379.3,421.9,376.7"/>
</g>
<g>
	<path class="st0" d="M636,405c0-10.7-7.6-18.8-17.3-18.8c-10.1,0-17.6,7.9-17.6,18.8c0,10.8,7.5,18.7,17.6,18.7
		C628.4,423.7,636,415.6,636,405 M592.9,405c0-14.9,9.9-26.5,24-26.5c8.1,0,15.4,3.3,19.1,9.9v-8.9h7.9v50.9H636v-8.9
		c-3.8,6.7-11,9.9-19.1,9.9C602.8,431.4,592.9,419.7,592.9,405"/>
	<rect x="657.7" y="361.7" class="st0" width="7.9" height="68.7"/>
	<path class="st0" d="M681.6,415.1v-29H674v-6.6h7.6v-11l7.9-1.5v12.4h17.3v6.6h-17.3v29.2c0,7,3,9,7.1,9c3-0.1,5.9-1.1,8.4-2.8
		l2.6,6.2c-3.4,2.4-7.5,3.7-11.7,3.8C687,431.4,681.6,427,681.6,415.1"/>
	<path class="st0" d="M736.6,365.2c0-2.9,2.3-5.3,5.2-5.3c0,0,0,0,0,0c2.9,0.1,5.2,2.4,5.2,5.3c0,2.9-2.3,5.2-5.2,5.2
		c-2.9,0-5.2-2.3-5.2-5.1C736.6,365.3,736.6,365.2,736.6,365.2 M729.2,441.7c5.9-3.3,8.7-10.1,8.7-19.3v-42.9h7.9v42
		c0,13.7-5,22-13.8,26.3L729.2,441.7z M716.6,379.5h7.9v50.9h-7.9V379.5z M715.3,365.2c0-2.9,2.3-5.3,5.2-5.3c0,0,0,0,0,0
		c2.9,0,5.3,2.4,5.3,5.3c0,2.9-2.4,5.2-5.3,5.2c0,0,0,0,0,0c-2.9,0-5.2-2.3-5.2-5.1C715.3,365.3,715.3,365.2,715.3,365.2"/>
	<path class="st0" d="M800.3,405c0-10.7-7.6-18.8-17.3-18.8c-10.1,0-17.6,7.9-17.6,18.8c0,10.8,7.5,18.7,17.6,18.7
		C792.7,423.7,800.3,415.6,800.3,405 M757.2,405c0-14.9,9.9-26.5,24-26.5c8.1,0,15.4,3.3,19.1,9.9v-26.7h7.9v68.7h-7.6v-8.9
		c-3.8,6.7-11.2,9.9-19.4,9.9C767.1,431.4,757.2,419.7,757.2,405"/>
	<path class="st0" d="M838.7,379.5h7.8L858,413c0.8,2.4,1.4,4.9,1.8,7.4c0.3-2.5,0.8-4.9,1.5-7.3l10.3-33.6h7.4l10.4,33.6
		c0.7,2.4,1.2,4.8,1.5,7.3c0.4-2.5,1-5,1.8-7.4l11.5-33.5h7.8l-17.5,51.2h-6.9L877,397.1c-0.7-2.4-1.3-4.9-1.7-7.4
		c-0.4,2.5-0.9,5-1.6,7.4L863,430.7h-6.8L838.7,379.5z"/>
	<path class="st0" d="M959.3,405c0-10.7-7.6-18.8-17.3-18.8c-10.1,0-17.7,7.9-17.7,18.8c0,10.8,7.5,18.7,17.7,18.7
		C951.7,423.7,959.3,415.6,959.3,405 M916.2,405c0-14.9,9.9-26.5,24-26.5c8.1,0,15.3,3.3,19.1,9.9v-8.9h7.9v50.9h-7.9v-8.9
		c-3.8,6.7-11,9.9-19.1,9.9C926.1,431.4,916.2,419.7,916.2,405"/>
	<path class="st0" d="M983.2,415.1v-29h-7.6v-6.6h7.6v-11l7.9-1.5v12.4h17.3v6.6h-17.3v29.2c0,7,3,9,7.1,9c3-0.1,5.9-1.1,8.4-2.8
		l2.6,6.2c-3.4,2.4-7.5,3.7-11.7,3.8C988.5,431.4,983.2,427,983.2,415.1"/>
	<path class="st0" d="M597.7,518.2v-29H590v-6.6h7.6v-11l7.9-1.5v12.4h17.3v6.6h-17.3v29.2c0,7,3,9,7.1,9c3-0.1,5.9-1.1,8.4-2.8
		l2.6,6.2c-3.4,2.4-7.5,3.7-11.7,3.8C603,534.5,597.7,530.1,597.7,518.2"/>
	<path class="st0" d="M670,504.9c-0.8-9.4-8-16.2-16.9-16.2c-8.7,0-15.8,6.7-16.9,16.2H670z M627.9,508.1
		c0-14.7,11.1-26.5,25.6-26.5c13.6,0,24.3,11.7,24.3,26.2c0,1.5-0.2,3-0.2,3.1h-41.5c1.3,10.1,9.1,16.5,18.5,16.5
		c5.7,0,11.2-1.9,15.7-5.4l3.4,5.8c-5.5,4.3-12.2,6.7-19.2,6.7C640.2,534.5,627.9,524.2,627.9,508.1"/>
	<path class="st0" d="M754.8,508.1c0-10.9-7.5-18.8-17.6-18.8c-9.7,0-17.3,8.1-17.3,18.8c0,10.7,7.6,18.7,17.3,18.7
		C747.3,526.8,754.8,518.9,754.8,508.1 M719.5,524.6v8.9h-7.6v-68.7h7.9v26.7c3.8-6.6,11.1-9.9,19.1-9.9c14.1,0,24,11.6,24,26.5
		c0,14.7-9.9,26.4-24,26.4C730.7,534.5,723.3,531.3,719.5,524.6"/>
	<path class="st0" d="M774.3,482.6h7.9v50.9h-7.9V482.6z M773,468.3c0-2.9,2.3-5.3,5.2-5.3c0,0,0,0,0,0c2.9,0,5.3,2.4,5.3,5.3
		c0,2.9-2.4,5.2-5.3,5.2c0,0,0,0,0,0c-2.9,0-5.2-2.3-5.2-5.1C773,468.4,773,468.3,773,468.3"/>
	<path class="st0" d="M835.3,504.9c-0.8-9.4-8-16.2-16.9-16.2c-8.7,0-15.8,6.7-16.9,16.2H835.3z M793.2,508.1
		c0-14.7,11.1-26.5,25.6-26.5c13.6,0,24.3,11.7,24.3,26.2c0,1.5-0.2,3-0.2,3.1h-41.5c1.3,10.1,9.1,16.5,18.5,16.5
		c5.7,0,11.2-1.9,15.7-5.4l3.4,5.8c-5.5,4.3-12.2,6.7-19.2,6.7C805.4,534.5,793.2,524.2,793.2,508.1"/>
	<path class="st0" d="M894.9,508.1c0-10.7-7.6-18.8-17.3-18.8c-10.1,0-17.7,7.9-17.7,18.8c0,10.8,7.5,18.7,17.7,18.7
		C887.3,526.8,894.9,518.8,894.9,508.1 M851.8,508.1c0-14.9,9.9-26.5,24-26.5c8.1,0,15.3,3.3,19.1,9.9v-26.7h7.9v68.7h-7.6v-8.9
		c-3.8,6.7-11.2,9.9-19.4,9.9C861.7,534.5,851.8,522.8,851.8,508.1"/>
	<path class="st0" d="M956.2,504.9c-0.8-9.4-8-16.2-16.9-16.2c-8.7,0-15.8,6.7-16.9,16.2H956.2z M914.1,508.1
		c0-14.7,11.1-26.5,25.6-26.5c13.6,0,24.3,11.7,24.3,26.2c0,1.5-0.2,3-0.2,3.1h-41.5c1.3,10.1,9.1,16.5,18.5,16.5
		c5.7,0,11.2-1.9,15.7-5.4l3.4,5.8c-5.5,4.3-12.2,6.7-19.2,6.7C926.3,534.5,914.1,524.2,914.1,508.1"/>
	<path class="st0" d="M975,482.6h7.9v8.7c3.6-6.2,10.1-9.7,17.6-9.7c12.7,0,18.4,7.7,18.4,21.1v30.8h-7.9v-29.8
		c0-9.4-3.4-14.4-12.6-14.4c-8.4-0.1-15.3,6.6-15.5,15c0,0.2,0,0.4,0,0.5v28.6H975V482.6z"/>
</g>
<path class="st2" d="M400.1,179.7l20.8,56.9h-41.2L400.1,179.7z M438.1,282.3c0.9,2.2,2,4.3,3.4,6.2c1.1,1.3,2.4,2.4,4,3.2
	c1.8,0.8,3.7,1.2,5.6,1.2c3.6,0.1,7.1-1.4,9.6-4c2.5-2.3,3.9-5.4,4-8.8c0-3.1-1.4-8-4.2-14.8l-36-89c-1.7-4.5-3.1-8-4.2-10.7
	c-1.1-2.6-2.4-5.1-4-7.5c-1.6-2.4-3.8-4.3-6.3-5.7c-3-1.6-6.4-2.3-9.7-2.2c-3.4-0.1-6.7,0.6-9.6,2.2c-2.5,1.4-4.7,3.4-6.3,5.8
	c-1.8,2.8-3.3,5.8-4.5,9c-1.4,3.6-2.6,6.7-3.6,9.3l-35.3,89.6c-1.4,3.6-2.5,6.4-3.1,8.4c-0.6,1.9-0.9,3.9-0.9,5.8
	c0,3.4,1.5,6.5,4,8.8c2.5,2.5,5.8,3.9,9.3,3.9c4.1,0,7.1-1.2,8.9-3.6c1.8-2.4,4-7.1,6.6-14l6.6-17.7h56.1L435,275
	C435.9,277.1,436.9,279.6,438.1,282.3 M235.3,154.7c-2-2.9-5.3-4.4-10.1-4.4c-3.6-0.1-7.2,1.3-9.7,4c-2.4,2.3-3.8,5.4-3.9,8.8
	c0,1.6,0.2,3.1,0.6,4.6c0.4,1.7,0.9,3.4,1.5,5.1c0.6,1.6,1.2,3.2,1.7,4.8l32.8,89.4c1.2,3.5,2.4,6.7,3.6,9.8
	c1.1,2.9,2.5,5.6,4.2,8.2c1.6,2.4,3.8,4.4,6.3,5.8c2.9,1.6,6.2,2.3,9.5,2.2c3.3,0.1,6.6-0.7,9.6-2.3c2.5-1.4,4.6-3.4,6.3-5.8
	c1.7-2.6,3.1-5.3,4.1-8.2c1.2-3.1,2.4-6.4,3.6-9.8l33.4-90.2c0.6-1.6,1.1-3.2,1.7-4.8c0.6-1.5,1-3.1,1.4-4.7c0.4-1.5,0.5-3,0.6-4.5
	c0-2.1-0.6-4.2-1.7-6c-1.2-2-2.8-3.6-4.8-4.7c-2-1.2-4.3-1.8-6.6-1.8c-2.8-0.2-5.5,0.7-7.7,2.3c-1.8,1.4-3.1,3.1-4,5.2
	c-0.8,1.9-2,5.3-3.7,10.2l-31.3,93.2l-31.2-92.5C239.3,162.2,237.3,157.6,235.3,154.7 M132.2,173.6c10.2,0,17.7,1.1,22.7,3.4
	c5,2.3,7.4,6.9,7.4,13.9c0,3.1-0.8,6.2-2.4,8.8c-1.8,3.5-4.9,6.2-8.7,7.5c-3.8,1.3-9.2,2-16.1,2h-25.6v-35.7H132.2z M160.5,234
	c4.9,3.1,7.3,8.2,7.3,15.2c0,13.6-9.4,20.4-28.3,20.4h-30v-40.3h29.1C148.3,229.3,155.6,230.9,160.5,234 M159.7,289.5
	c5-0.6,9.8-1.8,14.5-3.7c6.6-2.8,12.2-7.6,16-13.7c4-6.2,6-13.5,5.9-20.8c0-16.7-9.1-27.9-27.2-33.7c13.8-6.4,20.7-16.5,20.7-30.3
	c0-3.9-0.6-7.8-2-11.4c-1.3-3.6-3.3-7-5.7-9.9c-2.5-2.9-5.4-5.4-8.7-7.4c-4-2.4-8.4-4-13-4.7c-5.7-0.9-11.4-1.3-17.1-1.2H98.5
	c-6,0-10.3,1.3-12.9,4c-2.7,2.7-4,7-4,13.1v103.7c0,6,1.3,10.3,3.9,13c2.6,2.7,6.9,4.1,13,4.1h42.2
	C147,290.6,153.4,290.3,159.7,289.5"/>
</svg>
