<?xml version="1.0" encoding="utf-8"?>
<!-- Generator: Adobe Illustrator 26.0.0, SVG Export Plug-In . SVG Version: 6.00 Build 0)  -->
<svg version="1.1" id="Layer_1" xmlns="http://www.w3.org/2000/svg" xmlns:xlink="http://www.w3.org/1999/xlink" x="0px" y="0px"
	 viewBox="0 0 770 768" style="enable-background:new 0 0 770 768;" xml:space="preserve">
<style type="text/css">
	.st0{fill-rule:evenodd;clip-rule:evenodd;fill:#BDFEE7;}
	.st1{fill:#03C988;}
	.st2{fill-rule:evenodd;clip-rule:evenodd;fill:#03C988;}
</style>
<g>
	<path class="st0" d="M487.56,487.02H244.05c-134.49,0-243.51-109.02-243.51-243.51C0.54,109.02,109.56,0,244.05,0
		s243.51,109.02,243.51,243.51V487.02z M487.56,487.02h140.49c77.59,0,140.49,62.9,140.49,140.49S705.64,768,628.05,768
		c-77.59,0-140.49-62.9-140.49-140.49V487.02z"/>
	<g>
		<path class="st1" d="M15.18,327.49c0.28,8.16,3.7,14.62,15.57,14.62c7.4,0,13.67-2.28,20.59-6.17c1.23-0.66,1.9-1.52,1.9-2.28
			c0-5.12-3.32-11.86-8.92-18.03c-5.41-5.79-12.62-10.91-19.36-14.33c-2.28-1.14-3.04-2.37-3.04-3.51c0-2.37,2.66-7.31,4.84-10.82
			l0.76-0.1c7.69,4.75,16.32,11.77,22.68,19.65c5.79,7.21,9.4,14.52,9.4,22.49c0,5.88-1.52,11.48-3.99,16.61
			c-8.45,5.03-17.46,8.83-26.38,8.83c-10.82,0-18.22-5.98-18.22-20.03c0-1.52,0-3.89,0.47-6.93H15.18z"/>
		<path class="st1" d="M77.82,354.92c0.95-5.98,1.04-12.72,1.04-18.98v-9.3c0-17.37-1.9-42.61-3.42-59.03
			c2.66-3.42,6.36-7.4,9.3-10.06l0.85,0.28c1.99,20.69,2.47,44.7,2.47,66.81c0,5.79-0.19,11.48-0.66,15.66
			c-0.28,5.22-2.85,9.21-8.35,15.28L77.82,354.92z"/>
		<path class="st1" d="M123.47,320.66c5.41,13,10.35,20.5,21.35,20.5h1.71v12.15h-1.99c-4.18,0-7.21-0.85-9.59-3.04h-0.38
			c0.09,1.14,0.19,2.28,0.19,3.32c0,4.46-1.23,10.15-3.8,14.71c-7.5,13.19-15.66,18.89-22.68,18.89c-7.12,0-15.85-3.23-23.73-7.4
			l1.42-3.23c2.56,1.23,6.07,2.09,10.91,2.09c12.72,0,29.42-14.43,31.51-28.47c-0.47-1.14-1.33-2.66-2.56-4.27
			c-3.7-5.22-6.07-9.59-8.26-14.14c1.9-4.36,3.61-7.88,5.22-11.01L123.47,320.66z M115.21,287.63c3.89,2.85,7.69,6.26,11.39,10.15
			c-2.09,3.42-4.65,6.55-7.88,9.3c-3.7-3.51-7.4-6.55-11.2-9.77C110.09,293.9,112.65,290.58,115.21,287.63z"/>
		<path class="st1" d="M149.29,341.16c9.96,0,13.19-4.94,16.04-13.95c3.7-11.86,11.2-18.03,17.56-18.03c4.65,0,8.16,1.71,11.39,6.36
			c2.37,3.42,4.37,7.02,9.49,17.84c2.09,4.46,7.12,7.78,14.81,7.78h1.61v12.15h-1.8c-5.5,0-10.63-1.9-14.62-8.26h-0.38
			c-0.57,3.04-1.52,5.5-3.04,7.21c-1.99,2.09-4.08,3.13-6.26,3.13c-7.31,0.09-19.27-5.12-26.86-13.29h-0.38
			c-2.66,6.07-8.64,11.2-18.89,11.2h-1.42c-5.22,0-6.64-3.8-6.64-6.36c0-2.28,1.52-5.79,6.64-5.79H149.29z M181.28,339.55
			c4.27,2.47,9.78,4.18,13.1,4.18c1.8,0,3.51-0.19,3.51-2.37c0-3.7-2.28-8.83-4.75-12.62c-3.7-5.6-8.07-8.54-12.15-8.54
			c-5.22,0-9.21,3.61-10.91,8.54C171.03,332.24,177.1,337.17,181.28,339.55z"/>
		<path class="st1" d="M222.09,341.16c3.89,0,8.07-1.33,11.01-2.94c2.85-1.61,4.56-4.65,4.56-11.39c0-19.08-1.04-36.16-2.47-57.99
			l-0.28-4.75l8.45-8.54l0.47,0.19c1.8,22.3,1.9,45.56,1.9,74.6c0,4.37,3.04,10.82,14.05,10.82H261v12.15h-1.99
			c-8.83,0-15.47-3.04-18.51-10.06h-0.38c-2.94,5.41-9.11,10.06-18.32,10.06h-1.61c-5.22,0-6.64-3.8-6.64-6.36
			c0-2.28,1.52-5.79,6.64-5.79H222.09z"/>
		<path class="st1" d="M263.1,341.16c3.04,0,6.55-0.38,10.63-2.56c3.32-1.9,5.03-5.32,5.03-10.25c-0.19-15.19-1.23-31.79-2.75-49.26
			c-0.38-4.37-0.95-8.35-0.95-11.86c0-2.09,0.95-4.27,2.85-6.36c1.33-1.61,3.13-3.42,5.22-5.22l0.66,0.47
			c-0.19,6.17,2.75,13.57,7.69,21.73c-1.71,1.61-3.7,3.23-5.98,4.84c0.38,10.92,1.23,22.4,1.23,32.93c0,10.25-1.04,18.13-3.8,23.82
			c-1.99,4.84-4.27,8.83-8.64,11.01c-3.7,1.9-8.16,2.85-11.86,2.85h-1.42c-5.22,0-6.64-3.8-6.64-6.36c0-2.28,1.52-5.79,6.64-5.79
			H263.1z"/>
		<path class="st1" d="M467.83,353.31h-2.18c-9.3,0-15.76-1.8-19.36-8.26c-3.13,1.9-7.97,4.18-14.81,6.17
			c-11.01,3.23-25.06,5.88-36.82,5.88c-13,0-24.2-1.99-32.55-7.31c-8.45-5.41-13.95-14.14-13.95-25.72c0-7.69,1.52-15.28,5.6-22.97
			l3.8,1.61c-1.8,5.41-2.75,10.25-2.75,14.42c0,8.83,5.03,16.42,12.53,20.98c7.78,4.65,18.32,6.07,30.18,6.07
			c11.1,0,21.92-1.71,32.46-4.18c4.37-1.04,8.64-2.47,12.53-4.18l4.18-13.29l6.07-4.74l0.57,0.66c-1.04,3.04-2.18,7.59-2.18,10.63
			c0,3.8,0.76,6.55,3.23,8.45c3.13,2.47,6.74,3.61,11.77,3.61h1.71V353.31z M397.98,374.09c3.89,2.85,7.69,6.26,11.39,10.15
			c-2.09,3.42-4.65,6.55-7.88,9.3c-3.7-3.51-7.4-6.55-11.2-9.77C392.86,380.36,395.42,377.04,397.98,374.09z"/>
		<path class="st1" d="M469.46,341.16c8.07,0,14.52-0.29,18.7-1.8c3.32-1.23,5.41-2.56,5.41-4.18c0-4.46-4.56-13.76-9.49-23.44
			c2.28-4.08,4.65-7.69,7.12-10.73h0.47c4.37,7.69,9.49,19.55,9.49,28.95c0,7.12-2.85,12.62-6.64,17.65
			c-4.27,4.27-11.01,5.7-25.53,5.7h-1.14c-5.22,0-6.64-3.8-6.64-6.36c0-2.28,1.52-5.79,6.64-5.79H469.46z M500.3,280.61
			c-1.14,2.37-2.37,4.56-3.7,6.45c-9.49,1.52-17.75,3.99-24.68,7.12l-0.19-0.29l2.28-3.99c0.85-1.04,2.75-2.56,4.37-3.13v-0.28
			c-4.46-1.33-7.4-4.18-7.4-8.26c0-2.56,1.8-5.88,4.46-8.35c3.13-3.04,7.59-5.41,11.48-5.41c3.8,0,5.98,2.18,5.98,4.65
			c0,2.47-1.52,4.37-3.04,6.17h-0.19c-1.04-2.09-1.99-3.42-3.04-3.7c-0.66-0.19-1.8-0.28-2.94-0.28c-3.32,0-6.64,1.9-6.64,3.32
			c0,4.56,7.97,6.07,13.57,6.07c3.23,0,6.45-0.19,9.68-0.38V280.61z"/>
		<path class="st1" d="M543.68,353.31h-1.04c-7.5,0-12.34-1.52-16.23-5.41c-5.79-5.89-5.88-12.62-5.88-26.57
			c0-18.03-1.04-36.92-2.47-57.04c3.23-3.51,6.17-6.64,8.92-8.83l0.66,0.38c1.52,20.78,1.52,45.37,1.52,68.71v5.41
			c0,6.07,3.42,8.83,7.12,10.15c2.37,0.85,4.84,1.04,6.07,1.04h1.33V353.31z"/>
		<path class="st1" d="M600.24,323.6c-11.01-4.08-21.07-6.64-29.8-6.64c-5.41,0-9.4,1.71-12.05,4.74l1.14,4.75l-2.85,8.54h-0.95
			l-4.65-12.53c0.76-10.54,9.21-17.08,20.6-17.08c6.36,0,16.13,2.18,31.13,8.16c4.56,1.8,10.25,3.13,16.23,3.13h8.26l0.19,0.19
			l-5.88,9.77c-7.59,0-12.91,1.61-16.04,3.61l-15.85,10.35c-13.19,8.45-26.29,12.72-41.66,12.72h-4.37c-5.22,0-6.64-3.8-6.64-6.36
			c0-2.28,1.52-5.79,6.64-5.79h5.79c15.38,0,31.13-5.41,50.68-17.18L600.24,323.6z M578.42,367.45c3.89,2.85,7.69,6.26,11.39,10.15
			c-2.09,3.42-4.65,6.55-7.88,9.3c-3.7-3.51-7.4-6.55-11.2-9.77C573.29,373.71,575.85,370.39,578.42,367.45z M610.87,330.06
			l0.29,0.09c0.38,8.07,7.02,11.01,16.8,11.01h2.56v12.15h-2.94c-12.24,0-20.4-4.27-20.4-15.66c0-1.8,0.09-3.51,0.28-5.32
			L610.87,330.06z"/>
		<path class="st1" d="M634.52,341.16c8.16,0,14.81-0.29,24.87-4.75v-0.38c-4.36-2.94-8.83-8.16-13.29-12.24
			c-2.37-2.18-4.94-3.98-6.55-3.98h-2.94l-0.28-0.19l3.7-10.91l2.94-0.38c7.4-1.61,16.13-3.13,25.44-3.13
			c11.01,0,20.5,1.8,27.52,4.74l-3.32,10.34l-16.51,15.28v0.38c6.36,3.42,13.57,5.22,21.64,5.22h3.8v12.15h-2.85
			c-10.63,0-22.4-3.99-31.61-11.1h-0.38c-11.67,8.45-21.83,11.1-33.22,11.1h-2.94c-5.22,0-6.64-3.8-6.64-6.36
			c0-2.28,1.52-5.79,6.64-5.79H634.52z M668.97,331.86c5.6-3.99,11.39-8.35,17.46-14.14v-0.38c-5.22-1.23-11.01-2.37-17.65-2.37
			c-6.17,0-11.96,0.66-17.56,1.71v0.38c1.71,1.52,3.61,3.51,5.6,5.41c3.13,2.94,7.31,6.26,11.77,9.39H668.97z"/>
		<path class="st1" d="M703.61,341.16c3.04,0,6.55-0.38,10.63-2.56c3.32-1.9,5.03-5.32,5.03-10.25
			c-0.19-15.19-1.23-31.79-2.75-49.26c-0.38-4.37-0.95-8.35-0.95-11.86c0-2.09,0.95-4.27,2.85-6.36c1.33-1.61,3.13-3.42,5.22-5.22
			l0.66,0.47c-0.19,6.17,2.75,13.57,7.69,21.73c-1.71,1.61-3.7,3.23-5.98,4.84c0.38,10.92,1.23,22.4,1.23,32.93
			c0,10.25-1.04,18.13-3.8,23.82c-1.99,4.84-4.27,8.83-8.64,11.01c-3.7,1.9-8.16,2.85-11.86,2.85h-1.42c-5.22,0-6.64-3.8-6.64-6.36
			c0-2.28,1.52-5.79,6.64-5.79H703.61z"/>
		<path class="st1" d="M748.41,354.92c0.95-5.98,1.04-12.72,1.04-18.98v-9.3c0-17.37-1.9-42.61-3.42-59.03
			c2.66-3.42,6.36-7.4,9.3-10.06l0.85,0.28c1.99,20.69,2.47,44.7,2.47,66.81c0,5.79-0.19,11.48-0.66,15.66
			c-0.29,5.22-2.85,9.21-8.35,15.28L748.41,354.92z"/>
	</g>
	<g>
		<path class="st2" d="M699.59,619.19l-42.22,42.22c-1.02,1.01-2.67,1.01-3.68,0c-0.49-0.49-0.76-1.14-0.76-1.83
			c0-0.69,0.27-1.35,0.76-1.84l42.22-42.22c0.51-0.51,1.17-0.76,1.84-0.76c0.66,0,1.33,0.25,1.84,0.76
			C700.6,616.53,700.6,618.18,699.59,619.19z M630.5,642.22c-1.01,1.01-2.66,1.01-3.68,0l-11.51-11.52
			c-0.49-0.49-0.76-1.14-0.76-1.83c0-0.69,0.27-1.35,0.76-1.84l1.84-1.84l15.19,15.19L630.5,642.22z M572.93,692.12
			c-1.01,1.01-2.66,1.02-3.68,0l-3.84-3.84c-1.01-1.01-1.01-2.66,0-3.68l47.9-47.9l7.51,7.52L572.93,692.12z M644.02,567.62
			l9.43,9.43l-7.6,7.6l4,4l7.6-7.6l3.68,3.68l-11.44,11.43l4,4l11.44-11.43l3.68,3.68l-11.43,11.44l4,4l11.43-11.44l3.68,3.68
			l-7.6,7.6l4,4l7.6-7.6l9.43,9.43l-38.22,38.22l-45.9-45.9L644.02,567.62z M596.12,600.16l42.22-42.22
			c0.51-0.51,1.17-0.76,1.84-0.76c0.66,0,1.33,0.25,1.83,0.76c1.02,1.01,1.02,2.66,0,3.68l-42.22,42.22c-0.99,0.99-2.7,0.98-3.68,0
			C595.11,602.82,595.11,601.18,596.12,600.16z M703.59,611.51c-2.52-2.51-6.25-3.03-9.3-1.62l-46.65-46.65
			c1.41-3.05,0.89-6.78-1.62-9.3c-3.21-3.22-8.45-3.22-11.68,0l-42.22,42.22c-3.22,3.22-3.22,8.46,0,11.68
			c1.56,1.56,3.63,2.42,5.84,2.42c1.22,0,2.39-0.29,3.47-0.79l11.72,11.72l-1.84,1.84c-1.56,1.56-2.42,3.63-2.42,5.84
			c0,1.22,0.29,2.39,0.79,3.47l-48.27,48.27c-3.22,3.22-3.22,8.46,0,11.68l3.84,3.84c1.61,1.61,3.72,2.41,5.84,2.41
			c2.11,0,4.23-0.81,5.84-2.41l48.27-48.27c1.1,0.51,2.28,0.79,3.47,0.79c2.11,0,4.23-0.81,5.84-2.41l1.84-1.84l11.72,11.72
			c-0.5,1.08-0.79,2.24-0.79,3.47c0,2.21,0.86,4.28,2.42,5.84c1.61,1.61,3.72,2.41,5.84,2.41c2.11,0,4.23-0.81,5.84-2.41
			l42.22-42.22C706.81,619.97,706.81,614.73,703.59,611.51z"/>
		
			<rect x="566.68" y="666.4" transform="matrix(0.7071 -0.7071 0.7071 0.7071 -303.5165 610.9135)" class="st2" width="37.99" height="10.86"/>
	</g>
</g>
</svg>
