<svg id="Layer_1" data-name="Layer 1" xmlns="http://www.w3.org/2000/svg" viewBox="0 0 768 768"><defs><style>.cls-1{fill:#fff;}.cls-1,.cls-3{fill-rule:evenodd;}.cls-2,.cls-3{fill:#191919;}</style></defs><path class="cls-1" d="M487.56,487H244.05C109.56,487,.54,378,.54,243.51S109.56,0,244.05,0,487.56,109,487.56,243.51Zm0,0H628.05A140.49,140.49,0,1,1,487.56,627.51Z" transform="translate(-0.54)"/><path class="cls-2" d="M15.18,327.49c.28,8.17,3.7,14.62,15.56,14.62,7.4,0,13.67-2.28,20.6-6.17,1.23-.66,1.89-1.52,1.89-2.28,0-5.12-3.32-11.86-8.92-18A72.22,72.22,0,0,0,25,301.3c-2.28-1.14-3-2.37-3-3.51,0-2.38,2.66-7.31,4.84-10.82l.76-.1A93.33,93.33,0,0,1,50.2,306.52C56,313.73,59.59,321,59.59,329a38.29,38.29,0,0,1-4,16.61c-8.45,5-17.47,8.83-26.39,8.83-10.82,0-18.22-6-18.22-20a42.78,42.78,0,0,1,.47-6.93Z" transform="translate(-0.54)"/><path class="cls-2" d="M77.82,354.92a125.12,125.12,0,0,0,1-19v-9.3c0-17.37-1.89-42.61-3.41-59a85.15,85.15,0,0,1,9.3-10.06l.85.28c2,20.69,2.47,44.7,2.47,66.82a151.61,151.61,0,0,1-.66,15.66c-.29,5.22-2.85,9.2-8.36,15.28Z" transform="translate(-0.54)"/><path class="cls-2" d="M123.47,320.66c5.41,13,10.35,20.5,21.36,20.5h1.7v12.15h-2c-4.17,0-7.21-.86-9.58-3h-.38c.09,1.14.19,2.28.19,3.32A31.75,31.75,0,0,1,131,368.3c-7.5,13.2-15.66,18.89-22.68,18.89s-15.85-3.23-23.73-7.4L86,376.56a25.06,25.06,0,0,0,10.92,2.09c12.72,0,29.42-14.43,31.51-28.47a20,20,0,0,0-2.57-4.27,91,91,0,0,1-8.25-14.15c1.9-4.36,3.6-7.87,5.22-11Zm-8.26-33a85.51,85.51,0,0,1,11.39,10.16,38.39,38.39,0,0,1-7.87,9.3c-3.7-3.51-7.41-6.55-11.2-9.78C110.09,293.9,112.65,290.58,115.21,287.63Z" transform="translate(-0.54)"/><path class="cls-2" d="M149.29,341.16c10,0,13.19-4.93,16-14,3.7-11.86,11.2-18,17.56-18,4.65,0,8.16,1.71,11.39,6.36,2.37,3.41,4.36,7,9.49,17.84,2.09,4.46,7.12,7.78,14.8,7.78h1.62v12.15h-1.81c-5.5,0-10.62-1.9-14.61-8.26h-.38a14.86,14.86,0,0,1-3,7.22c-2,2.08-4.08,3.13-6.26,3.13-7.31.09-19.27-5.13-26.86-13.29h-.38c-2.66,6.07-8.64,11.2-18.89,11.2h-1.42c-5.22,0-6.64-3.8-6.64-6.36,0-2.28,1.51-5.79,6.64-5.79Zm32-1.61c4.27,2.46,9.77,4.17,13.09,4.17,1.81,0,3.51-.19,3.51-2.37,0-3.7-2.27-8.83-4.74-12.62-3.7-5.6-8.07-8.54-12.15-8.54-5.22,0-9.2,3.6-10.91,8.54C171,332.24,177.1,337.17,181.28,339.55Z" transform="translate(-0.54)"/><path class="cls-2" d="M222.09,341.16a24.35,24.35,0,0,0,11-2.94c2.85-1.61,4.56-4.65,4.56-11.39,0-19.08-1-36.16-2.47-58l-.29-4.75,8.45-8.54.48.19c1.8,22.31,1.89,45.56,1.89,74.6,0,4.37,3,10.82,14,10.82H261v12.15h-2c-8.83,0-15.47-3-18.51-10.06h-.38c-2.94,5.41-9.11,10.06-18.31,10.06h-1.62c-5.22,0-6.64-3.8-6.64-6.36,0-2.28,1.52-5.79,6.64-5.79Z" transform="translate(-0.54)"/><path class="cls-2" d="M263.1,341.16a21.42,21.42,0,0,0,10.63-2.56c3.32-1.9,5-5.32,5-10.25-.19-15.19-1.24-31.8-2.76-49.26-.38-4.37-.95-8.35-.95-11.86a9.6,9.6,0,0,1,2.85-6.36,44.94,44.94,0,0,1,5.22-5.22l.67.47c-.19,6.17,2.75,13.58,7.68,21.74a55.2,55.2,0,0,1-6,4.84c.38,10.91,1.24,22.39,1.24,32.93,0,10.25-1.05,18.13-3.8,23.82-2,4.84-4.27,8.83-8.63,11a27.25,27.25,0,0,1-11.87,2.85H261c-5.22,0-6.65-3.8-6.65-6.36,0-2.28,1.52-5.79,6.65-5.79Z" transform="translate(-0.54)"/><path class="cls-2" d="M467.83,353.31h-2.18c-9.3,0-15.75-1.8-19.36-8.26a62.45,62.45,0,0,1-14.81,6.17c-11,3.23-25.05,5.88-36.82,5.88-13,0-24.2-2-32.55-7.3a29.44,29.44,0,0,1-14-25.72,47.71,47.71,0,0,1,5.6-23l3.8,1.61a46.77,46.77,0,0,0-2.75,14.43c0,8.83,5,16.42,12.53,21,7.78,4.65,18.31,6.08,30.18,6.08A142.08,142.08,0,0,0,430,340a75.06,75.06,0,0,0,12.52-4.17l4.18-13.29,6.07-4.75.57.67a38.63,38.63,0,0,0-2.18,10.63c0,3.79.76,6.55,3.23,8.44,3.13,2.47,6.74,3.61,11.77,3.61h1.7ZM398,374.09a86.14,86.14,0,0,1,11.39,10.16,38.25,38.25,0,0,1-7.88,9.3c-3.7-3.51-7.4-6.55-11.2-9.78C392.86,380.36,395.42,377,398,374.09Z" transform="translate(-0.54)"/><path class="cls-2" d="M469.46,341.16c8.06,0,14.52-.28,18.69-1.8,3.33-1.24,5.41-2.57,5.41-4.18,0-4.46-4.55-13.76-9.49-23.44A75.37,75.37,0,0,1,491.19,301h.48c4.36,7.69,9.49,19.56,9.49,28.95,0,7.12-2.85,12.62-6.65,17.65-4.27,4.28-11,5.7-25.53,5.7h-1.14c-5.22,0-6.64-3.8-6.64-6.36,0-2.28,1.52-5.79,6.64-5.79Zm30.84-60.55a46.26,46.26,0,0,1-3.7,6.45,97.55,97.55,0,0,0-24.68,7.12l-.19-.28,2.28-4a11.89,11.89,0,0,1,4.37-3.13v-.29c-4.46-1.33-7.4-4.17-7.4-8.25,0-2.57,1.8-5.89,4.46-8.36,3.13-3,7.59-5.41,11.48-5.41s6,2.19,6,4.65-1.52,4.37-3,6.18h-.19c-1-2.09-2-3.42-3-3.71a12.41,12.41,0,0,0-2.95-.28c-3.32,0-6.64,1.9-6.64,3.32,0,4.56,8,6.07,13.57,6.07,3.23,0,6.46-.19,9.68-.37Z" transform="translate(-0.54)"/><path class="cls-2" d="M543.68,353.31h-1c-7.49,0-12.33-1.52-16.23-5.41-5.78-5.89-5.88-12.62-5.88-26.57,0-18-1-36.92-2.47-57a85.05,85.05,0,0,1,8.92-8.83l.67.38c1.52,20.78,1.52,45.36,1.52,68.71V330c0,6.08,3.41,8.83,7.11,10.16a19.35,19.35,0,0,0,6.08,1h1.33Z" transform="translate(-0.54)"/><path class="cls-2" d="M600.25,323.6c-11-4.08-21.07-6.64-29.81-6.64-5.41,0-9.39,1.71-12.05,4.74l1.14,4.75L556.68,335h-.95l-4.65-12.53c.76-10.53,9.21-17.08,20.6-17.08,6.36,0,16.13,2.18,31.13,8.16A44.75,44.75,0,0,0,619,316.67h8.25l.19.19-5.88,9.78c-7.59,0-12.91,1.61-16,3.61l-15.85,10.34c-13.19,8.45-26.29,12.72-41.66,12.72h-4.37c-5.22,0-6.64-3.8-6.64-6.36,0-2.28,1.52-5.79,6.64-5.79h5.79c15.38,0,31.13-5.41,50.68-17.18Zm-21.83,43.85a86.06,86.06,0,0,1,11.39,10.16,38.63,38.63,0,0,1-7.88,9.3c-3.7-3.52-7.4-6.55-11.2-9.78C573.29,373.71,575.85,370.39,578.42,367.45Zm32.45-37.39.29.09c.38,8.07,7,11,16.8,11h2.56v12.15h-2.94c-12.24,0-20.41-4.27-20.41-15.66a50.05,50.05,0,0,1,.29-5.32Z" transform="translate(-0.54)"/><path class="cls-2" d="M634.52,341.16c8.16,0,14.8-.28,24.86-4.75V336c-4.36-3-8.82-8.17-13.29-12.25-2.37-2.18-4.93-4-6.54-4H636.6l-.28-.19L640,308.7l2.94-.38a119.72,119.72,0,0,1,25.44-3.13c11,0,20.5,1.8,27.52,4.75l-3.32,10.34-16.52,15.28v.38a45,45,0,0,0,21.64,5.22h3.8v12.15h-2.85a53.35,53.35,0,0,1-31.6-11.11h-.38c-11.67,8.45-21.83,11.11-33.22,11.11h-2.94c-5.22,0-6.64-3.8-6.64-6.36,0-2.28,1.51-5.79,6.64-5.79Zm34.45-9.3a153.24,153.24,0,0,0,17.46-14.14v-.38A74.62,74.62,0,0,0,668.78,315a95.34,95.34,0,0,0-17.56,1.7v.38c1.71,1.52,3.61,3.52,5.6,5.41a109.49,109.49,0,0,0,11.77,9.4Z" transform="translate(-0.54)"/><path class="cls-2" d="M703.61,341.16a21.37,21.37,0,0,0,10.63-2.56c3.33-1.9,5-5.32,5-10.25-.19-15.19-1.23-31.8-2.75-49.26-.38-4.37-.95-8.35-.95-11.86a9.6,9.6,0,0,1,2.85-6.36,44.94,44.94,0,0,1,5.22-5.22l.66.47c-.19,6.17,2.75,13.58,7.69,21.74a56.19,56.19,0,0,1-6,4.84c.38,10.91,1.24,22.39,1.24,32.93,0,10.25-1,18.13-3.8,23.82-2,4.84-4.27,8.83-8.64,11A27.17,27.17,0,0,1,703,353.31h-1.42c-5.22,0-6.65-3.8-6.65-6.36,0-2.28,1.52-5.79,6.65-5.79Z" transform="translate(-0.54)"/><path class="cls-2" d="M748.41,354.92a125.11,125.11,0,0,0,1.05-19v-9.3c0-17.37-1.9-42.61-3.42-59a86,86,0,0,1,9.3-10.06l.86.28c2,20.69,2.46,44.7,2.46,66.82a151.61,151.61,0,0,1-.66,15.66c-.29,5.22-2.85,9.2-8.35,15.28Z" transform="translate(-0.54)"/><path class="cls-3" d="M699.59,619.19l-42.22,42.22a2.6,2.6,0,0,1-3.68,0,2.6,2.6,0,0,1,0-3.67l42.22-42.23a2.61,2.61,0,0,1,3.68,0A2.61,2.61,0,0,1,699.59,619.19Zm-69.09,23a2.6,2.6,0,0,1-3.68,0L615.31,630.7a2.56,2.56,0,0,1-.76-1.83,2.6,2.6,0,0,1,.76-1.84l1.84-1.84,15.19,15.2Zm-57.57,49.9a2.61,2.61,0,0,1-3.68,0l-3.83-3.84a2.6,2.6,0,0,1,0-3.68l47.89-47.9,7.52,7.52ZM644,567.62l9.43,9.43-7.6,7.6,4,4,7.6-7.6,3.68,3.68-11.44,11.43,4,4,11.44-11.43,3.67,3.67-11.43,11.44,4,4L672.8,596.4l3.68,3.68-7.6,7.6,4,4,7.6-7.6,9.43,9.43-38.22,38.23-45.9-45.9Zm-47.9,32.54,42.22-42.22a2.6,2.6,0,0,1,3.68,3.68L599.8,603.84a2.66,2.66,0,0,1-3.68,0A2.61,2.61,0,0,1,596.12,600.16Zm107.47,11.35a8.26,8.26,0,0,0-9.3-1.62l-46.65-46.65a8.23,8.23,0,0,0-13.3-9.29l-42.22,42.21a8.24,8.24,0,0,0,9.31,13.31l11.72,11.72L611.31,623a8.2,8.2,0,0,0-1.63,9.3L561.42,680.6a8.25,8.25,0,0,0,0,11.68l3.83,3.83a8.24,8.24,0,0,0,11.67,0l48.27-48.27a8.17,8.17,0,0,0,9.3-1.62l1.84-1.84,11.73,11.73a8.24,8.24,0,0,0,13.3,9.3l42.22-42.22A8.26,8.26,0,0,0,703.59,611.51Z" transform="translate(-0.54)"/><rect class="cls-2" x="566.68" y="666.4"  transform="translate(-304.06 610.91) rotate(-45)"/></svg>