<?xml version="1.0" encoding="UTF-8"?>
<svg width="136px" height="72px" viewBox="0 0 136 72" version="1.1" xmlns="http://www.w3.org/2000/svg" xmlns:xlink="http://www.w3.org/1999/xlink">
    <!-- Generator: Sketch 64 (93537) - https://sketch.com -->
    <title>01 Img / Logo / BVA + payoff</title>
    <desc>Created with Sketch.</desc>
    <defs>
        <polygon id="path-1" points="0.255 0.367285714 56.1964286 0.367285714 56.1964286 22.6885714 0.255 22.6885714"></polygon>
    </defs>
    <g id="01-Img-/-Logo-/-BVA-+-payoff" stroke="none" stroke-width="1" fill="none" fill-rule="evenodd">
        <g id="BVA-logo-2019-RGB" transform="translate(10.000000, 20.000000)"></g>
        <g id="Group" transform="translate(0.000000, 0.000000)">
            <path d="M71.5924286,62.4077143 C71.5924286,62.4077143 71.5924286,71.5928571 62.4072857,71.5928571 L35.3751429,71.5928571 L35.3751429,71.5872857 C15.7997143,71.3614286 0,55.4254286 0,35.7964286 C0,16.0268571 16.0264286,7.10542736e-15 35.796,7.10542736e-15 C55.566,7.10542736e-15 71.5924286,16.0268571 71.5924286,35.7964286 C71.5924286,35.9905714 71.5881429,36.1838571 71.5851429,36.3771429 L71.5885714,36.3771429 C71.5885714,36.3771429 71.5924286,36.3771429 71.5924286,45.5622857 L71.5924286,62.4077143" id="Fill-1" fill="#FFFFFF"></path>
            <path d="M11.394,47.709 C11.394,45.8747143 12.5147143,44.3974286 14.2727143,44.3974286 C15.0115714,44.3974286 15.801,44.691 16.2595714,45.3017143 L16.2595714,44.5251429 L17.9284286,44.5251429 L17.9284286,50.8932857 L16.2595714,50.8932857 L16.2595714,50.1291429 C15.8138571,50.7402857 15.0115714,51.021 14.2727143,51.021 C12.5147143,51.021 11.394,49.5432857 11.394,47.709 M16.2214286,47.709 C16.2214286,46.7155714 15.5845714,45.9767143 14.7055714,45.9767143 C13.7884286,45.9767143 13.1262857,46.7155714 13.1262857,47.709 C13.1262857,48.7152857 13.7884286,49.4412857 14.7055714,49.4412857 C15.5845714,49.4412857 16.2214286,48.7281429 16.2214286,47.709" id="Fill-3" fill="#E38250"></path>
            <path d="M19.3148571,48.3334286 L19.3148571,44.5251429 L21.0218571,44.5251429 L21.0218571,48.1037143 C21.0218571,48.9955714 21.4037143,49.4035714 22.1935714,49.4035714 C23.085,49.4035714 23.5182857,48.6518571 23.5182857,47.7861429 L23.5182857,44.5251429 L25.2248571,44.5251429 L25.2248571,50.8937143 L23.6198571,50.8937143 L23.6198571,50.0022857 C23.238,50.6262857 22.3718571,51.021 21.633,51.021 C19.8754286,51.021 19.3148571,49.9894286 19.3148571,48.3334286" id="Fill-4" fill="#E38250"></path>
            <path d="M26.367,47.709 C26.367,45.8618571 27.8704286,44.3974286 29.7677143,44.3974286 C30.6471429,44.3974286 31.4108571,44.691 32.0485714,45.2125714 L31.0161429,46.41 C30.7234286,46.1425714 30.3162857,45.9767143 29.8067143,45.9767143 C28.8124286,45.9767143 28.0992857,46.7027143 28.0992857,47.709 C28.0992857,48.7024286 28.7742857,49.4412857 29.8568571,49.4412857 C30.3921429,49.4412857 30.9145714,49.2372857 31.2454286,48.9188571 L32.1497143,50.193 C31.539,50.715 30.6848571,51.021 29.7677143,51.021 C27.8704286,51.021 26.367,49.5561429 26.367,47.709" id="Fill-5" fill="#E38250"></path>
            <path d="M33.6192857,48.8425714 L33.6192857,45.9008571 L32.6892857,45.9008571 L32.6892857,44.5251429 L33.6192857,44.5251429 L33.6192857,43.302 L35.3258571,42.9201429 L35.3258571,44.5251429 L37.0838571,44.5251429 L37.0838571,45.9008571 L35.3258571,45.9008571 L35.3258571,48.8168571 C35.3258571,49.3654286 35.5937143,49.5432857 35.8992857,49.5432857 C36.3068571,49.5432857 36.6634286,49.314 36.7144286,49.2762857 L37.1987143,50.5362857 C36.8164286,50.7917143 36.2558571,51.021 35.5808571,51.021 C34.3071429,51.021 33.6192857,50.2817143 33.6192857,48.8425714" id="Fill-6" fill="#E38250"></path>
            <path d="M37.9885714,42.7418571 C37.9885714,42.1808571 38.4471429,41.7227143 38.9948571,41.7227143 C39.5554286,41.7227143 40.014,42.1808571 40.014,42.7418571 C40.014,43.2891429 39.5554286,43.7477143 38.9948571,43.7477143 C38.4471429,43.7477143 37.9885714,43.2891429 37.9885714,42.7418571 L37.9885714,42.7418571 Z M38.154,50.8932857 L39.861,50.8932857 L39.861,44.5251429 L38.154,44.5251429 L38.154,50.8932857 Z" id="Fill-7" fill="#E38250"></path>
            <path d="M40.9632857,47.709 C40.9632857,45.8618571 42.4662857,44.3974286 44.364,44.3974286 C46.275,44.3974286 47.7775714,45.8618571 47.7775714,47.709 C47.7775714,49.5561429 46.275,51.021 44.364,51.021 C42.4662857,51.021 40.9632857,49.5561429 40.9632857,47.709 M46.0324286,47.709 C46.0324286,46.7155714 45.3192857,45.9767143 44.364,45.9767143 C43.4087143,45.9767143 42.6955714,46.7155714 42.6955714,47.709 C42.6955714,48.7152857 43.4087143,49.4412857 44.364,49.4412857 C45.3192857,49.4412857 46.0324286,48.7152857 46.0324286,47.709" id="Fill-8" fill="#E38250"></path>
            <path d="M48.9274286,44.5251429 L50.5958571,44.5251429 L50.5958571,45.3784286 C51.1054286,44.6777143 51.8314286,44.3978571 52.6084286,44.3978571 C54.2897143,44.3978571 54.8755714,45.48 54.8755714,47.2251429 L54.8755714,50.8937143 L53.169,50.8937143 L53.169,47.4415714 C53.169,46.512 52.9272857,46.0152857 52.0611429,46.0152857 C51.2074286,46.0152857 50.6344286,46.7031429 50.6344286,47.6712857 L50.6344286,50.8937143 L48.9274286,50.8937143 L48.9274286,44.5251429" id="Fill-9" fill="#E38250"></path>
            <path d="M55.8574286,50.1548571 L56.4694286,48.8425714 C56.9018571,49.1738571 57.5005714,49.5175714 58.4558571,49.5175714 C58.8505714,49.5175714 59.5002857,49.3654286 59.5002857,48.9827143 C59.5002857,48.6012857 58.9525714,48.5117143 58.4052857,48.3587143 C57.1435714,48.0278571 56.1124286,47.607 56.1124286,46.3847143 C56.1124286,45.0852857 57.3857143,44.3978571 58.5831429,44.3978571 C59.628,44.3978571 60.2905714,44.6524286 60.9522857,45.0338571 L60.3797143,46.3084286 C59.7552857,46.002 59.169,45.8622857 58.6088571,45.8622857 C58.2137143,45.8622857 57.8447143,46.041 57.8447143,46.3084286 C57.8447143,46.6645714 58.3795714,46.7794286 58.9654286,46.9062857 C60.0484286,47.1612857 61.2325714,47.6331429 61.2325714,48.9317143 C61.2325714,50.4985714 59.6404286,51.021 58.4558571,51.021 C57.0934286,51.021 56.214,50.4861429 55.8574286,50.1548571" id="Fill-10" fill="#E38250"></path>
            <path d="M79.0594286,54.4178571 C79.0594286,52.4245714 80.3832857,50.8778571 82.2651429,50.8778571 C83.352,50.8778571 84.3141429,51.324 84.8155714,52.2017143 L84.8155714,51.0167143 L85.875,51.0167143 L85.875,57.8044286 L84.8155714,57.8044286 L84.8155714,56.6198571 C84.3141429,57.5121429 83.352,57.9437143 82.2651429,57.9437143 C80.3832857,57.9437143 79.0594286,56.3832857 79.0594286,54.4178571 M84.8155714,54.4178571 C84.8155714,52.9958571 83.7981429,51.909 82.5021429,51.909 C81.15,51.909 80.1471429,52.9684286 80.1471429,54.4178571 C80.1471429,55.8527143 81.15,56.913 82.5021429,56.913 C83.7981429,56.913 84.8155714,55.8394286 84.8155714,54.4178571" id="Fill-11" fill="#FFFFFF"></path>
            <polygon id="Fill-12" fill="#FFFFFF" points="87.7152857 57.8048571 88.7742857 57.8048571 88.7742857 48.6338571 87.7152857 48.6338571"></polygon>
            <path d="M90.9077143,55.7695714 L90.9077143,51.8948571 L89.8902857,51.8948571 L89.8902857,51.0171429 L90.9077143,51.0171429 L90.9077143,49.5535714 L91.9667143,49.3585714 L91.9667143,51.0171429 L94.2805714,51.0171429 L94.2805714,51.8948571 L91.9667143,51.8948571 L91.9667143,55.7978571 C91.9667143,56.7317143 92.3708571,56.9961429 92.9147143,56.9961429 C93.5412857,56.9961429 94.0298571,56.6198571 94.0298571,56.6198571 L94.3778571,57.4418571 C94.113,57.6235714 93.5558571,57.9441429 92.817,57.9441429 C91.6182857,57.9441429 90.9077143,57.3587143 90.9077143,55.7695714" id="Fill-13" fill="#FFFFFF"></path>
            <path d="M95.4012857,49.1074286 C95.4012857,48.7174286 95.7077143,48.3968571 96.0981429,48.3968571 C96.4881429,48.3968571 96.8091429,48.7174286 96.8091429,49.1074286 C96.8091429,49.4978571 96.4881429,49.8042857 96.0981429,49.8042857 C95.7077143,49.8042857 95.4012857,49.4978571 95.4012857,49.1074286 L95.4012857,49.1074286 Z M95.5684286,57.8044286 L96.6282857,57.8044286 L96.6282857,51.0171429 L95.5684286,51.0171429 L95.5684286,57.8044286 Z M97.2552857,59.3237143 C98.0357143,58.878 98.412,57.9724286 98.412,56.745 L98.412,51.0171429 L99.471,51.0171429 L99.471,56.6198571 C99.471,58.4455714 98.802,59.5607143 97.6311429,60.1324286 L97.2552857,59.3237143 Z M98.2444286,49.1074286 C98.2444286,48.7174286 98.5512857,48.3968571 98.9412857,48.3968571 C99.318,48.3968571 99.6381429,48.7174286 99.6381429,49.1074286 C99.6381429,49.4978571 99.318,49.8042857 98.9412857,49.8042857 C98.5512857,49.8042857 98.2444286,49.4978571 98.2444286,49.1074286 L98.2444286,49.1074286 Z" id="Fill-14" fill="#FFFFFF"></path>
            <path d="M100.995,54.4178571 C100.995,52.4245714 102.318857,50.8778571 104.200714,50.8778571 C105.287571,50.8778571 106.249714,51.324 106.751143,52.2017143 L106.751143,48.6338571 L107.810571,48.6338571 L107.810571,57.8044286 L106.793143,57.8044286 L106.793143,56.6198571 C106.291286,57.5121429 105.301714,57.9437143 104.200714,57.9437143 C102.318857,57.9437143 100.995,56.3832857 100.995,54.4178571 M106.751143,54.4178571 C106.751143,52.9958571 105.733714,51.909 104.437714,51.909 C103.085571,51.909 102.082286,52.9684286 102.082286,54.4178571 C102.082286,55.8527143 103.085571,56.913 104.437714,56.913 C105.733714,56.913 106.751143,55.8394286 106.751143,54.4178571" id="Fill-15" fill="#FFFFFF"></path>
            <path d="M111.867429,51.0171429 L112.912714,51.0171429 L114.445714,55.491 C114.599143,55.9512857 114.682714,56.4805714 114.682714,56.4805714 C114.682714,56.4805714 114.738429,55.9512857 114.877714,55.5051429 L116.257714,51.0171429 L117.247286,51.0171429 L118.641,55.5051429 C118.780286,55.9512857 118.836,56.4805714 118.836,56.4805714 C118.836,56.4805714 118.905857,55.9512857 119.073,55.491 L120.606,51.0171429 L121.651286,51.0171429 L119.31,57.8464286 L118.390286,57.8464286 L116.982429,53.3588571 C116.856857,52.968 116.759571,52.3692857 116.759571,52.3692857 C116.759571,52.3692857 116.675571,52.968 116.550429,53.3588571 L115.114714,57.8464286 L114.208714,57.8464286 L111.867429,51.0171429" id="Fill-16" fill="#FFFFFF"></path>
            <path d="M122.211429,54.4178571 C122.211429,52.4245714 123.535714,50.8778571 125.417143,50.8778571 C126.504429,50.8778571 127.466143,51.324 127.968,52.2017143 L127.968,51.0167143 L129.027,51.0167143 L129.027,57.8044286 L127.968,57.8044286 L127.968,56.6198571 C127.466143,57.5121429 126.504429,57.9437143 125.417143,57.9437143 C123.535714,57.9437143 122.211429,56.3832857 122.211429,54.4178571 M127.968,54.4178571 C127.968,52.9958571 126.950571,51.909 125.654143,51.909 C124.302429,51.909 123.298286,52.9684286 123.298286,54.4178571 C123.298286,55.8527143 124.302429,56.913 125.654143,56.913 C126.950571,56.913 127.968,55.8394286 127.968,54.4178571" id="Fill-17" fill="#FFFFFF"></path>
            <g id="Group-27" transform="translate(78.428571, 48.991286)">
                <mask id="mask-2" fill="white">
                    <use xlink:href="#path-1"></use>
                </mask>
                <g id="Clip-19"></g>
                <path d="M52.7262857,6.77828571 L52.7262857,2.90357143 L51.7088571,2.90357143 L51.7088571,2.02585714 L52.7262857,2.02585714 L52.7262857,0.562285714 L53.7852857,0.367285714 L53.7852857,2.02585714 L56.0987143,2.02585714 L56.0987143,2.90357143 L53.7852857,2.90357143 L53.7852857,6.80657143 C53.7852857,7.74042857 54.189,8.00485714 54.7332857,8.00485714 C55.3602857,8.00485714 55.848,7.62857143 55.848,7.62857143 L56.1964286,8.45057143 C55.9315714,8.63228571 55.3744286,8.95285714 54.6351429,8.95285714 C53.4364286,8.95285714 52.7262857,8.36742857 52.7262857,6.77828571" id="Fill-18" fill="#FFFFFF" mask="url(#mask-2)"></path>
                <path d="M1.27242857,20.5392857 L1.27242857,16.6645714 L0.255,16.6645714 L0.255,15.7872857 L1.27242857,15.7872857 L1.27242857,14.3237143 L2.331,14.1282857 L2.331,15.7872857 L4.64528571,15.7872857 L4.64528571,16.6645714 L2.331,16.6645714 L2.331,20.5675714 C2.331,21.5018571 2.73557143,21.7662857 3.279,21.7662857 C3.906,21.7662857 4.39457143,21.39 4.39457143,21.39 L4.74214286,22.212 C4.47728571,22.3937143 3.92014286,22.7142857 3.18171429,22.7142857 C1.983,22.7142857 1.27242857,22.1284286 1.27242857,20.5392857" id="Fill-20" fill="#FFFFFF" mask="url(#mask-2)"></path>
                <path d="M5.313,19.1875714 C5.313,17.2225714 6.79028571,15.6475714 8.72785714,15.6475714 C10.5394286,15.6475714 11.9751429,17.2084286 11.9751429,19.146 C11.9751429,19.3414286 11.9472857,19.5501429 11.9472857,19.5638571 L6.414,19.5638571 C6.58114286,20.916 7.62685714,21.7658571 8.88042857,21.7658571 C9.64757143,21.7658571 10.4142857,21.5018571 10.9714286,21.0415714 L11.4312857,21.8224286 C10.7065714,22.3941429 9.80057143,22.7138571 8.86714286,22.7138571 C6.94371429,22.7138571 5.313,21.3338571 5.313,19.1875714 M10.9298571,18.7555714 C10.8184286,17.5015714 9.85671429,16.5955714 8.67214286,16.5955714 C7.51542857,16.5955714 6.56742857,17.4874286 6.414,18.7555714 L10.9298571,18.7555714" id="Fill-21" fill="#FFFFFF" mask="url(#mask-2)"></path>
                <path d="M17.5375714,21.39 L17.5375714,22.5745714 L16.5201429,22.5745714 L16.5201429,13.4035714 L17.5787143,13.4035714 L17.5787143,16.9714286 C18.0805714,16.0937143 19.0568571,15.6475714 20.13,15.6475714 C22.011,15.6475714 23.3352857,17.1951429 23.3352857,19.1875714 C23.3352857,21.153 22.011,22.7142857 20.13,22.7142857 C19.0285714,22.7142857 18.0394286,22.2818571 17.5375714,21.39 M22.2484286,19.1875714 C22.2484286,17.7381429 21.2442857,16.6795714 19.893,16.6795714 C18.5965714,16.6795714 17.5787143,17.7664286 17.5787143,19.1875714 C17.5787143,20.61 18.5965714,21.6827143 19.893,21.6827143 C21.2442857,21.6827143 22.2484286,20.6228571 22.2484286,19.1875714" id="Fill-22" fill="#FFFFFF" mask="url(#mask-2)"></path>
                <path d="M24.6741429,13.878 C24.6741429,13.4871429 24.9805714,13.1665714 25.371,13.1665714 C25.761,13.1665714 26.082,13.4871429 26.082,13.878 C26.082,14.2684286 25.761,14.5744286 25.371,14.5744286 C24.9805714,14.5744286 24.6741429,14.2684286 24.6741429,13.878 L24.6741429,13.878 Z M24.8412857,22.5745714 L25.9007143,22.5745714 L25.9007143,15.7877143 L24.8412857,15.7877143 L24.8412857,22.5745714 Z" id="Fill-23" fill="#FFFFFF" mask="url(#mask-2)"></path>
                <path d="M27.3681429,19.1875714 C27.3681429,17.2225714 28.8458571,15.6475714 30.7834286,15.6475714 C32.595,15.6475714 34.0302857,17.2084286 34.0302857,19.146 C34.0302857,19.3414286 34.0028571,19.5501429 34.0028571,19.5638571 L28.4695714,19.5638571 C28.6362857,20.916 29.682,21.7658571 30.936,21.7658571 C31.7027143,21.7658571 32.4694286,21.5018571 33.0265714,21.0415714 L33.4872857,21.8224286 C32.7617143,22.3941429 31.8565714,22.7138571 30.9222857,22.7138571 C28.9992857,22.7138571 27.3681429,21.3338571 27.3681429,19.1875714 M32.9854286,18.7555714 C32.874,17.5015714 31.9122857,16.5955714 30.7272857,16.5955714 C29.5705714,16.5955714 28.623,17.4874286 28.4695714,18.7555714 L32.9854286,18.7555714" id="Fill-24" fill="#FFFFFF" mask="url(#mask-2)"></path>
                <path d="M35.1882857,19.1875714 C35.1882857,17.1947143 36.5121429,15.6475714 38.394,15.6475714 C39.4808571,15.6475714 40.4425714,16.0937143 40.9444286,16.9714286 L40.9444286,13.4035714 L42.0042857,13.4035714 L42.0042857,22.5745714 L40.9868571,22.5745714 L40.9868571,21.39 C40.4845714,22.2818571 39.495,22.7138571 38.394,22.7138571 C36.5121429,22.7138571 35.1882857,21.153 35.1882857,19.1875714 M40.9444286,19.1875714 C40.9444286,17.766 39.927,16.6795714 38.631,16.6795714 C37.2788571,16.6795714 36.2751429,17.7381429 36.2751429,19.1875714 C36.2751429,20.6228571 37.2788571,21.6827143 38.631,21.6827143 C39.927,21.6827143 40.9444286,20.61 40.9444286,19.1875714" id="Fill-25" fill="#FFFFFF" mask="url(#mask-2)"></path>
                <path d="M43.503,19.1875714 C43.503,17.2225714 44.9802857,15.6475714 46.9174286,15.6475714 C48.7294286,15.6475714 50.1651429,17.2084286 50.1651429,19.146 C50.1651429,19.3414286 50.1368571,19.5501429 50.1368571,19.5638571 L44.604,19.5638571 C44.7711429,20.916 45.8164286,21.7658571 47.0708571,21.7658571 C47.8375714,21.7658571 48.6042857,21.5018571 49.1618571,21.0415714 L49.6212857,21.8224286 C48.8965714,22.3941429 47.9901429,22.7138571 47.0571429,22.7138571 C45.1332857,22.7138571 43.503,21.3338571 43.503,19.1875714 M49.1194286,18.7555714 C49.008,17.5015714 48.0462857,16.5955714 46.8621429,16.5955714 C45.705,16.5955714 44.757,17.4874286 44.604,18.7555714 L49.1194286,18.7555714" id="Fill-26" fill="#FFFFFF" mask="url(#mask-2)"></path>
            </g>
            <path d="M130.067571,64.7785714 L131.127,64.7785714 L131.127,65.9357143 C131.601,65.1132857 132.478714,64.6384286 133.482429,64.6384286 C135.182571,64.6384286 135.934714,65.6704286 135.934714,67.4545714 L135.934714,71.5658571 L134.876143,71.5658571 L134.876143,67.5938571 C134.876143,66.339 134.415857,65.6704286 133.189714,65.6704286 C131.976857,65.6704286 131.127,66.618 131.127,67.7468571 L131.127,71.5658571 L130.067571,71.5658571 L130.067571,64.7785714" id="Fill-28" fill="#FFFFFF"></path>
            <path d="M21.3381429,38.5752857 C22.0667143,38.4792857 22.7112857,38.3142857 23.2722857,38.079 C24.168,37.6855714 24.8798571,37.0765714 25.4074286,36.252 C25.935,35.4274286 26.1985714,34.5 26.1985714,33.4701429 C26.1985714,31.2428571 24.9887143,29.7441429 22.569,28.974 C24.411,28.1198571 25.332,26.772 25.332,24.9295714 C25.332,24.3938571 25.2441429,23.8855714 25.068,23.4038571 C24.8922857,22.9225714 24.6368571,22.4828571 24.3021429,22.0851429 C23.967,21.6874286 23.5817143,21.3587143 23.1467143,21.0994286 C22.6358571,20.7895714 22.0581429,20.58 21.4135714,20.4711429 C20.7685714,20.3627143 20.007,20.3078571 19.1275714,20.3078571 L13.1622857,20.3078571 C12.3664286,20.3078571 11.7908571,20.4861429 11.4351429,20.8418571 C11.0794286,21.1975714 10.9015714,21.7817143 10.9015714,22.5938571 L10.9015714,36.4341429 C10.9015714,37.2295714 11.0751429,37.809 11.4227143,38.1732857 C11.7698571,38.5375714 12.3497143,38.7197143 13.1622857,38.7197143 L18.7885714,38.7197143 C19.7597143,38.7197143 20.6095714,38.6721429 21.3381429,38.5752857 L21.3381429,38.5752857 Z M21.4384286,31.1717143 C22.0915714,31.5904286 22.4181429,32.2641429 22.4181429,33.1937143 C22.4181429,35.0108571 21.1581429,35.919 18.6377143,35.919 L14.6314286,35.919 L14.6314286,30.5438571 L18.5121429,30.5438571 C19.8098571,30.5438571 20.7857143,30.753 21.4384286,31.1717143 L21.4384286,31.1717143 Z M17.6584286,23.1085714 C19.0148571,23.1085714 20.0237143,23.2615714 20.685,23.5671429 C21.3462857,23.8727143 21.6771429,24.4902857 21.6771429,25.4194286 C21.6771429,25.8548571 21.5725714,26.2482857 21.3634286,26.6001429 C21.0951429,27.0942857 20.7081429,27.429 20.2015714,27.6047143 C19.695,27.7808571 18.9771429,27.8687143 18.0475714,27.8687143 L14.6314286,27.8687143 L14.6314286,23.1085714 L17.6584286,23.1085714 Z M31.4185714,20.5778571 C31.155,20.1887143 30.7045714,19.9941429 30.0685714,19.9941429 C29.5491429,19.9941429 29.118,20.1698571 28.7751429,20.5217143 C28.4314286,20.8731429 28.26,21.2622857 28.26,21.6895714 C28.26,21.8571429 28.287,22.062 28.3418571,22.305 C28.3958571,22.548 28.4631429,22.7738571 28.5424286,22.983 C28.6221429,23.1925714 28.6997143,23.406 28.7751429,23.6237143 L33.1581429,35.5547143 C33.3171429,36.0154286 33.4761429,36.4508571 33.6355714,36.861 C33.7941429,37.2711429 33.9805714,37.6375714 34.1944286,37.9598571 C34.4078571,38.2821429 34.6881429,38.5418571 35.0357143,38.7385714 C35.3828571,38.9352857 35.808,39.0338571 36.3102857,39.0338571 C36.813,39.0338571 37.2377143,38.9331429 37.5852857,38.7321429 C37.9324286,38.5311429 38.211,38.274 38.4205714,37.9598571 C38.6297143,37.6457143 38.814,37.2818571 38.973,36.8678571 C39.132,36.453 39.291,36.0154286 39.4504286,35.5547143 L43.9088571,23.523 C43.9842857,23.3057143 44.0592857,23.094 44.1347143,22.8887143 C44.2101429,22.6838571 44.2731429,22.4742857 44.3232857,22.2608571 C44.3734286,22.0474286 44.3987143,21.8485714 44.3987143,21.6642857 C44.3987143,21.3964286 44.3211429,21.1307143 44.166,20.8667143 C44.0112857,20.6031429 43.7978571,20.3918571 43.5257143,20.2328571 C43.2535714,20.0738571 42.9582857,19.9941429 42.6402857,19.9941429 C42.2048571,19.9941429 41.8615714,20.0965714 41.6104286,20.3018571 C41.3592857,20.5071429 41.1792857,20.7372857 41.0704286,20.9922857 C40.9615714,21.2481429 40.7982857,21.702 40.5805714,22.3551429 L36.3985714,34.7888571 L32.2285714,22.443 C31.9525714,21.5888571 31.6825714,20.9674286 31.4185714,20.5778571 L31.4185714,20.5778571 Z M58.4948571,37.6208571 C58.6581429,37.9937143 58.8111429,38.2697143 58.9534286,38.4497143 C59.0957143,38.6297143 59.2714286,38.772 59.481,38.8765714 C59.6901429,38.9811429 59.9412857,39.0338571 60.2344286,39.0338571 C60.7367143,39.0338571 61.1657143,38.8555714 61.5218571,38.4998571 C61.8775714,38.1441429 62.0554286,37.7528571 62.0554286,37.3255714 C62.0554286,36.9154286 61.8672857,36.258 61.4905714,35.3537143 L56.6802857,23.4728571 C56.454,22.8784286 56.2675714,22.4035714 56.1214286,22.0474286 C55.9748571,21.6917143 55.7948571,21.3587143 55.5814286,21.0488571 C55.368,20.7394286 55.0872857,20.4861429 54.7397143,20.289 C54.3921429,20.0927143 53.9588571,19.9941429 53.4398571,19.9941429 C52.929,19.9941429 52.5,20.0927143 52.1528571,20.289 C51.8052857,20.4861429 51.5245714,20.7432857 51.3111429,21.0617143 C51.0977143,21.3797143 50.8967143,21.7795714 50.7085714,22.2608571 C50.52,22.7425714 50.3588571,23.1548571 50.2247143,23.4981429 L45.5151429,35.4544286 C45.3222857,35.9314286 45.1842857,36.3042857 45.1007143,36.5721429 C45.0171429,36.84 44.9751429,37.1001429 44.9751429,37.3508571 C44.9751429,37.7862857 45.1551429,38.1754286 45.5151429,38.5187143 C45.8751429,38.862 46.2895714,39.0338571 46.7584286,39.0338571 C47.3112857,39.0338571 47.7085714,38.8722857 47.9515714,38.55 C48.1945714,38.2281429 48.4872857,37.6062857 48.831,36.6852857 L49.71,34.3238571 L57.195,34.3238571 L58.0744286,36.6351429 C58.1914286,36.9201429 58.332,37.2484286 58.4948571,37.6208571 L58.4948571,37.6208571 Z M53.415,23.925 L56.1904286,31.5231429 L50.6897143,31.5231429 L53.415,23.925 L53.415,23.925 Z" id="Fill-29" fill="#006EB3"></path>
        </g>
    </g>
</svg>