<?xml version="1.0" encoding="UTF-8"?>
<svg width="46px" height="40px" viewBox="0 0 46 40" version="1.1" xmlns="http://www.w3.org/2000/svg" xmlns:xlink="http://www.w3.org/1999/xlink">
    <!-- Generator: Sketch 64 (93537) - https://sketch.com -->
    <title>07 Misc/Images/Payment/iDEAL</title>
    <desc>Created with Sketch.</desc>
    <g id="07-Misc/Images/Payment/iDEAL" stroke="none" stroke-width="1" fill="none" fill-rule="evenodd">
        <g id="iDEAL" transform="translate(0.000000, -0.000000)" fill-rule="nonzero">
            <path d="M-2.51422814e-13,-1.82190445e-14 L-2.51422814e-13,39.1414781 L22.8199095,39.1414781 C37.8733032,39.1414781 44.4012066,30.7113122 44.4012066,19.5324284 C44.4012066,8.39698341 37.8733032,-1.82190445e-14 22.8199095,-1.82190445e-14 L-2.51422814e-13,-1.82190445e-14 Z" id="Path" fill="#FFFFFF"></path>
            <path d="M2.46636501,2.46877828 L22.8229261,2.46877828 C36.6395173,2.46877828 41.9354449,10.0138763 41.9354449,19.531825 C41.9354449,30.9447964 34.5399698,36.6714932 22.8229261,36.6714932 L2.46636501,36.6714932 L2.46636501,2.46877828 Z M4.439819,4.44223228 L4.439819,34.6992459 L22.8229261,34.6992459 C33.9215686,34.6992459 39.960181,29.5276018 39.960181,19.531825 C39.960181,9.25912519 33.414178,4.44162896 22.8229261,4.44162896 L4.439819,4.44162896 L4.439819,4.44223228 Z" id="Shape" fill="#000000"></path>
            <polygon id="Path" fill="#000000" points="6.90618401 21.7568627 12.7909502 21.7568627 12.7909502 32.2304676 6.90618401 32.2304676"></polygon>
            <circle id="Oval" fill="#000000" cx="9.8479638" cy="16.479638" r="3.65731523"></circle>
            <path d="M25.131825,18.1906486 L25.131825,19.8865762 L20.9387632,19.8865762 L20.9387632,13.0811463 L24.9978884,13.0811463 L24.9978884,14.7764706 L22.6340875,14.7764706 L22.6340875,15.5644042 L24.8693816,15.5644042 L24.8693816,17.2603318 L22.6340875,17.2603318 L22.6340875,18.1912519 L25.131825,18.1906486 Z M25.86546,19.8877828 L27.9173454,13.078733 L30.3294118,13.078733 L32.3806938,19.8877828 L30.6159879,19.8877828 L30.2310709,18.5707391 L28.013273,18.5707391 L27.6277526,19.8877828 L25.86546,19.8877828 L25.86546,19.8877828 Z M28.5104072,16.8766214 L29.7375566,16.8766214 L29.1746606,14.9532428 L29.0720965,14.9532428 L28.5104072,16.8766214 Z M33.2331825,13.0793363 L34.9297134,13.0793363 L34.9297134,18.1912519 L37.440724,18.1912519 C36.7517345,8.9158371 29.4564103,6.91161388 22.8235294,6.91161388 L15.7544495,6.91161388 L15.7544495,13.0829563 L16.8006033,13.0829563 C18.7082956,13.0829563 19.8926094,14.3764706 19.8926094,16.4579186 C19.8926094,18.6057315 18.7366516,19.8877828 16.8006033,19.8877828 L15.7544495,19.8877828 L15.7544495,32.2352941 L22.8241327,32.2352941 C33.6030166,32.2352941 37.3568627,27.2289593 37.4895928,19.8865762 L33.2331825,19.8865762 L33.2331825,13.0793363 L33.2331825,13.0793363 Z M15.7532428,14.7782805 L15.7532428,18.1912519 L16.8006033,18.1912519 C17.5263952,18.1912519 18.1972851,17.9812971 18.1972851,16.4573152 C18.1972851,14.9689291 17.4509804,14.7782805 16.8006033,14.7782805 L15.7532428,14.7782805 L15.7532428,14.7782805 Z" id="Shape" fill="#D50072"></path>
        </g>
    </g>
</svg>