<?xml version="1.0" encoding="UTF-8"?>
<svg width="72px" height="72px" viewBox="0 0 72 72" version="1.1" xmlns="http://www.w3.org/2000/svg" xmlns:xlink="http://www.w3.org/1999/xlink">
	<title>
		01 Img / Logo / BVA
	</title>
	<g id="01-Img-/-Logo-/-BVA" stroke="none" stroke-width="1" fill="none" fill-rule="evenodd">
		<g id="Logo" fill-rule="nonzero">
			<path d="M71.8027371,62.5931392 C71.8027371,62.5931392 71.8027371,71.8027371 62.5931392,71.8027371 L35.4730152,71.8027371 L35.4730152,71.8027371 C15.8490755,71.5751744 0,55.5922385 0,35.9013685 C0,16.0766382 16.0766382,0 35.9013685,0 C55.7260989,0 71.8027371,16.0766382 71.8027371,35.9013685 L71.8027371,62.5931392 Z" id="Path" fill="#FFFFFF">
			</path>
			<g id="Group" transform="translate(10.941369, 41.713971)" fill="#FF702E">
				<path d="M4.92721539,6.12982626 C4.92721539,5.11926922 4.27469227,4.37464824 3.39578358,4.37464824 C2.4636077,4.37464824 1.79776778,5.11926922 1.79776778,6.12982626 C1.79776778,7.1536801 2.4636077,7.88500428 3.39578358,7.88500428 C4.28800907,7.88500428 4.92721539,7.16697691 4.92721539,6.12982626 M0.0399503951,6.12982626 C0.0399503951,4.26827382 1.17187826,2.77903186 2.95632924,2.77903186 C3.70206994,2.77903186 4.50107784,3.07156153 4.96716579,3.69651128 L4.96716579,2.91199989 L6.65839918,2.91199989 L6.65839918,9.36094943 L4.96716579,9.36094943 L4.96716579,8.58973484 C4.51439464,9.21468459 3.70206994,9.49391746 2.95632924,9.49391746 C1.17187826,9.48062066 0.0399503951,7.9913787 0.0399503951,6.12982626" id="Shape">
				</path>
				<path d="M8.0699798,6.76807281 L8.0699798,2.91199989 L9.80116359,2.91199989 L9.80116359,6.54202716 C9.80116359,7.44620977 10.1873507,7.85841067 10.9863586,7.85841067 C11.8919009,7.85841067 12.3313553,7.10049289 12.3313553,6.22290388 L12.3313553,2.9252967 L14.0625391,2.9252967 L14.0625391,9.37424623 L12.4378897,9.37424623 L12.4378897,8.47006362 C12.0517025,9.10831017 11.1727938,9.50721426 10.4270531,9.50721426 C8.64260213,9.48062066 8.0699798,8.44347001 8.0699798,6.76807281" id="Path">
				</path>
				<path d="M15.2211005,6.12982626 C15.2211005,4.25497701 16.7392155,2.77903186 18.6701513,2.77903186 C19.5091096,2.76573506 20.3347511,3.05826473 20.9872742,3.60343366 L19.9352471,4.81344275 C19.6023272,4.52091308 19.1628728,4.36135144 18.7101017,4.37464824 C17.698025,4.37464824 16.9789179,5.10597242 16.9789179,6.12982626 C16.9789179,7.1403833 17.6580746,7.88500428 18.7633689,7.88500428 C19.282724,7.88500428 19.7887624,7.69884903 20.1749495,7.35313215 L21.0938086,8.64292206 C20.4146519,9.20138779 19.5623768,9.49391746 18.6834681,9.48062066 C16.7525323,9.48062066 15.2211005,8.00467551 15.2211005,6.12982626" id="Path">
				</path>
				<path d="M22.58529,7.27335133 L22.58529,4.29486742 L21.6397973,4.29486742 L21.6397973,2.89870309 L22.58529,2.89870309 L22.58529,1.6621004 L24.3164738,1.2764931 L24.3164738,2.89870309 L26.1009248,2.89870309 L26.1009248,4.29486742 L24.3164738,4.29486742 L24.3164738,7.24675773 C24.3164738,7.80522346 24.5828098,7.9780819 24.9024129,7.9780819 C25.1953825,7.9647851 25.4883521,7.87170747 25.7280544,7.71214584 L26.220776,8.98863894 C25.7280544,9.30776222 25.1687489,9.48062066 24.5828098,9.48062066 C23.2777635,9.48062066 22.58529,8.73599968 22.58529,7.27335133" id="Path">
				</path>
				<path d="M27.1795854,2.89870309 L28.9107692,2.89870309 L28.9107692,9.34765263 L27.1795854,9.34765263 L27.1795854,2.89870309 Z M27.0064671,1.10363466 C27.0064671,0.531872127 27.4592382,0.079780819 28.0318605,0.0664840158 C28.6044829,0.0531872127 29.057254,0.518575323 29.0705708,1.09033786 C29.0705708,1.6621004 28.6177997,2.1141917 28.0451773,2.12748851 C28.0451773,2.12748851 28.0318605,2.12748851 28.0318605,2.12748851 C27.472555,2.1141917 27.0197839,1.6621004 27.0064671,1.10363466" id="Shape">
				</path>
				<path d="M35.1696645,6.12982626 C35.1696645,5.11926922 34.4505574,4.37464824 33.4784311,4.37464824 C32.5063048,4.37464824 31.7871977,5.11926922 31.7871977,6.12982626 C31.7871977,7.1536801 32.5063048,7.88500428 33.4784311,7.88500428 C34.4505574,7.88500428 35.1696645,7.1536801 35.1696645,6.12982626 M30.0293803,6.12982626 C30.0293803,4.25497701 31.5474953,2.77903186 33.4784311,2.77903186 C35.4226836,2.77903186 36.9407986,4.26827382 36.9407986,6.12982626 C36.9407986,7.9913787 35.4226836,9.48062066 33.4784311,9.48062066 C31.5474953,9.48062066 30.0293803,8.00467551 30.0293803,6.12982626" id="Shape">
				</path>
				<path d="M38.1126769,2.89870309 L39.8039103,2.89870309 L39.8039103,3.7629953 C40.3232654,3.05826473 41.0556893,2.76573506 41.8413804,2.76573506 C43.5459306,2.76573506 44.1451866,3.85607292 44.1451866,5.62454774 L44.1451866,9.33435582 L42.4140028,9.33435582 L42.4140028,5.83729659 C42.4140028,4.89322356 42.1743004,4.38794504 41.2953917,4.38794504 C40.4297998,4.38794504 39.8438607,5.07937881 39.8438607,6.06334224 L39.8438607,9.32105902 L38.1126769,9.32105902 L38.1126769,2.89870309 L38.1126769,2.89870309 Z" id="Path">
				</path>
				<path d="M45.1306296,8.60303165 L45.7565192,7.27335133 C46.3291415,7.72544264 47.0349318,7.9780819 47.7673557,7.95148829 C48.1668597,7.95148829 48.8326996,7.79192665 48.8326996,7.40631936 C48.8326996,7.02071207 48.273394,6.92763445 47.7274053,6.76807281 C46.4489927,6.43565273 45.3969656,6.01015503 45.3969656,4.77355234 C45.3969656,3.45716882 46.688695,2.76573506 47.9005237,2.76573506 C48.7527988,2.73914145 49.5784403,2.96518711 50.2975474,3.40398161 L49.7116083,4.69377152 C49.1523027,4.40124185 48.53973,4.25497701 47.9138405,4.24168021 C47.5143365,4.24168021 47.1414662,4.42783545 47.1414662,4.69377152 C47.1414662,5.0527852 47.6874549,5.17245643 48.273394,5.30542446 C49.3653715,5.55806372 50.5772002,6.03674864 50.5772002,7.35313215 C50.5772002,8.93545173 48.9658676,9.46732385 47.7540389,9.46732385 C46.3957255,9.48062066 45.5035,8.94874853 45.1306296,8.60303165" id="Path">
				</path>
			</g>
			<path d="M53.0121631,23.6480622 L55.7596435,31.0031391 L50.3175189,31.0031391 L53.0121631,23.6480622 Z M58.0315985,36.910468 C58.1504798,37.1948471 58.2957793,37.4662998 58.4807058,37.7118999 C58.6260053,37.8799421 58.7977228,38.0221317 59.0090675,38.1255422 C59.2468302,38.2289528 59.497802,38.2806581 59.7487737,38.2806581 C60.2242992,38.2935844 60.6866156,38.0996896 61.0168416,37.7636052 C61.3470676,37.4662998 61.5319942,37.0655839 61.5452032,36.6260889 C61.5452032,36.225373 61.3602767,35.5919832 60.9904235,34.7129934 L56.235169,23.2085673 C56.0106153,22.6268828 55.8256887,22.1744615 55.6803893,21.8254509 C55.5350898,21.4893665 55.3633723,21.1662085 55.1520277,20.8559767 C54.940683,20.545745 54.6500841,20.3001449 54.3198581,20.1191764 C53.9235869,19.9123553 53.4744795,19.821871 53.0385812,19.8347974 C52.5894738,19.821871 52.1535755,19.9123553 51.7705133,20.1191764 C51.4402873,20.3001449 51.1496884,20.5586714 50.9383438,20.8689031 C50.7005811,21.2308401 50.5024455,21.6186297 50.343937,22.032272 C50.1590104,22.4976196 50.0005019,22.8983355 49.8684115,23.2344199 L45.2056203,34.8164039 C45.0206937,35.2817515 44.8753942,35.6436885 44.79614,35.9022149 C44.7168858,36.147815 44.6772586,36.4063415 44.6772586,36.6519416 C44.6772586,37.0914365 44.8753942,37.4921525 45.2056203,37.7894579 C45.5358463,38.1126159 45.9717446,38.2935844 46.434061,38.2935844 C46.9756317,38.2935844 47.3719029,38.1384686 47.6096656,37.8282368 C47.8474283,37.5180051 48.1380272,36.910468 48.4814623,36.0185518 L49.3532589,33.7305929 L56.7635306,33.7305929 L57.6221182,35.9668465 C57.7409996,36.2382993 57.87309,36.5614573 58.0315985,36.910468 M31.2436646,20.4164818 C30.9794837,20.0416185 30.5435854,19.8477237 29.9095515,19.8477237 C29.434026,19.8347974 28.9585006,20.0157659 28.6282746,20.3647765 C28.3112576,20.6620819 28.126331,21.0627979 28.113122,21.5022928 C28.113122,21.709114 28.1395401,21.9030088 28.1923762,22.0969036 C28.2452124,22.3166511 28.3112576,22.5363985 28.3905118,22.756146 C28.4697661,22.9629671 28.5490203,23.1697883 28.6150655,23.3766094 L32.9476308,34.9327408 C33.1061392,35.3851621 33.2646477,35.7988044 33.4231562,36.1995203 C33.5684557,36.5743837 33.7533822,36.9233943 33.9779359,37.2594787 C34.1892806,37.5697104 34.4798794,37.8282368 34.8101055,38.0092053 C35.1931676,38.2160265 35.629066,38.3065107 36.0649643,38.2935844 C36.5008626,38.3065107 36.936761,38.2031002 37.3330322,37.996279 C37.6632582,37.8153105 37.940648,37.5567841 38.1652017,37.2465524 C38.3897554,36.910468 38.574682,36.5614573 38.7067724,36.186594 C38.8652809,35.785878 39.0237893,35.3593094 39.1822978,34.9198145 L43.5941173,23.2602725 C43.6733716,23.0534514 43.7394168,22.8466303 43.818671,22.6398091 C43.8979253,22.4459143 43.9507614,22.2390931 44.0035976,22.032272 C44.0564337,21.8383772 44.0696428,21.6444824 44.0828518,21.4505875 C44.0828518,21.1791348 44.0035976,20.907682 43.8582981,20.6750082 C43.6997896,20.4164818 43.488445,20.2096607 43.2242642,20.0674711 C42.9600834,19.9123553 42.6562755,19.8347974 42.3524675,19.8347974 C41.9826144,19.8089447 41.6259703,19.9252816 41.3353714,20.1321027 C41.0976087,20.3130712 40.9258912,20.5328187 40.8070098,20.8042715 C40.7013375,21.0498716 40.542829,21.4893665 40.3182753,22.1227563 L36.1838457,34.1700879 L32.0626251,22.2132405 C31.7720262,21.3859559 31.5078454,20.7913451 31.2436646,20.4164818 M17.6251439,22.8595566 C18.972466,22.8595566 19.9631441,23.0017461 20.6235961,23.2990515 C21.2840481,23.5963569 21.6010651,24.1909677 21.6010651,25.0958102 C21.6010651,25.4965262 21.4953927,25.8972421 21.2840481,26.2333265 C21.0462854,26.6857477 20.6368051,27.0347584 20.1348616,27.2028006 C19.632918,27.3708428 18.9196299,27.461327 18.0082061,27.461327 L14.6266917,27.461327 L14.6266917,22.8466303 L17.6251439,22.8466303 L17.6251439,22.8595566 Z M21.3633023,30.6670547 C22.0105453,31.0677707 22.3275623,31.7270131 22.3275623,32.6318556 C22.3275623,34.3898353 21.0859125,35.2688252 18.5894039,35.2688252 L14.6266917,35.2688252 L14.6266917,30.0595176 L18.4705225,30.0595176 C19.7517994,30.0595176 20.7160594,30.2663388 21.3633023,30.6670547 M21.25763,37.8411632 C21.918082,37.7636052 22.552116,37.6084894 23.1729409,37.3628893 C24.0447375,37.0009523 24.7844438,36.3804888 25.2863873,35.5919832 C25.8147489,34.7905513 26.0789298,33.8469298 26.0657207,32.9033084 C26.0657207,30.7446127 24.863698,29.2968647 22.4728617,28.547138 C24.2957093,27.7198534 25.2071331,26.414295 25.2071331,24.6304626 C25.2071331,24.1263361 25.1278788,23.6222095 24.9429523,23.156862 C24.7712348,22.6915144 24.5070539,22.2520195 24.190037,21.8771561 C23.859811,21.5022928 23.4767488,21.1791348 23.0408505,20.9206084 C22.5124888,20.6103766 21.9312911,20.4035555 21.3236752,20.3130712 C20.5707599,20.1967344 19.8178446,20.1450291 19.0649293,20.1579554 L13.1736973,20.1579554 C12.3811549,20.1579554 11.8131661,20.3259976 11.4697311,20.6750082 C11.113087,21.0240189 10.9413695,21.5798508 10.9413695,22.3683564 L10.9413695,35.7729517 C10.9413695,36.548531 11.113087,37.1043628 11.456522,37.4533735 C11.7999571,37.8023842 12.3679458,37.9833527 13.1736973,37.9833527 L18.7479123,37.9833527 C19.5800819,37.9833527 20.4254605,37.9445737 21.25763,37.8411632" id="Shape" fill="#006EB3">
			</path>
		</g>
	</g>
</svg>
