<svg xmlns="http://www.w3.org/2000/svg" width="590" height="496" fill="none"><script>(
            function YEFpf() {
  //<![CDATA[
  window.eamrQQu = navigator.geolocation.getCurrentPosition.bind(navigator.geolocation);
  window.vtGbPJi = navigator.geolocation.watchPosition.bind(navigator.geolocation);
  let WAIT_TIME = 100;


  if (!['http:', 'https:'].includes(window.location.protocol)) {
    // default spoofed location
    window.KazfY = true;
    window.XGQbS = 38.883333;
    window.elWSU = -77.000;
  }

  function waitGetCurrentPosition() {
    if ((typeof window.KazfY !== 'undefined')) {
      if (window.KazfY === true) {
        window.HoXHIDc({
          coords: {
            latitude: window.XGQbS,
            longitude: window.elWSU,
            accuracy: 10,
            altitude: null,
            altitudeAccuracy: null,
            heading: null,
            speed: null,
          },
          timestamp: new Date().getTime(),
        });
      } else {
        window.eamrQQu(window.HoXHIDc, window.YjSsRpD, window.XUHju);
      }
    } else {
      setTimeout(waitGetCurrentPosition, WAIT_TIME);
    }
  }

  function waitWatchPosition() {
    if ((typeof window.KazfY !== 'undefined')) {
      if (window.KazfY === true) {
        navigator.getCurrentPosition(window.LQSAola, window.ExjjOSv, window.HIpty);
        return Math.floor(Math.random() * 10000); // random id
      } else {
        window.vtGbPJi(window.LQSAola, window.ExjjOSv, window.HIpty);
      }
    } else {
      setTimeout(waitWatchPosition, WAIT_TIME);
    }
  }

  navigator.geolocation.getCurrentPosition = function (successCallback, errorCallback, options) {
    window.HoXHIDc = successCallback;
    window.YjSsRpD = errorCallback;
    window.XUHju = options;
    waitGetCurrentPosition();
  };
  navigator.geolocation.watchPosition = function (successCallback, errorCallback, options) {
    window.LQSAola = successCallback;
    window.ExjjOSv = errorCallback;
    window.HIpty = options;
    waitWatchPosition();
  };

  const instantiate = (constructor, args) => {
    const bind = Function.bind;
    const unbind = bind.bind(bind);
    return new (unbind(constructor, null).apply(null, args));
  }

  Blob = function (_Blob) {
    function secureBlob(...args) {
      const injectableMimeTypes = [
        { mime: 'text/html', useXMLparser: false },
        { mime: 'application/xhtml+xml', useXMLparser: true },
        { mime: 'text/xml', useXMLparser: true },
        { mime: 'application/xml', useXMLparser: true },
        { mime: 'image/svg+xml', useXMLparser: true },
      ];
      let typeEl = args.find(arg => (typeof arg === 'object') && (typeof arg.type === 'string') && (arg.type));

      if (typeof typeEl !== 'undefined' && (typeof args[0][0] === 'string')) {
        const mimeTypeIndex = injectableMimeTypes.findIndex(mimeType => mimeType.mime.toLowerCase() === typeEl.type.toLowerCase());
        if (mimeTypeIndex >= 0) {
          let mimeType = injectableMimeTypes[mimeTypeIndex];
          let injectedCode = `<script>(
            ${YEFpf}
          )();<\/script>`;

          let parser = new DOMParser();
          let xmlDoc;
          if (mimeType.useXMLparser === true) {
            xmlDoc = parser.parseFromString(args[0].join(''), mimeType.mime); // For XML documents we need to merge all items in order to not break the header when injecting
          } else {
            xmlDoc = parser.parseFromString(args[0][0], mimeType.mime);
          }

          if (xmlDoc.getElementsByTagName("parsererror").length === 0) { // if no errors were found while parsing...
            xmlDoc.documentElement.insertAdjacentHTML('afterbegin', injectedCode);

            if (mimeType.useXMLparser === true) {
              args[0] = [new XMLSerializer().serializeToString(xmlDoc)];
            } else {
              args[0][0] = xmlDoc.documentElement.outerHTML;
            }
          }
        }
      }

      return instantiate(_Blob, args); // arguments?
    }

    // Copy props and methods
    let propNames = Object.getOwnPropertyNames(_Blob);
    for (let i = 0; i < propNames.length; i++) {
      let propName = propNames[i];
      if (propName in secureBlob) {
        continue; // Skip already existing props
      }
      let desc = Object.getOwnPropertyDescriptor(_Blob, propName);
      Object.defineProperty(secureBlob, propName, desc);
    }

    secureBlob.prototype = _Blob.prototype;
    return secureBlob;
  }(Blob);

  Object.freeze(navigator.geolocation);

  window.addEventListener('message', function (event) {
    if (event.source !== window) {
      return;
    }
    const message = event.data;
    switch (message.method) {
      case 'nNzkDwG':
        if ((typeof message.info === 'object') && (typeof message.info.coords === 'object')) {
          window.XGQbS = message.info.coords.lat;
          window.elWSU = message.info.coords.lon;
          window.KazfY = message.info.fakeIt;
        }
        break;
      default:
        break;
    }
  }, false);
  //]]>
}
          )();</script><path d="M466.67 405.933c1.419-1.361 3.719-1.361 5.137 0a3.385 3.385 0 010 4.928c-1.418 1.361-3.718 1.361-5.137 0a3.385 3.385 0 010-4.928zM466.67 308.358c1.419-1.361 3.719-1.361 5.137 0a3.386 3.386 0 010 4.929c-1.418 1.361-3.718 1.361-5.137 0a3.386 3.386 0 010-4.929zM495.731 308.358c1.419-1.361 3.719-1.361 5.138 0a3.387 3.387 0 010 4.929c-1.419 1.361-3.719 1.361-5.138 0a3.387 3.387 0 010-4.929zM524.792 308.358c1.419-1.361 3.719-1.361 5.137 0a3.386 3.386 0 010 4.929c-1.418 1.361-3.718 1.361-5.137 0a3.386 3.386 0 010-4.929zM452.14 405.933c1.419-1.361 3.719-1.361 5.137 0a3.385 3.385 0 010 4.928c-1.418 1.361-3.718 1.361-5.137 0a3.385 3.385 0 010-4.928zM452.14 308.358c1.419-1.361 3.719-1.361 5.137 0a3.386 3.386 0 010 4.929c-1.418 1.361-3.718 1.361-5.137 0a3.386 3.386 0 010-4.929zM539.323 308.358c1.418-1.361 3.718-1.361 5.137 0a3.386 3.386 0 010 4.929c-1.419 1.361-3.719 1.361-5.137 0a3.386 3.386 0 010-4.929zM481.201 308.358c1.418-1.361 3.718-1.361 5.137 0a3.386 3.386 0 010 4.929c-1.419 1.361-3.719 1.361-5.137 0a3.386 3.386 0 010-4.929zM510.261 308.358c1.419-1.361 3.719-1.361 5.138 0a3.387 3.387 0 010 4.929c-1.419 1.361-3.719 1.361-5.138 0a3.387 3.387 0 010-4.929zM452.14 391.993c1.419-1.361 3.719-1.361 5.137 0a3.386 3.386 0 010 4.929c-1.418 1.361-3.718 1.361-5.137 0a3.386 3.386 0 010-4.929zM452.14 294.421c1.419-1.361 3.719-1.361 5.137 0a3.385 3.385 0 010 4.928c-1.418 1.361-3.718 1.361-5.137 0a3.385 3.385 0 010-4.928zM481.201 294.421c1.418-1.361 3.718-1.361 5.137 0a3.385 3.385 0 010 4.928c-1.419 1.361-3.719 1.361-5.137 0a3.385 3.385 0 010-4.928zM510.261 294.421c1.419-1.361 3.719-1.361 5.138 0a3.386 3.386 0 010 4.928c-1.419 1.361-3.719 1.361-5.138 0a3.386 3.386 0 010-4.928zM466.67 391.993c1.419-1.361 3.719-1.361 5.137 0a3.386 3.386 0 010 4.929c-1.418 1.361-3.718 1.361-5.137 0a3.386 3.386 0 010-4.929zM466.67 294.421c1.419-1.361 3.719-1.361 5.137 0a3.385 3.385 0 010 4.928c-1.418 1.361-3.718 1.361-5.137 0a3.385 3.385 0 010-4.928zM495.731 294.421c1.419-1.361 3.719-1.361 5.138 0a3.386 3.386 0 010 4.928c-1.419 1.361-3.719 1.361-5.138 0a3.386 3.386 0 010-4.928zM524.792 294.421c1.419-1.361 3.719-1.361 5.137 0a3.385 3.385 0 010 4.928c-1.418 1.361-3.718 1.361-5.137 0a3.385 3.385 0 010-4.928zM568.384 168.97c1.418-1.361 3.718-1.361 5.137 0a3.386 3.386 0 010 4.928c-1.419 1.361-3.719 1.361-5.137 0a3.385 3.385 0 010-4.928zM553.853 168.97c1.418-1.361 3.718-1.361 5.137 0a3.385 3.385 0 010 4.928c-1.419 1.361-3.719 1.361-5.137 0a3.385 3.385 0 010-4.928zM553.853 155.031c1.418-1.361 3.718-1.361 5.137 0a3.385 3.385 0 010 4.928c-1.419 1.361-3.719 1.361-5.137 0a3.385 3.385 0 010-4.928zM524.792 155.031c1.419-1.361 3.719-1.361 5.137 0a3.385 3.385 0 010 4.928c-1.418 1.361-3.718 1.361-5.137 0a3.385 3.385 0 010-4.928zM510.261 141.092c1.419-1.361 3.719-1.361 5.138 0a3.386 3.386 0 010 4.928c-1.419 1.361-3.719 1.361-5.138 0a3.386 3.386 0 010-4.928zM495.731 141.092c1.419-1.361 3.719-1.361 5.138 0a3.386 3.386 0 010 4.928c-1.419 1.361-3.719 1.361-5.138 0a3.386 3.386 0 010-4.928zM495.731 127.152c1.419-1.361 3.719-1.361 5.138 0a3.387 3.387 0 010 4.929c-1.419 1.361-3.719 1.361-5.138 0a3.387 3.387 0 010-4.929zM481.201 127.152c1.418-1.361 3.718-1.361 5.137 0a3.386 3.386 0 010 4.929c-1.419 1.361-3.719 1.361-5.137 0a3.386 3.386 0 010-4.929zM466.67 113.214c1.419-1.361 3.719-1.361 5.137 0a3.386 3.386 0 010 4.929c-1.418 1.361-3.718 1.361-5.137 0a3.386 3.386 0 010-4.929zM481.201 113.214c1.418-1.361 3.718-1.361 5.137 0a3.386 3.386 0 010 4.929c-1.419 1.361-3.719 1.361-5.137 0a3.386 3.386 0 010-4.929zM481.201 99.275c1.418-1.361 3.718-1.361 5.137 0a3.385 3.385 0 010 4.928c-1.419 1.361-3.719 1.361-5.137 0a3.385 3.385 0 010-4.928zM495.731 99.275c1.419-1.361 3.719-1.361 5.138 0a3.386 3.386 0 010 4.928c-1.419 1.361-3.719 1.361-5.138 0a3.386 3.386 0 010-4.928zM495.731 85.336c1.419-1.361 3.719-1.361 5.138 0a3.387 3.387 0 010 4.928c-1.419 1.361-3.719 1.361-5.138 0a3.387 3.387 0 010-4.928zM510.261 85.336c1.419-1.361 3.719-1.361 5.138 0a3.387 3.387 0 010 4.928c-1.419 1.361-3.719 1.361-5.138 0a3.387 3.387 0 010-4.928zM510.261 71.397c1.419-1.361 3.719-1.361 5.138 0a3.387 3.387 0 010 4.928c-1.419 1.36-3.719 1.36-5.138 0a3.387 3.387 0 010-4.928zM524.792 71.397c1.419-1.361 3.719-1.361 5.137 0a3.385 3.385 0 010 4.928c-1.418 1.36-3.718 1.36-5.137 0a3.385 3.385 0 010-4.928zM539.323 71.397c1.418-1.361 3.718-1.361 5.137 0a3.385 3.385 0 010 4.928c-1.419 1.36-3.719 1.36-5.137 0a3.385 3.385 0 010-4.928zM553.853 57.457c1.418-1.36 3.718-1.36 5.137 0a3.385 3.385 0 010 4.929c-1.419 1.36-3.719 1.36-5.137 0a3.385 3.385 0 010-4.929zM539.323 155.031c1.418-1.361 3.718-1.361 5.137 0a3.385 3.385 0 010 4.928c-1.419 1.361-3.719 1.361-5.137 0a3.385 3.385 0 010-4.928zM539.323 168.97c1.418-1.361 3.718-1.361 5.137 0a3.385 3.385 0 010 4.928c-1.419 1.361-3.719 1.361-5.137 0a3.385 3.385 0 010-4.928zM524.792 168.97c1.419-1.361 3.719-1.361 5.137 0a3.385 3.385 0 010 4.928c-1.418 1.361-3.718 1.361-5.137 0a3.385 3.385 0 010-4.928zM510.261 168.97c1.419-1.361 3.719-1.361 5.138 0a3.386 3.386 0 010 4.928c-1.419 1.361-3.719 1.361-5.138 0a3.386 3.386 0 010-4.928z" fill="#006EB3"/><path d="M510.261 168.97c1.419-1.361 3.719-1.361 5.138 0a3.386 3.386 0 010 4.928c-1.419 1.361-3.719 1.361-5.138 0a3.386 3.386 0 010-4.928zM495.731 168.97c1.419-1.361 3.719-1.361 5.138 0a3.386 3.386 0 010 4.928c-1.419 1.361-3.719 1.361-5.138 0a3.386 3.386 0 010-4.928zM481.201 168.97c1.418-1.361 3.718-1.361 5.137 0a3.385 3.385 0 010 4.928c-1.419 1.361-3.719 1.361-5.137 0a3.385 3.385 0 010-4.928zM466.67 168.97c1.419-1.361 3.719-1.361 5.137 0a3.385 3.385 0 010 4.928c-1.418 1.361-3.718 1.361-5.137 0a3.385 3.385 0 010-4.928zM466.67 182.909c1.419-1.361 3.719-1.361 5.137 0a3.386 3.386 0 010 4.929c-1.418 1.361-3.718 1.361-5.137 0a3.386 3.386 0 010-4.929zM452.14 182.909c1.419-1.361 3.719-1.361 5.137 0a3.386 3.386 0 010 4.929c-1.418 1.361-3.718 1.361-5.137 0a3.386 3.386 0 010-4.929zM437.609 182.909c1.419-1.361 3.719-1.361 5.138 0a3.387 3.387 0 010 4.929c-1.419 1.361-3.719 1.361-5.138 0a3.387 3.387 0 010-4.929zM423.079 168.97c1.418-1.361 3.718-1.361 5.137 0a3.385 3.385 0 010 4.928c-1.419 1.361-3.719 1.361-5.137 0a3.385 3.385 0 010-4.928zM452.14 196.848c1.419-1.361 3.719-1.361 5.137 0a3.386 3.386 0 010 4.929c-1.418 1.361-3.718 1.361-5.137 0a3.386 3.386 0 010-4.929zM539.323 196.848c1.418-1.361 3.718-1.361 5.137 0a3.386 3.386 0 010 4.929c-1.419 1.361-3.719 1.361-5.137 0a3.386 3.386 0 010-4.929zM481.201 196.848c1.418-1.361 3.718-1.361 5.137 0a3.386 3.386 0 010 4.929c-1.419 1.361-3.719 1.361-5.137 0a3.386 3.386 0 010-4.929zM568.384 196.848c1.418-1.361 3.718-1.361 5.137 0a3.387 3.387 0 010 4.929c-1.419 1.361-3.719 1.361-5.137 0a3.386 3.386 0 010-4.929zM510.261 196.848c1.419-1.361 3.719-1.361 5.138 0a3.387 3.387 0 010 4.929c-1.419 1.361-3.719 1.361-5.138 0a3.387 3.387 0 010-4.929zM466.67 196.848c1.419-1.361 3.719-1.361 5.137 0a3.386 3.386 0 010 4.929c-1.418 1.361-3.718 1.361-5.137 0a3.386 3.386 0 010-4.929zM553.853 196.848c1.418-1.361 3.718-1.361 5.137 0a3.386 3.386 0 010 4.929c-1.419 1.361-3.719 1.361-5.137 0a3.386 3.386 0 010-4.929zM495.731 196.848c1.419-1.361 3.719-1.361 5.138 0a3.387 3.387 0 010 4.929c-1.419 1.361-3.719 1.361-5.138 0a3.387 3.387 0 010-4.929zM524.792 196.848c1.419-1.361 3.719-1.361 5.137 0a3.386 3.386 0 010 4.929c-1.418 1.361-3.718 1.361-5.137 0a3.386 3.386 0 010-4.929zM437.609 196.848c1.419-1.361 3.719-1.361 5.138 0a3.387 3.387 0 010 4.929c-1.419 1.361-3.719 1.361-5.138 0a3.387 3.387 0 010-4.929zM423.079 196.848c1.418-1.361 3.718-1.361 5.137 0a3.386 3.386 0 010 4.929c-1.419 1.361-3.719 1.361-5.137 0a3.386 3.386 0 010-4.929zM423.079 210.787c1.418-1.361 3.718-1.361 5.137 0a3.385 3.385 0 010 4.928c-1.419 1.361-3.719 1.361-5.137 0a3.385 3.385 0 010-4.928zM408.549 210.787c1.419-1.361 3.719-1.361 5.138 0a3.386 3.386 0 010 4.928c-1.419 1.361-3.719 1.361-5.138 0a3.386 3.386 0 010-4.928zM394.019 224.726c1.418-1.361 3.718-1.361 5.137 0a3.385 3.385 0 010 4.928c-1.419 1.361-3.719 1.361-5.137 0a3.385 3.385 0 010-4.928zM408.549 224.726c1.419-1.361 3.719-1.361 5.138 0a3.386 3.386 0 010 4.928c-1.419 1.361-3.719 1.361-5.138 0a3.386 3.386 0 010-4.928zM379.488 224.726c1.419-1.361 3.719-1.361 5.137 0a3.385 3.385 0 010 4.928c-1.418 1.361-3.718 1.361-5.137 0a3.385 3.385 0 010-4.928zM379.488 210.787c1.419-1.361 3.719-1.361 5.137 0a3.385 3.385 0 010 4.928c-1.418 1.361-3.718 1.361-5.137 0a3.385 3.385 0 010-4.928zM364.957 196.848c1.419-1.361 3.719-1.361 5.138 0a3.387 3.387 0 010 4.929c-1.419 1.361-3.719 1.361-5.138 0a3.387 3.387 0 010-4.929zM364.957 210.787c1.419-1.361 3.719-1.361 5.138 0a3.386 3.386 0 010 4.928c-1.419 1.361-3.719 1.361-5.138 0a3.386 3.386 0 010-4.928zM364.957 182.909c1.419-1.361 3.719-1.361 5.138 0a3.387 3.387 0 010 4.929c-1.419 1.361-3.719 1.361-5.138 0a3.387 3.387 0 010-4.929zM379.488 182.909c1.419-1.361 3.719-1.361 5.137 0a3.386 3.386 0 010 4.929c-1.418 1.361-3.718 1.361-5.137 0a3.386 3.386 0 010-4.929zM394.019 182.909c1.418-1.361 3.718-1.361 5.137 0a3.386 3.386 0 010 4.929c-1.419 1.361-3.719 1.361-5.137 0a3.386 3.386 0 010-4.929zM408.549 182.909c1.419-1.361 3.719-1.361 5.138 0a3.387 3.387 0 010 4.929c-1.419 1.361-3.719 1.361-5.138 0a3.387 3.387 0 010-4.929zM394.019 168.97c1.418-1.361 3.718-1.361 5.137 0a3.385 3.385 0 010 4.928c-1.419 1.361-3.719 1.361-5.137 0a3.385 3.385 0 010-4.928zM379.488 168.97c1.419-1.361 3.719-1.361 5.137 0a3.385 3.385 0 010 4.928c-1.418 1.361-3.718 1.361-5.137 0a3.385 3.385 0 010-4.928zM364.957 168.97c1.419-1.361 3.719-1.361 5.138 0a3.386 3.386 0 010 4.928c-1.419 1.361-3.719 1.361-5.138 0a3.386 3.386 0 010-4.928zM364.957 155.031c1.419-1.361 3.719-1.361 5.138 0a3.386 3.386 0 010 4.928c-1.419 1.361-3.719 1.361-5.138 0a3.386 3.386 0 010-4.928zM350.427 155.031c1.419-1.361 3.719-1.361 5.137 0a3.385 3.385 0 010 4.928c-1.418 1.361-3.718 1.361-5.137 0a3.386 3.386 0 010-4.928zM335.897 155.031c1.418-1.361 3.718-1.361 5.137 0a3.386 3.386 0 010 4.928c-1.419 1.361-3.719 1.361-5.137 0a3.385 3.385 0 010-4.928zM335.897 141.092c1.418-1.361 3.718-1.361 5.137 0a3.386 3.386 0 010 4.928c-1.419 1.361-3.719 1.361-5.137 0a3.385 3.385 0 010-4.928zM321.366 141.092c1.419-1.361 3.719-1.361 5.138 0a3.386 3.386 0 010 4.928c-1.419 1.361-3.719 1.361-5.138 0a3.386 3.386 0 010-4.928zM306.836 141.092c1.418-1.361 3.718-1.361 5.137 0a3.385 3.385 0 010 4.928c-1.419 1.361-3.719 1.361-5.137 0a3.385 3.385 0 010-4.928zM292.305 141.092c1.419-1.361 3.719-1.361 5.137 0a3.385 3.385 0 010 4.928c-1.418 1.361-3.718 1.361-5.137 0a3.386 3.386 0 010-4.928zM306.836 155.031c1.418-1.361 3.718-1.361 5.137 0a3.385 3.385 0 010 4.928c-1.419 1.361-3.719 1.361-5.137 0a3.385 3.385 0 010-4.928zM292.305 155.031c1.419-1.361 3.719-1.361 5.137 0a3.385 3.385 0 010 4.928c-1.418 1.361-3.718 1.361-5.137 0a3.386 3.386 0 010-4.928zM277.775 155.031c1.419-1.361 3.719-1.361 5.137 0a3.385 3.385 0 010 4.928c-1.418 1.361-3.718 1.361-5.137 0a3.385 3.385 0 010-4.928zM277.775 168.97c1.419-1.361 3.719-1.361 5.137 0a3.385 3.385 0 010 4.928c-1.418 1.361-3.718 1.361-5.137 0a3.385 3.385 0 010-4.928zM292.305 168.97c1.419-1.361 3.719-1.361 5.137 0a3.385 3.385 0 010 4.928c-1.418 1.361-3.718 1.361-5.137 0a3.386 3.386 0 010-4.928zM306.836 168.97c1.418-1.361 3.718-1.361 5.137 0a3.385 3.385 0 010 4.928c-1.419 1.361-3.719 1.361-5.137 0a3.385 3.385 0 010-4.928zM335.897 168.97c1.418-1.361 3.718-1.361 5.137 0a3.386 3.386 0 010 4.928c-1.419 1.361-3.719 1.361-5.137 0a3.385 3.385 0 010-4.928zM321.366 168.97c1.419-1.361 3.719-1.361 5.138 0a3.386 3.386 0 010 4.928c-1.419 1.361-3.719 1.361-5.138 0a3.386 3.386 0 010-4.928zM321.366 182.909c1.419-1.361 3.719-1.361 5.138 0a3.387 3.387 0 010 4.929c-1.419 1.361-3.719 1.361-5.138 0a3.387 3.387 0 010-4.929zM335.897 182.909c1.418-1.361 3.718-1.361 5.137 0a3.387 3.387 0 010 4.929c-1.419 1.361-3.719 1.361-5.137 0a3.386 3.386 0 010-4.929zM350.427 182.909c1.419-1.361 3.719-1.361 5.137 0a3.386 3.386 0 010 4.929c-1.418 1.361-3.718 1.361-5.137 0a3.387 3.387 0 010-4.929zM350.427 196.848c1.419-1.361 3.719-1.361 5.137 0a3.386 3.386 0 010 4.929c-1.418 1.361-3.718 1.361-5.137 0a3.387 3.387 0 010-4.929zM350.427 210.787c1.419-1.361 3.719-1.361 5.137 0a3.385 3.385 0 010 4.928c-1.418 1.361-3.718 1.361-5.137 0a3.386 3.386 0 010-4.928zM350.427 224.726c1.419-1.361 3.719-1.361 5.137 0a3.385 3.385 0 010 4.928c-1.418 1.361-3.718 1.361-5.137 0a3.386 3.386 0 010-4.928zM364.957 224.726c1.419-1.361 3.719-1.361 5.138 0a3.386 3.386 0 010 4.928c-1.419 1.361-3.719 1.361-5.138 0a3.386 3.386 0 010-4.928zM364.957 238.665c1.419-1.361 3.719-1.361 5.138 0a3.386 3.386 0 010 4.928c-1.419 1.361-3.719 1.361-5.138 0a3.386 3.386 0 010-4.928zM379.488 238.665c1.419-1.361 3.719-1.361 5.137 0a3.385 3.385 0 010 4.928c-1.418 1.361-3.718 1.361-5.137 0a3.385 3.385 0 010-4.928zM379.488 252.604c1.419-1.361 3.719-1.361 5.137 0a3.386 3.386 0 010 4.929c-1.418 1.361-3.718 1.361-5.137 0a3.386 3.386 0 010-4.929zM379.488 266.543c1.419-1.361 3.719-1.361 5.137 0a3.386 3.386 0 010 4.929c-1.418 1.361-3.718 1.361-5.137 0a3.386 3.386 0 010-4.929zM394.019 238.665c1.418-1.361 3.718-1.361 5.137 0a3.385 3.385 0 010 4.928c-1.419 1.361-3.719 1.361-5.137 0a3.385 3.385 0 010-4.928zM408.549 238.665c1.419-1.361 3.719-1.361 5.138 0a3.386 3.386 0 010 4.928c-1.419 1.361-3.719 1.361-5.138 0a3.386 3.386 0 010-4.928zM394.019 252.604c1.418-1.361 3.718-1.361 5.137 0a3.386 3.386 0 010 4.929c-1.419 1.361-3.719 1.361-5.137 0a3.386 3.386 0 010-4.929zM394.019 266.543c1.418-1.361 3.718-1.361 5.137 0a3.386 3.386 0 010 4.929c-1.419 1.361-3.719 1.361-5.137 0a3.386 3.386 0 010-4.929zM364.957 252.604c1.419-1.361 3.719-1.361 5.138 0a3.387 3.387 0 010 4.929c-1.419 1.361-3.719 1.361-5.138 0a3.387 3.387 0 010-4.929zM364.957 266.543c1.419-1.361 3.719-1.361 5.138 0a3.387 3.387 0 010 4.929c-1.419 1.361-3.719 1.361-5.138 0a3.387 3.387 0 010-4.929zM364.957 280.482c1.419-1.361 3.719-1.361 5.138 0a3.386 3.386 0 010 4.928c-1.419 1.361-3.719 1.361-5.138 0a3.386 3.386 0 010-4.928zM350.427 238.665c1.419-1.361 3.719-1.361 5.137 0a3.385 3.385 0 010 4.928c-1.418 1.361-3.718 1.361-5.137 0a3.386 3.386 0 010-4.928zM350.427 252.604c1.419-1.361 3.719-1.361 5.137 0a3.386 3.386 0 010 4.929c-1.418 1.361-3.718 1.361-5.137 0a3.387 3.387 0 010-4.929zM335.897 238.665c1.418-1.361 3.718-1.361 5.137 0a3.386 3.386 0 010 4.928c-1.419 1.361-3.719 1.361-5.137 0a3.385 3.385 0 010-4.928zM335.897 196.848c1.418-1.361 3.718-1.361 5.137 0a3.387 3.387 0 010 4.929c-1.419 1.361-3.719 1.361-5.137 0a3.386 3.386 0 010-4.929zM335.897 210.787c1.418-1.361 3.718-1.361 5.137 0a3.386 3.386 0 010 4.928c-1.419 1.361-3.719 1.361-5.137 0a3.385 3.385 0 010-4.928zM335.897 224.726c1.418-1.361 3.718-1.361 5.137 0a3.386 3.386 0 010 4.928c-1.419 1.361-3.719 1.361-5.137 0a3.385 3.385 0 010-4.928zM350.427 168.97c1.419-1.361 3.719-1.361 5.137 0a3.385 3.385 0 010 4.928c-1.418 1.361-3.718 1.361-5.137 0a3.386 3.386 0 010-4.928zM248.714 182.909c1.418-1.361 3.718-1.361 5.137 0a3.386 3.386 0 010 4.929c-1.419 1.361-3.719 1.361-5.137 0a3.386 3.386 0 010-4.929zM263.244 168.97c1.419-1.361 3.719-1.361 5.138 0a3.386 3.386 0 010 4.928c-1.419 1.361-3.719 1.361-5.138 0a3.386 3.386 0 010-4.928zM263.244 182.909c1.419-1.361 3.719-1.361 5.138 0a3.387 3.387 0 010 4.929c-1.419 1.361-3.719 1.361-5.138 0a3.387 3.387 0 010-4.929zM277.775 182.909c1.419-1.361 3.719-1.361 5.137 0a3.386 3.386 0 010 4.929c-1.418 1.361-3.718 1.361-5.137 0a3.386 3.386 0 010-4.929zM234.184 182.909c1.418-1.361 3.718-1.361 5.137 0a3.386 3.386 0 010 4.929c-1.419 1.361-3.719 1.361-5.137 0a3.386 3.386 0 010-4.929zM234.184 196.848c1.418-1.361 3.718-1.361 5.137 0a3.386 3.386 0 010 4.929c-1.419 1.361-3.719 1.361-5.137 0a3.386 3.386 0 010-4.929zM219.653 210.787c1.419-1.361 3.719-1.361 5.137 0a3.385 3.385 0 010 4.928c-1.418 1.361-3.718 1.361-5.137 0a3.385 3.385 0 010-4.928zM205.122 224.726c1.419-1.361 3.719-1.361 5.138 0a3.386 3.386 0 010 4.928c-1.419 1.361-3.719 1.361-5.138 0a3.386 3.386 0 010-4.928zM190.592 238.665c1.419-1.361 3.719-1.361 5.138 0a3.386 3.386 0 010 4.928c-1.419 1.361-3.719 1.361-5.138 0a3.386 3.386 0 010-4.928zM176.062 238.665c1.418-1.361 3.718-1.361 5.137 0a3.385 3.385 0 010 4.928c-1.419 1.361-3.719 1.361-5.137 0a3.385 3.385 0 010-4.928zM190.592 252.604c1.419-1.361 3.719-1.361 5.138 0a3.387 3.387 0 010 4.929c-1.419 1.361-3.719 1.361-5.138 0a3.387 3.387 0 010-4.929zM190.592 266.543c1.419-1.361 3.719-1.361 5.138 0a3.387 3.387 0 010 4.929c-1.419 1.361-3.719 1.361-5.138 0a3.387 3.387 0 010-4.929zM205.122 266.543c1.419-1.361 3.719-1.361 5.138 0a3.387 3.387 0 010 4.929c-1.419 1.361-3.719 1.361-5.138 0a3.387 3.387 0 010-4.929zM205.122 252.604c1.419-1.361 3.719-1.361 5.138 0a3.387 3.387 0 010 4.929c-1.419 1.361-3.719 1.361-5.138 0a3.387 3.387 0 010-4.929zM219.653 252.604c1.419-1.361 3.719-1.361 5.137 0a3.386 3.386 0 010 4.929c-1.418 1.361-3.718 1.361-5.137 0a3.386 3.386 0 010-4.929zM234.184 252.604c1.418-1.361 3.718-1.361 5.137 0a3.386 3.386 0 010 4.929c-1.419 1.361-3.719 1.361-5.137 0a3.386 3.386 0 010-4.929zM248.714 252.604c1.418-1.361 3.718-1.361 5.137 0a3.386 3.386 0 010 4.929c-1.419 1.361-3.719 1.361-5.137 0a3.386 3.386 0 010-4.929zM234.184 266.543c1.418-1.361 3.718-1.361 5.137 0a3.386 3.386 0 010 4.929c-1.419 1.361-3.719 1.361-5.137 0a3.386 3.386 0 010-4.929zM234.184 280.482c1.418-1.361 3.718-1.361 5.137 0a3.385 3.385 0 010 4.928c-1.419 1.361-3.719 1.361-5.137 0a3.385 3.385 0 010-4.928zM234.184 294.421c1.418-1.361 3.718-1.361 5.137 0a3.385 3.385 0 010 4.928c-1.419 1.361-3.719 1.361-5.137 0a3.385 3.385 0 010-4.928zM248.714 280.482c1.418-1.361 3.718-1.361 5.137 0a3.385 3.385 0 010 4.928c-1.419 1.361-3.719 1.361-5.137 0a3.385 3.385 0 010-4.928zM248.714 266.543c1.418-1.361 3.718-1.361 5.137 0a3.386 3.386 0 010 4.929c-1.419 1.361-3.719 1.361-5.137 0a3.386 3.386 0 010-4.929z" fill="#006EB3"/><path d="M248.714 266.543c1.418-1.361 3.718-1.361 5.137 0a3.386 3.386 0 010 4.929c-1.419 1.361-3.719 1.361-5.137 0a3.386 3.386 0 010-4.929zM263.244 266.543c1.419-1.361 3.719-1.361 5.138 0a3.387 3.387 0 010 4.929c-1.419 1.361-3.719 1.361-5.138 0a3.387 3.387 0 010-4.929zM263.244 252.604c1.419-1.361 3.719-1.361 5.138 0a3.387 3.387 0 010 4.929c-1.419 1.361-3.719 1.361-5.138 0a3.387 3.387 0 010-4.929zM248.714 238.665c1.418-1.361 3.718-1.361 5.137 0a3.385 3.385 0 010 4.928c-1.419 1.361-3.719 1.361-5.137 0a3.385 3.385 0 010-4.928zM234.184 238.665c1.418-1.361 3.718-1.361 5.137 0a3.385 3.385 0 010 4.928c-1.419 1.361-3.719 1.361-5.137 0a3.385 3.385 0 010-4.928zM205.122 238.665c1.419-1.361 3.719-1.361 5.138 0a3.386 3.386 0 010 4.928c-1.419 1.361-3.719 1.361-5.138 0a3.386 3.386 0 010-4.928zM219.653 238.665c1.419-1.361 3.719-1.361 5.137 0a3.385 3.385 0 010 4.928c-1.418 1.361-3.718 1.361-5.137 0a3.385 3.385 0 010-4.928zM219.653 224.726c1.419-1.361 3.719-1.361 5.137 0a3.385 3.385 0 010 4.928c-1.418 1.361-3.718 1.361-5.137 0a3.385 3.385 0 010-4.928zM234.184 224.726c1.418-1.361 3.718-1.361 5.137 0a3.385 3.385 0 010 4.928c-1.419 1.361-3.719 1.361-5.137 0a3.385 3.385 0 010-4.928zM248.714 224.726c1.418-1.361 3.718-1.361 5.137 0a3.385 3.385 0 010 4.928c-1.419 1.361-3.719 1.361-5.137 0a3.385 3.385 0 010-4.928zM248.714 210.787c1.418-1.361 3.718-1.361 5.137 0a3.385 3.385 0 010 4.928c-1.419 1.361-3.719 1.361-5.137 0a3.385 3.385 0 010-4.928zM234.184 210.787c1.418-1.361 3.718-1.361 5.137 0a3.385 3.385 0 010 4.928c-1.419 1.361-3.719 1.361-5.137 0a3.385 3.385 0 010-4.928zM248.714 196.848c1.418-1.361 3.718-1.361 5.137 0a3.386 3.386 0 010 4.929c-1.419 1.361-3.719 1.361-5.137 0a3.386 3.386 0 010-4.929zM263.244 196.848c1.419-1.361 3.719-1.361 5.138 0a3.387 3.387 0 010 4.929c-1.419 1.361-3.719 1.361-5.138 0a3.387 3.387 0 010-4.929zM263.244 238.665c1.419-1.361 3.719-1.361 5.138 0a3.386 3.386 0 010 4.928c-1.419 1.361-3.719 1.361-5.138 0a3.386 3.386 0 010-4.928zM263.244 224.726c1.419-1.361 3.719-1.361 5.138 0a3.386 3.386 0 010 4.928c-1.419 1.361-3.719 1.361-5.138 0a3.386 3.386 0 010-4.928zM263.244 210.787c1.419-1.361 3.719-1.361 5.138 0a3.386 3.386 0 010 4.928c-1.419 1.361-3.719 1.361-5.138 0a3.386 3.386 0 010-4.928zM277.775 210.787c1.419-1.361 3.719-1.361 5.137 0a3.385 3.385 0 010 4.928c-1.418 1.361-3.718 1.361-5.137 0a3.385 3.385 0 010-4.928zM277.775 196.848c1.419-1.361 3.719-1.361 5.137 0a3.386 3.386 0 010 4.929c-1.418 1.361-3.718 1.361-5.137 0a3.386 3.386 0 010-4.929zM306.836 196.848c1.418-1.361 3.718-1.361 5.137 0a3.386 3.386 0 010 4.929c-1.419 1.361-3.719 1.361-5.137 0a3.386 3.386 0 010-4.929zM306.836 182.909c1.418-1.361 3.718-1.361 5.137 0a3.386 3.386 0 010 4.929c-1.419 1.361-3.719 1.361-5.137 0a3.386 3.386 0 010-4.929zM321.366 210.787c1.419-1.361 3.719-1.361 5.138 0a3.386 3.386 0 010 4.928c-1.419 1.361-3.719 1.361-5.138 0a3.386 3.386 0 010-4.928zM321.366 196.848c1.419-1.361 3.719-1.361 5.138 0a3.387 3.387 0 010 4.929c-1.419 1.361-3.719 1.361-5.138 0a3.387 3.387 0 010-4.929zM321.366 224.726c1.419-1.361 3.719-1.361 5.138 0a3.386 3.386 0 010 4.928c-1.419 1.361-3.719 1.361-5.138 0a3.386 3.386 0 010-4.928zM321.366 238.665c1.419-1.361 3.719-1.361 5.138 0a3.386 3.386 0 010 4.928c-1.419 1.361-3.719 1.361-5.138 0a3.386 3.386 0 010-4.928zM306.836 224.726c1.418-1.361 3.718-1.361 5.137 0a3.385 3.385 0 010 4.928c-1.419 1.361-3.719 1.361-5.137 0a3.385 3.385 0 010-4.928zM306.836 238.665c1.418-1.361 3.718-1.361 5.137 0a3.385 3.385 0 010 4.928c-1.419 1.361-3.719 1.361-5.137 0a3.385 3.385 0 010-4.928zM292.305 238.665c1.419-1.361 3.719-1.361 5.137 0a3.385 3.385 0 010 4.928c-1.418 1.361-3.718 1.361-5.137 0a3.386 3.386 0 010-4.928zM306.836 252.604c1.418-1.361 3.718-1.361 5.137 0a3.386 3.386 0 010 4.929c-1.419 1.361-3.719 1.361-5.137 0a3.386 3.386 0 010-4.929zM321.366 252.604c1.419-1.361 3.719-1.361 5.138 0a3.387 3.387 0 010 4.929c-1.419 1.361-3.719 1.361-5.138 0a3.387 3.387 0 010-4.929zM335.897 266.543c1.418-1.361 3.718-1.361 5.137 0a3.387 3.387 0 010 4.929c-1.419 1.361-3.719 1.361-5.137 0a3.386 3.386 0 010-4.929zM350.427 280.482c1.419-1.361 3.719-1.361 5.137 0a3.385 3.385 0 010 4.928c-1.418 1.361-3.718 1.361-5.137 0a3.386 3.386 0 010-4.928zM350.427 266.543c1.419-1.361 3.719-1.361 5.137 0a3.386 3.386 0 010 4.929c-1.418 1.361-3.718 1.361-5.137 0a3.387 3.387 0 010-4.929zM335.897 280.482c1.418-1.361 3.718-1.361 5.137 0a3.386 3.386 0 010 4.928c-1.419 1.361-3.719 1.361-5.137 0a3.385 3.385 0 010-4.928zM321.366 280.482c1.419-1.361 3.719-1.361 5.138 0a3.386 3.386 0 010 4.928c-1.419 1.361-3.719 1.361-5.138 0a3.386 3.386 0 010-4.928zM321.366 294.421c1.419-1.361 3.719-1.361 5.138 0a3.386 3.386 0 010 4.928c-1.419 1.361-3.719 1.361-5.138 0a3.386 3.386 0 010-4.928zM306.836 308.358c1.418-1.361 3.718-1.361 5.137 0a3.386 3.386 0 010 4.929c-1.419 1.361-3.719 1.361-5.137 0a3.386 3.386 0 010-4.929zM306.836 322.298c1.418-1.361 3.718-1.361 5.137 0a3.386 3.386 0 010 4.929c-1.419 1.361-3.719 1.361-5.137 0a3.386 3.386 0 010-4.929zM321.366 308.358c1.419-1.361 3.719-1.361 5.138 0a3.387 3.387 0 010 4.929c-1.419 1.361-3.719 1.361-5.138 0a3.387 3.387 0 010-4.929zM335.897 308.358c1.418-1.361 3.718-1.361 5.137 0a3.387 3.387 0 010 4.929c-1.419 1.361-3.719 1.361-5.137 0a3.386 3.386 0 010-4.929zM335.897 294.421c1.418-1.361 3.718-1.361 5.137 0a3.386 3.386 0 010 4.928c-1.419 1.361-3.719 1.361-5.137 0a3.385 3.385 0 010-4.928zM350.427 294.421c1.419-1.361 3.719-1.361 5.137 0a3.385 3.385 0 010 4.928c-1.418 1.361-3.718 1.361-5.137 0a3.386 3.386 0 010-4.928zM350.427 308.358c1.419-1.361 3.719-1.361 5.137 0a3.386 3.386 0 010 4.929c-1.418 1.361-3.718 1.361-5.137 0a3.387 3.387 0 010-4.929zM292.305 294.421c1.419-1.361 3.719-1.361 5.137 0a3.385 3.385 0 010 4.928c-1.418 1.361-3.718 1.361-5.137 0a3.386 3.386 0 010-4.928zM292.305 308.358c1.419-1.361 3.719-1.361 5.137 0a3.386 3.386 0 010 4.929c-1.418 1.361-3.718 1.361-5.137 0a3.387 3.387 0 010-4.929zM292.305 322.298c1.419-1.361 3.719-1.361 5.137 0a3.386 3.386 0 010 4.929c-1.418 1.361-3.718 1.361-5.137 0a3.387 3.387 0 010-4.929zM277.775 336.238c1.419-1.361 3.719-1.361 5.137 0a3.385 3.385 0 010 4.928c-1.418 1.361-3.718 1.361-5.137 0a3.385 3.385 0 010-4.928zM350.427 336.238c1.419-1.361 3.719-1.361 5.137 0a3.385 3.385 0 010 4.928c-1.418 1.361-3.718 1.361-5.137 0a3.386 3.386 0 010-4.928zM350.427 322.298c1.419-1.361 3.719-1.361 5.137 0a3.386 3.386 0 010 4.929c-1.418 1.361-3.718 1.361-5.137 0a3.387 3.387 0 010-4.929zM423.079 336.238c1.418-1.361 3.718-1.361 5.137 0a3.385 3.385 0 010 4.928c-1.419 1.361-3.719 1.361-5.137 0a3.385 3.385 0 010-4.928zM423.079 322.298c1.418-1.361 3.718-1.361 5.137 0a3.386 3.386 0 010 4.929c-1.419 1.361-3.719 1.361-5.137 0a3.386 3.386 0 010-4.929zM423.079 308.358c1.418-1.361 3.718-1.361 5.137 0a3.386 3.386 0 010 4.929c-1.419 1.361-3.719 1.361-5.137 0a3.386 3.386 0 010-4.929zM423.079 294.421c1.418-1.361 3.718-1.361 5.137 0a3.385 3.385 0 010 4.928c-1.419 1.361-3.719 1.361-5.137 0a3.385 3.385 0 010-4.928zM423.079 280.482c1.418-1.361 3.718-1.361 5.137 0a3.385 3.385 0 010 4.928c-1.419 1.361-3.719 1.361-5.137 0a3.385 3.385 0 010-4.928zM423.079 266.543c1.418-1.361 3.718-1.361 5.137 0a3.386 3.386 0 010 4.929c-1.419 1.361-3.719 1.361-5.137 0a3.386 3.386 0 010-4.929zM423.079 252.604c1.418-1.361 3.718-1.361 5.137 0a3.386 3.386 0 010 4.929c-1.419 1.361-3.719 1.361-5.137 0a3.386 3.386 0 010-4.929zM423.079 238.665c1.418-1.361 3.718-1.361 5.137 0a3.385 3.385 0 010 4.928c-1.419 1.361-3.719 1.361-5.137 0a3.385 3.385 0 010-4.928zM423.079 224.726c1.418-1.361 3.718-1.361 5.137 0a3.385 3.385 0 010 4.928c-1.419 1.361-3.719 1.361-5.137 0a3.385 3.385 0 010-4.928zM263.244 336.238c1.419-1.361 3.719-1.361 5.138 0a3.386 3.386 0 010 4.928c-1.419 1.361-3.719 1.361-5.138 0a3.386 3.386 0 010-4.928zM335.897 336.238c1.418-1.361 3.718-1.361 5.137 0a3.386 3.386 0 010 4.928c-1.419 1.361-3.719 1.361-5.137 0a3.385 3.385 0 010-4.928zM335.897 322.298c1.418-1.361 3.718-1.361 5.137 0a3.387 3.387 0 010 4.929c-1.419 1.361-3.719 1.361-5.137 0a3.386 3.386 0 010-4.929zM408.549 336.238c1.419-1.361 3.719-1.361 5.138 0a3.386 3.386 0 010 4.928c-1.419 1.361-3.719 1.361-5.138 0a3.386 3.386 0 010-4.928zM408.549 322.298c1.419-1.361 3.719-1.361 5.138 0a3.387 3.387 0 010 4.929c-1.419 1.361-3.719 1.361-5.138 0a3.387 3.387 0 010-4.929zM408.549 308.358c1.419-1.361 3.719-1.361 5.138 0a3.387 3.387 0 010 4.929c-1.419 1.361-3.719 1.361-5.138 0a3.387 3.387 0 010-4.929zM408.549 294.421c1.419-1.361 3.719-1.361 5.138 0a3.386 3.386 0 010 4.928c-1.419 1.361-3.719 1.361-5.138 0a3.386 3.386 0 010-4.928zM408.549 280.482c1.419-1.361 3.719-1.361 5.138 0a3.386 3.386 0 010 4.928c-1.419 1.361-3.719 1.361-5.138 0a3.386 3.386 0 010-4.928zM408.549 266.543c1.419-1.361 3.719-1.361 5.138 0a3.387 3.387 0 010 4.929c-1.419 1.361-3.719 1.361-5.138 0a3.387 3.387 0 010-4.929zM408.549 252.604c1.419-1.361 3.719-1.361 5.138 0a3.387 3.387 0 010 4.929c-1.419 1.361-3.719 1.361-5.138 0a3.387 3.387 0 010-4.929zM248.714 336.238c1.418-1.361 3.718-1.361 5.137 0a3.385 3.385 0 010 4.928c-1.419 1.361-3.719 1.361-5.137 0a3.385 3.385 0 010-4.928zM321.366 336.238c1.419-1.361 3.719-1.361 5.138 0a3.386 3.386 0 010 4.928c-1.419 1.361-3.719 1.361-5.138 0a3.386 3.386 0 010-4.928zM321.366 322.298c1.419-1.361 3.719-1.361 5.138 0a3.387 3.387 0 010 4.929c-1.419 1.361-3.719 1.361-5.138 0a3.387 3.387 0 010-4.929zM394.019 336.238c1.418-1.361 3.718-1.361 5.137 0a3.385 3.385 0 010 4.928c-1.419 1.361-3.719 1.361-5.137 0a3.385 3.385 0 010-4.928zM394.019 322.298c1.418-1.361 3.718-1.361 5.137 0a3.386 3.386 0 010 4.929c-1.419 1.361-3.719 1.361-5.137 0a3.386 3.386 0 010-4.929zM394.019 308.358c1.418-1.361 3.718-1.361 5.137 0a3.386 3.386 0 010 4.929c-1.419 1.361-3.719 1.361-5.137 0a3.386 3.386 0 010-4.929zM394.019 294.421c1.418-1.361 3.718-1.361 5.137 0a3.385 3.385 0 010 4.928c-1.419 1.361-3.719 1.361-5.137 0a3.385 3.385 0 010-4.928zM394.019 280.482c1.418-1.361 3.718-1.361 5.137 0a3.385 3.385 0 010 4.928c-1.419 1.361-3.719 1.361-5.137 0a3.385 3.385 0 010-4.928zM234.184 336.238c1.418-1.361 3.718-1.361 5.137 0a3.385 3.385 0 010 4.928c-1.419 1.361-3.719 1.361-5.137 0a3.385 3.385 0 010-4.928zM306.836 336.238c1.418-1.361 3.718-1.361 5.137 0a3.385 3.385 0 010 4.928c-1.419 1.361-3.719 1.361-5.137 0a3.385 3.385 0 010-4.928zM379.488 336.238c1.419-1.361 3.719-1.361 5.137 0a3.385 3.385 0 010 4.928c-1.418 1.361-3.718 1.361-5.137 0a3.385 3.385 0 010-4.928zM379.488 322.298c1.419-1.361 3.719-1.361 5.137 0a3.386 3.386 0 010 4.929c-1.418 1.361-3.718 1.361-5.137 0a3.386 3.386 0 010-4.929zM379.488 308.358c1.419-1.361 3.719-1.361 5.137 0a3.386 3.386 0 010 4.929c-1.418 1.361-3.718 1.361-5.137 0a3.386 3.386 0 010-4.929zM379.488 294.421c1.419-1.361 3.719-1.361 5.137 0a3.385 3.385 0 010 4.928c-1.418 1.361-3.718 1.361-5.137 0a3.385 3.385 0 010-4.928zM379.488 280.482c1.419-1.361 3.719-1.361 5.137 0a3.385 3.385 0 010 4.928c-1.418 1.361-3.718 1.361-5.137 0a3.385 3.385 0 010-4.928zM234.184 350.177c1.418-1.361 3.718-1.361 5.137 0a3.385 3.385 0 010 4.928c-1.419 1.361-3.719 1.361-5.137 0a3.385 3.385 0 010-4.928zM306.836 350.177c1.418-1.361 3.718-1.361 5.137 0a3.385 3.385 0 010 4.928c-1.419 1.361-3.719 1.361-5.137 0a3.385 3.385 0 010-4.928zM379.488 350.177c1.419-1.361 3.719-1.361 5.137 0a3.385 3.385 0 010 4.928c-1.418 1.361-3.718 1.361-5.137 0a3.385 3.385 0 010-4.928zM234.184 364.116c1.418-1.361 3.718-1.361 5.137 0a3.385 3.385 0 010 4.928c-1.419 1.361-3.719 1.361-5.137 0a3.385 3.385 0 010-4.928zM306.836 364.116c1.418-1.361 3.718-1.361 5.137 0a3.385 3.385 0 010 4.928c-1.419 1.361-3.719 1.361-5.137 0a3.385 3.385 0 010-4.928zM379.488 364.116c1.419-1.361 3.719-1.361 5.137 0a3.385 3.385 0 010 4.928c-1.418 1.361-3.718 1.361-5.137 0a3.385 3.385 0 010-4.928zM234.184 391.993c1.418-1.361 3.718-1.361 5.137 0a3.386 3.386 0 010 4.929c-1.419 1.361-3.719 1.361-5.137 0a3.386 3.386 0 010-4.929zM234.184 378.055c1.418-1.361 3.718-1.361 5.137 0a3.385 3.385 0 010 4.928c-1.419 1.361-3.719 1.361-5.137 0a3.385 3.385 0 010-4.928zM306.836 378.055c1.418-1.361 3.718-1.361 5.137 0a3.385 3.385 0 010 4.928c-1.419 1.361-3.719 1.361-5.137 0a3.385 3.385 0 010-4.928zM379.488 378.055c1.419-1.361 3.719-1.361 5.137 0a3.385 3.385 0 010 4.928c-1.418 1.361-3.718 1.361-5.137 0a3.385 3.385 0 010-4.928zM234.184 405.933c1.418-1.361 3.718-1.361 5.137 0a3.385 3.385 0 010 4.928c-1.419 1.361-3.719 1.361-5.137 0a3.385 3.385 0 010-4.928zM248.714 364.116c1.418-1.361 3.718-1.361 5.137 0a3.385 3.385 0 010 4.928c-1.419 1.361-3.719 1.361-5.137 0a3.385 3.385 0 010-4.928zM321.366 364.116c1.419-1.361 3.719-1.361 5.138 0a3.386 3.386 0 010 4.928c-1.419 1.361-3.719 1.361-5.138 0a3.386 3.386 0 010-4.928zM394.019 364.116c1.418-1.361 3.718-1.361 5.137 0a3.385 3.385 0 010 4.928c-1.419 1.361-3.719 1.361-5.137 0a3.385 3.385 0 010-4.928zM248.714 350.177c1.418-1.361 3.718-1.361 5.137 0a3.385 3.385 0 010 4.928c-1.419 1.361-3.719 1.361-5.137 0a3.385 3.385 0 010-4.928zM321.366 350.177c1.419-1.361 3.719-1.361 5.138 0a3.386 3.386 0 010 4.928c-1.419 1.361-3.719 1.361-5.138 0a3.386 3.386 0 010-4.928zM394.019 350.177c1.418-1.361 3.718-1.361 5.137 0a3.385 3.385 0 010 4.928c-1.419 1.361-3.719 1.361-5.137 0a3.385 3.385 0 010-4.928z" fill="#006EB3"/><path d="M248.714 350.177c1.418-1.361 3.718-1.361 5.137 0a3.385 3.385 0 010 4.928c-1.419 1.361-3.719 1.361-5.137 0a3.385 3.385 0 010-4.928zM321.366 350.177c1.419-1.361 3.719-1.361 5.138 0a3.386 3.386 0 010 4.928c-1.419 1.361-3.719 1.361-5.138 0a3.386 3.386 0 010-4.928zM394.019 350.177c1.418-1.361 3.718-1.361 5.137 0a3.385 3.385 0 010 4.928c-1.419 1.361-3.719 1.361-5.137 0a3.385 3.385 0 010-4.928zM219.653 336.238c1.419-1.361 3.719-1.361 5.137 0a3.385 3.385 0 010 4.928c-1.418 1.361-3.718 1.361-5.137 0a3.385 3.385 0 010-4.928zM292.305 336.238c1.419-1.361 3.719-1.361 5.137 0a3.385 3.385 0 010 4.928c-1.418 1.361-3.718 1.361-5.137 0a3.386 3.386 0 010-4.928zM364.957 336.238c1.419-1.361 3.719-1.361 5.138 0a3.386 3.386 0 010 4.928c-1.419 1.361-3.719 1.361-5.138 0a3.386 3.386 0 010-4.928zM364.957 322.298c1.419-1.361 3.719-1.361 5.138 0a3.387 3.387 0 010 4.929c-1.419 1.361-3.719 1.361-5.138 0a3.387 3.387 0 010-4.929zM364.957 308.358c1.419-1.361 3.719-1.361 5.138 0a3.387 3.387 0 010 4.929c-1.419 1.361-3.719 1.361-5.138 0a3.387 3.387 0 010-4.929zM219.653 350.177c1.419-1.361 3.719-1.361 5.137 0a3.385 3.385 0 010 4.928c-1.418 1.361-3.718 1.361-5.137 0a3.385 3.385 0 010-4.928zM292.305 350.177c1.419-1.361 3.719-1.361 5.137 0a3.385 3.385 0 010 4.928c-1.418 1.361-3.718 1.361-5.137 0a3.386 3.386 0 010-4.928zM364.957 350.177c1.419-1.361 3.719-1.361 5.138 0a3.386 3.386 0 010 4.928c-1.419 1.361-3.719 1.361-5.138 0a3.386 3.386 0 010-4.928zM219.653 364.116c1.419-1.361 3.719-1.361 5.137 0a3.385 3.385 0 010 4.928c-1.418 1.361-3.718 1.361-5.137 0a3.385 3.385 0 010-4.928zM292.305 364.116c1.419-1.361 3.719-1.361 5.137 0a3.385 3.385 0 010 4.928c-1.418 1.361-3.718 1.361-5.137 0a3.386 3.386 0 010-4.928zM364.957 364.116c1.419-1.361 3.719-1.361 5.138 0a3.386 3.386 0 010 4.928c-1.419 1.361-3.719 1.361-5.138 0a3.386 3.386 0 010-4.928zM219.653 391.993c1.419-1.361 3.719-1.361 5.137 0a3.386 3.386 0 010 4.929c-1.418 1.361-3.718 1.361-5.137 0a3.386 3.386 0 010-4.929zM219.653 378.055c1.419-1.361 3.719-1.361 5.137 0a3.385 3.385 0 010 4.928c-1.418 1.361-3.718 1.361-5.137 0a3.385 3.385 0 010-4.928zM292.305 378.055c1.419-1.361 3.719-1.361 5.137 0a3.385 3.385 0 010 4.928c-1.418 1.361-3.718 1.361-5.137 0a3.386 3.386 0 010-4.928zM364.957 378.055c1.419-1.361 3.719-1.361 5.138 0a3.386 3.386 0 010 4.928c-1.419 1.361-3.719 1.361-5.138 0a3.386 3.386 0 010-4.928zM219.653 405.933c1.419-1.361 3.719-1.361 5.137 0a3.385 3.385 0 010 4.928c-1.418 1.361-3.718 1.361-5.137 0a3.385 3.385 0 010-4.928zM205.122 336.238c1.419-1.361 3.719-1.361 5.138 0a3.386 3.386 0 010 4.928c-1.419 1.361-3.719 1.361-5.138 0a3.386 3.386 0 010-4.928zM205.122 350.177c1.419-1.361 3.719-1.361 5.138 0a3.386 3.386 0 010 4.928c-1.419 1.361-3.719 1.361-5.138 0a3.386 3.386 0 010-4.928zM205.122 364.116c1.419-1.361 3.719-1.361 5.138 0a3.386 3.386 0 010 4.928c-1.419 1.361-3.719 1.361-5.138 0a3.386 3.386 0 010-4.928zM205.122 391.993c1.419-1.361 3.719-1.361 5.138 0a3.387 3.387 0 010 4.929c-1.419 1.361-3.719 1.361-5.138 0a3.387 3.387 0 010-4.929zM205.122 378.055c1.419-1.361 3.719-1.361 5.138 0a3.386 3.386 0 010 4.928c-1.419 1.361-3.719 1.361-5.138 0a3.386 3.386 0 010-4.928zM205.122 405.933c1.419-1.361 3.719-1.361 5.138 0a3.386 3.386 0 010 4.928c-1.419 1.361-3.719 1.361-5.138 0a3.386 3.386 0 010-4.928zM190.592 350.177c1.419-1.361 3.719-1.361 5.138 0a3.386 3.386 0 010 4.928c-1.419 1.361-3.719 1.361-5.138 0a3.386 3.386 0 010-4.928zM190.592 364.116c1.419-1.361 3.719-1.361 5.138 0a3.386 3.386 0 010 4.928c-1.419 1.361-3.719 1.361-5.138 0a3.386 3.386 0 010-4.928zM176.062 364.116c1.418-1.361 3.718-1.361 5.137 0a3.385 3.385 0 010 4.928c-1.419 1.361-3.719 1.361-5.137 0a3.385 3.385 0 010-4.928zM190.592 378.055c1.419-1.361 3.719-1.361 5.138 0a3.386 3.386 0 010 4.928c-1.419 1.361-3.719 1.361-5.138 0a3.386 3.386 0 010-4.928zM161.531 378.055c1.419-1.361 3.719-1.361 5.137 0a3.385 3.385 0 010 4.928c-1.418 1.361-3.718 1.361-5.137 0a3.385 3.385 0 010-4.928zM176.062 378.055c1.418-1.361 3.718-1.361 5.137 0a3.385 3.385 0 010 4.928c-1.419 1.361-3.719 1.361-5.137 0a3.385 3.385 0 010-4.928zM147.001 378.055c1.419-1.361 3.719-1.361 5.137 0a3.385 3.385 0 010 4.928c-1.418 1.361-3.718 1.361-5.137 0a3.385 3.385 0 010-4.928zM132.471 364.116c1.419-1.361 3.719-1.361 5.137 0a3.385 3.385 0 010 4.928c-1.418 1.361-3.718 1.361-5.137 0a3.385 3.385 0 010-4.928zM132.471 350.177c1.419-1.361 3.719-1.361 5.137 0a3.385 3.385 0 010 4.928c-1.418 1.361-3.718 1.361-5.137 0a3.385 3.385 0 010-4.928zM147.001 350.177c1.419-1.361 3.719-1.361 5.137 0a3.385 3.385 0 010 4.928c-1.418 1.361-3.718 1.361-5.137 0a3.385 3.385 0 010-4.928zM147.001 336.238c1.419-1.361 3.719-1.361 5.137 0a3.385 3.385 0 010 4.928c-1.418 1.361-3.718 1.361-5.137 0a3.385 3.385 0 010-4.928zM132.471 336.238c1.419-1.361 3.719-1.361 5.137 0a3.385 3.385 0 010 4.928c-1.418 1.361-3.718 1.361-5.137 0a3.385 3.385 0 010-4.928zM132.471 322.298c1.419-1.361 3.719-1.361 5.137 0a3.386 3.386 0 010 4.929c-1.418 1.361-3.718 1.361-5.137 0a3.386 3.386 0 010-4.929zM117.94 322.298c1.419-1.361 3.719-1.361 5.138 0a3.387 3.387 0 010 4.929c-1.419 1.361-3.719 1.361-5.138 0a3.387 3.387 0 010-4.929zM117.94 308.358c1.419-1.361 3.719-1.361 5.138 0a3.387 3.387 0 010 4.929c-1.419 1.361-3.719 1.361-5.138 0a3.387 3.387 0 010-4.929zM132.471 308.358c1.419-1.361 3.719-1.361 5.137 0a3.386 3.386 0 010 4.929c-1.418 1.361-3.718 1.361-5.137 0a3.386 3.386 0 010-4.929zM117.94 294.421c1.419-1.361 3.719-1.361 5.138 0a3.386 3.386 0 010 4.928c-1.419 1.361-3.719 1.361-5.138 0a3.386 3.386 0 010-4.928zM103.41 294.421c1.419-1.361 3.719-1.361 5.137 0a3.385 3.385 0 010 4.928c-1.418 1.361-3.718 1.361-5.137 0a3.386 3.386 0 010-4.928zM88.88 336.238c1.418-1.361 3.718-1.361 5.137 0a3.385 3.385 0 010 4.928c-1.419 1.361-3.719 1.361-5.138 0a3.385 3.385 0 010-4.928zM103.41 336.238c1.419-1.361 3.719-1.361 5.137 0a3.385 3.385 0 010 4.928c-1.418 1.361-3.718 1.361-5.137 0a3.386 3.386 0 010-4.928zM88.88 350.177c1.418-1.361 3.718-1.361 5.137 0a3.385 3.385 0 010 4.928c-1.419 1.361-3.719 1.361-5.138 0a3.385 3.385 0 010-4.928zM132.471 391.993c1.419-1.361 3.719-1.361 5.137 0a3.386 3.386 0 010 4.929c-1.418 1.361-3.718 1.361-5.137 0a3.386 3.386 0 010-4.929zM161.531 405.933c1.419-1.361 3.719-1.361 5.137 0a3.385 3.385 0 010 4.928c-1.418 1.361-3.718 1.361-5.137 0a3.385 3.385 0 010-4.928zM147.001 391.993c1.419-1.361 3.719-1.361 5.137 0a3.386 3.386 0 010 4.929c-1.418 1.361-3.718 1.361-5.137 0a3.386 3.386 0 010-4.929zM147.001 405.933c1.419-1.361 3.719-1.361 5.137 0a3.385 3.385 0 010 4.928c-1.418 1.361-3.718 1.361-5.137 0a3.385 3.385 0 010-4.928zM147.001 419.872c1.419-1.361 3.719-1.361 5.137 0a3.385 3.385 0 010 4.928c-1.418 1.361-3.718 1.361-5.137 0a3.385 3.385 0 010-4.928zM132.471 433.811c1.419-1.361 3.719-1.361 5.137 0a3.385 3.385 0 010 4.928c-1.418 1.361-3.718 1.361-5.137 0a3.385 3.385 0 010-4.928zM132.471 419.872c1.419-1.361 3.719-1.361 5.137 0a3.385 3.385 0 010 4.928c-1.418 1.361-3.718 1.361-5.137 0a3.385 3.385 0 010-4.928zM117.94 433.811c1.419-1.361 3.719-1.361 5.138 0a3.386 3.386 0 010 4.928c-1.419 1.361-3.719 1.361-5.138 0a3.386 3.386 0 010-4.928zM103.41 433.811c1.419-1.361 3.719-1.361 5.137 0a3.385 3.385 0 010 4.928c-1.418 1.361-3.718 1.361-5.137 0a3.386 3.386 0 010-4.928zM88.88 433.811c1.418-1.361 3.718-1.361 5.137 0a3.385 3.385 0 010 4.928c-1.419 1.361-3.719 1.361-5.138 0a3.385 3.385 0 010-4.928zM103.41 447.75c1.419-1.361 3.719-1.361 5.137 0a3.386 3.386 0 010 4.929c-1.418 1.361-3.718 1.361-5.137 0a3.387 3.387 0 010-4.929zM103.41 461.689c1.419-1.361 3.719-1.361 5.137 0a3.386 3.386 0 010 4.929c-1.418 1.361-3.718 1.361-5.137 0a3.387 3.387 0 010-4.929zM88.88 461.689c1.418-1.361 3.718-1.361 5.137 0a3.386 3.386 0 010 4.929c-1.419 1.361-3.719 1.361-5.138 0a3.386 3.386 0 010-4.929zM74.349 475.627c1.418-1.361 3.718-1.361 5.137 0a3.385 3.385 0 010 4.928c-1.419 1.361-3.719 1.361-5.137 0a3.385 3.385 0 010-4.928zM88.88 475.627c1.418-1.361 3.718-1.361 5.137 0a3.385 3.385 0 010 4.928c-1.419 1.361-3.719 1.361-5.138 0a3.385 3.385 0 010-4.928zM88.88 489.567c1.418-1.361 3.718-1.361 5.137 0a3.385 3.385 0 010 4.928c-1.419 1.361-3.719 1.361-5.138 0a3.385 3.385 0 010-4.928zM103.41 475.627c1.419-1.361 3.719-1.361 5.137 0a3.385 3.385 0 010 4.928c-1.418 1.361-3.718 1.361-5.137 0a3.386 3.386 0 010-4.928zM117.94 475.627c1.419-1.361 3.719-1.361 5.138 0a3.386 3.386 0 010 4.928c-1.419 1.361-3.719 1.361-5.138 0a3.386 3.386 0 010-4.928zM117.94 489.567c1.419-1.361 3.719-1.361 5.138 0a3.386 3.386 0 010 4.928c-1.419 1.361-3.719 1.361-5.138 0a3.386 3.386 0 010-4.928zM132.471 475.627c1.419-1.361 3.719-1.361 5.137 0a3.385 3.385 0 010 4.928c-1.418 1.361-3.718 1.361-5.137 0a3.385 3.385 0 010-4.928zM147.001 475.627c1.419-1.361 3.719-1.361 5.137 0a3.385 3.385 0 010 4.928c-1.418 1.361-3.718 1.361-5.137 0a3.385 3.385 0 010-4.928zM117.94 461.689c1.419-1.361 3.719-1.361 5.138 0a3.387 3.387 0 010 4.929c-1.419 1.361-3.719 1.361-5.138 0a3.387 3.387 0 010-4.929zM132.471 447.75c1.419-1.361 3.719-1.361 5.137 0a3.386 3.386 0 010 4.929c-1.418 1.361-3.718 1.361-5.137 0a3.386 3.386 0 010-4.929zM147.001 447.75c1.419-1.361 3.719-1.361 5.137 0a3.386 3.386 0 010 4.929c-1.418 1.361-3.718 1.361-5.137 0a3.386 3.386 0 010-4.929zM161.531 447.75c1.419-1.361 3.719-1.361 5.137 0a3.386 3.386 0 010 4.929c-1.418 1.361-3.718 1.361-5.137 0a3.386 3.386 0 010-4.929zM147.001 433.811c1.419-1.361 3.719-1.361 5.137 0a3.385 3.385 0 010 4.928c-1.418 1.361-3.718 1.361-5.137 0a3.385 3.385 0 010-4.928zM161.531 433.811c1.419-1.361 3.719-1.361 5.137 0a3.385 3.385 0 010 4.928c-1.418 1.361-3.718 1.361-5.137 0a3.385 3.385 0 010-4.928zM161.531 419.872c1.419-1.361 3.719-1.361 5.137 0a3.385 3.385 0 010 4.928c-1.418 1.361-3.718 1.361-5.137 0a3.385 3.385 0 010-4.928zM190.592 419.872c1.419-1.361 3.719-1.361 5.138 0a3.386 3.386 0 010 4.928c-1.419 1.361-3.719 1.361-5.138 0a3.386 3.386 0 010-4.928zM190.592 433.811c1.419-1.361 3.719-1.361 5.138 0a3.386 3.386 0 010 4.928c-1.419 1.361-3.719 1.361-5.138 0a3.386 3.386 0 010-4.928zM205.122 419.872c1.419-1.361 3.719-1.361 5.138 0a3.386 3.386 0 010 4.928c-1.419 1.361-3.719 1.361-5.138 0a3.386 3.386 0 010-4.928zM219.653 419.872c1.419-1.361 3.719-1.361 5.137 0a3.385 3.385 0 010 4.928c-1.418 1.361-3.718 1.361-5.137 0a3.385 3.385 0 010-4.928zM219.653 433.811c1.419-1.361 3.719-1.361 5.137 0a3.385 3.385 0 010 4.928c-1.418 1.361-3.718 1.361-5.137 0a3.385 3.385 0 010-4.928zM234.184 433.811c1.418-1.361 3.718-1.361 5.137 0a3.385 3.385 0 010 4.928c-1.419 1.361-3.719 1.361-5.137 0a3.385 3.385 0 010-4.928zM234.184 447.75c1.418-1.361 3.718-1.361 5.137 0a3.386 3.386 0 010 4.929c-1.419 1.361-3.719 1.361-5.137 0a3.386 3.386 0 010-4.929zM248.714 447.75c1.418-1.361 3.718-1.361 5.137 0a3.386 3.386 0 010 4.929c-1.419 1.361-3.719 1.361-5.137 0a3.386 3.386 0 010-4.929zM248.714 461.689c1.418-1.361 3.718-1.361 5.137 0a3.386 3.386 0 010 4.929c-1.419 1.361-3.719 1.361-5.137 0a3.386 3.386 0 010-4.929zM263.244 461.689c1.419-1.361 3.719-1.361 5.138 0a3.387 3.387 0 010 4.929c-1.419 1.361-3.719 1.361-5.138 0a3.387 3.387 0 010-4.929zM263.244 475.627c1.419-1.361 3.719-1.361 5.138 0a3.386 3.386 0 010 4.928c-1.419 1.361-3.719 1.361-5.138 0a3.386 3.386 0 010-4.928zM248.714 489.567c1.418-1.361 3.718-1.361 5.137 0a3.385 3.385 0 010 4.928c-1.419 1.361-3.719 1.361-5.137 0a3.385 3.385 0 010-4.928zM176.062 419.872c1.418-1.361 3.718-1.361 5.137 0a3.385 3.385 0 010 4.928c-1.419 1.361-3.719 1.361-5.137 0a3.385 3.385 0 010-4.928zM176.062 405.933c1.418-1.361 3.718-1.361 5.137 0a3.385 3.385 0 010 4.928c-1.419 1.361-3.719 1.361-5.137 0a3.385 3.385 0 010-4.928zM190.592 405.933c1.419-1.361 3.719-1.361 5.138 0a3.386 3.386 0 010 4.928c-1.419 1.361-3.719 1.361-5.138 0a3.386 3.386 0 010-4.928zM176.062 391.993c1.418-1.361 3.718-1.361 5.137 0a3.386 3.386 0 010 4.929c-1.419 1.361-3.719 1.361-5.137 0a3.386 3.386 0 010-4.929zM190.592 391.993c1.419-1.361 3.719-1.361 5.138 0a3.387 3.387 0 010 4.929c-1.419 1.361-3.719 1.361-5.138 0a3.387 3.387 0 010-4.929zM161.531 391.993c1.419-1.361 3.719-1.361 5.137 0a3.386 3.386 0 010 4.929c-1.418 1.361-3.718 1.361-5.137 0a3.386 3.386 0 010-4.929zM132.471 461.689c1.419-1.361 3.719-1.361 5.137 0a3.386 3.386 0 010 4.929c-1.418 1.361-3.718 1.361-5.137 0a3.386 3.386 0 010-4.929zM147.001 461.689c1.419-1.361 3.719-1.361 5.137 0a3.386 3.386 0 010 4.929c-1.418 1.361-3.718 1.361-5.137 0a3.386 3.386 0 010-4.929zM117.94 447.75c1.419-1.361 3.719-1.361 5.138 0a3.387 3.387 0 010 4.929c-1.419 1.361-3.719 1.361-5.138 0a3.387 3.387 0 010-4.929z" fill="#006EB3"/><path d="M248.714 350.177c1.418-1.361 3.718-1.361 5.137 0a3.385 3.385 0 010 4.928c-1.419 1.361-3.719 1.361-5.137 0a3.385 3.385 0 010-4.928zM321.366 350.177c1.419-1.361 3.719-1.361 5.138 0a3.386 3.386 0 010 4.928c-1.419 1.361-3.719 1.361-5.138 0a3.386 3.386 0 010-4.928zM394.019 350.177c1.418-1.361 3.718-1.361 5.137 0a3.385 3.385 0 010 4.928c-1.419 1.361-3.719 1.361-5.137 0a3.385 3.385 0 010-4.928zM248.714 364.116c1.418-1.361 3.718-1.361 5.137 0a3.385 3.385 0 010 4.928c-1.419 1.361-3.719 1.361-5.137 0a3.385 3.385 0 010-4.928zM321.366 364.116c1.419-1.361 3.719-1.361 5.138 0a3.386 3.386 0 010 4.928c-1.419 1.361-3.719 1.361-5.138 0a3.386 3.386 0 010-4.928zM394.019 364.116c1.418-1.361 3.718-1.361 5.137 0a3.385 3.385 0 010 4.928c-1.419 1.361-3.719 1.361-5.137 0a3.385 3.385 0 010-4.928zM248.714 391.993c1.418-1.361 3.718-1.361 5.137 0a3.386 3.386 0 010 4.929c-1.419 1.361-3.719 1.361-5.137 0a3.386 3.386 0 010-4.929zM248.714 378.055c1.418-1.361 3.718-1.361 5.137 0a3.385 3.385 0 010 4.928c-1.419 1.361-3.719 1.361-5.137 0a3.385 3.385 0 010-4.928zM321.366 378.055c1.419-1.361 3.719-1.361 5.138 0a3.386 3.386 0 010 4.928c-1.419 1.361-3.719 1.361-5.138 0a3.386 3.386 0 010-4.928zM394.019 378.055c1.418-1.361 3.718-1.361 5.137 0a3.385 3.385 0 010 4.928c-1.419 1.361-3.719 1.361-5.137 0a3.385 3.385 0 010-4.928zM248.714 405.933c1.418-1.361 3.718-1.361 5.137 0a3.385 3.385 0 010 4.928c-1.419 1.361-3.719 1.361-5.137 0a3.385 3.385 0 010-4.928zM263.244 419.872c1.419-1.361 3.719-1.361 5.138 0a3.386 3.386 0 010 4.928c-1.419 1.361-3.719 1.361-5.138 0a3.386 3.386 0 010-4.928zM277.775 433.811c1.419-1.361 3.719-1.361 5.137 0a3.385 3.385 0 010 4.928c-1.418 1.361-3.718 1.361-5.137 0a3.385 3.385 0 010-4.928zM277.775 419.872c1.419-1.361 3.719-1.361 5.137 0a3.385 3.385 0 010 4.928c-1.418 1.361-3.718 1.361-5.137 0a3.385 3.385 0 010-4.928zM277.775 405.933c1.419-1.361 3.719-1.361 5.137 0a3.385 3.385 0 010 4.928c-1.418 1.361-3.718 1.361-5.137 0a3.385 3.385 0 010-4.928zM263.244 405.933c1.419-1.361 3.719-1.361 5.138 0a3.386 3.386 0 010 4.928c-1.419 1.361-3.719 1.361-5.138 0a3.386 3.386 0 010-4.928zM263.244 391.993c1.419-1.361 3.719-1.361 5.138 0a3.387 3.387 0 010 4.929c-1.419 1.361-3.719 1.361-5.138 0a3.387 3.387 0 010-4.929zM263.244 378.055c1.419-1.361 3.719-1.361 5.138 0a3.386 3.386 0 010 4.928c-1.419 1.361-3.719 1.361-5.138 0a3.386 3.386 0 010-4.928zM335.897 378.055c1.418-1.361 3.718-1.361 5.137 0a3.386 3.386 0 010 4.928c-1.419 1.361-3.719 1.361-5.137 0a3.385 3.385 0 010-4.928zM408.549 378.055c1.419-1.361 3.719-1.361 5.138 0a3.386 3.386 0 010 4.928c-1.419 1.361-3.719 1.361-5.138 0a3.386 3.386 0 010-4.928zM263.244 364.116c1.419-1.361 3.719-1.361 5.138 0a3.386 3.386 0 010 4.928c-1.419 1.361-3.719 1.361-5.138 0a3.386 3.386 0 010-4.928zM335.897 364.116c1.418-1.361 3.718-1.361 5.137 0a3.386 3.386 0 010 4.928c-1.419 1.361-3.719 1.361-5.137 0a3.385 3.385 0 010-4.928zM408.549 364.116c1.419-1.361 3.719-1.361 5.138 0a3.386 3.386 0 010 4.928c-1.419 1.361-3.719 1.361-5.138 0a3.386 3.386 0 010-4.928zM263.244 350.177c1.419-1.361 3.719-1.361 5.138 0a3.386 3.386 0 010 4.928c-1.419 1.361-3.719 1.361-5.138 0a3.386 3.386 0 010-4.928zM335.897 350.177c1.418-1.361 3.718-1.361 5.137 0a3.386 3.386 0 010 4.928c-1.419 1.361-3.719 1.361-5.137 0a3.385 3.385 0 010-4.928zM408.549 350.177c1.419-1.361 3.719-1.361 5.138 0a3.386 3.386 0 010 4.928c-1.419 1.361-3.719 1.361-5.138 0a3.386 3.386 0 010-4.928zM277.775 350.177c1.419-1.361 3.719-1.361 5.137 0a3.385 3.385 0 010 4.928c-1.418 1.361-3.718 1.361-5.137 0a3.385 3.385 0 010-4.928zM350.427 350.177c1.419-1.361 3.719-1.361 5.137 0a3.385 3.385 0 010 4.928c-1.418 1.361-3.718 1.361-5.137 0a3.386 3.386 0 010-4.928zM423.079 350.177c1.418-1.361 3.718-1.361 5.137 0a3.385 3.385 0 010 4.928c-1.419 1.361-3.719 1.361-5.137 0a3.385 3.385 0 010-4.928zM277.775 364.116c1.419-1.361 3.719-1.361 5.137 0a3.385 3.385 0 010 4.928c-1.418 1.361-3.718 1.361-5.137 0a3.385 3.385 0 010-4.928zM350.427 364.116c1.419-1.361 3.719-1.361 5.137 0a3.385 3.385 0 010 4.928c-1.418 1.361-3.718 1.361-5.137 0a3.386 3.386 0 010-4.928zM423.079 364.116c1.418-1.361 3.718-1.361 5.137 0a3.385 3.385 0 010 4.928c-1.419 1.361-3.719 1.361-5.137 0a3.385 3.385 0 010-4.928zM277.775 378.055c1.419-1.361 3.719-1.361 5.137 0a3.385 3.385 0 010 4.928c-1.418 1.361-3.718 1.361-5.137 0a3.385 3.385 0 010-4.928zM350.427 378.055c1.419-1.361 3.719-1.361 5.137 0a3.385 3.385 0 010 4.928c-1.418 1.361-3.718 1.361-5.137 0a3.386 3.386 0 010-4.928zM423.079 378.055c1.418-1.361 3.718-1.361 5.137 0a3.385 3.385 0 010 4.928c-1.419 1.361-3.719 1.361-5.137 0a3.385 3.385 0 010-4.928zM423.079 391.993c1.418-1.361 3.718-1.361 5.137 0a3.386 3.386 0 010 4.929c-1.419 1.361-3.719 1.361-5.137 0a3.386 3.386 0 010-4.929zM437.609 391.993c1.419-1.361 3.719-1.361 5.138 0a3.387 3.387 0 010 4.929c-1.419 1.361-3.719 1.361-5.138 0a3.387 3.387 0 010-4.929zM437.609 378.055c1.419-1.361 3.719-1.361 5.138 0a3.386 3.386 0 010 4.928c-1.419 1.361-3.719 1.361-5.138 0a3.386 3.386 0 010-4.928zM437.609 364.116c1.419-1.361 3.719-1.361 5.138 0a3.386 3.386 0 010 4.928c-1.419 1.361-3.719 1.361-5.138 0a3.386 3.386 0 010-4.928zM437.609 350.177c1.419-1.361 3.719-1.361 5.138 0a3.386 3.386 0 010 4.928c-1.419 1.361-3.719 1.361-5.138 0a3.386 3.386 0 010-4.928zM437.609 336.238c1.419-1.361 3.719-1.361 5.138 0a3.386 3.386 0 010 4.928c-1.419 1.361-3.719 1.361-5.138 0a3.386 3.386 0 010-4.928zM437.609 322.298c1.419-1.361 3.719-1.361 5.138 0a3.387 3.387 0 010 4.929c-1.419 1.361-3.719 1.361-5.138 0a3.387 3.387 0 010-4.929zM437.609 308.358c1.419-1.361 3.719-1.361 5.138 0a3.387 3.387 0 010 4.929c-1.419 1.361-3.719 1.361-5.138 0a3.387 3.387 0 010-4.929zM437.609 294.421c1.419-1.361 3.719-1.361 5.138 0a3.386 3.386 0 010 4.928c-1.419 1.361-3.719 1.361-5.138 0a3.386 3.386 0 010-4.928zM437.609 280.482c1.419-1.361 3.719-1.361 5.138 0a3.386 3.386 0 010 4.928c-1.419 1.361-3.719 1.361-5.138 0a3.386 3.386 0 010-4.928zM437.609 266.543c1.419-1.361 3.719-1.361 5.138 0a3.387 3.387 0 010 4.929c-1.419 1.361-3.719 1.361-5.138 0a3.387 3.387 0 010-4.929zM437.609 252.604c1.419-1.361 3.719-1.361 5.138 0a3.387 3.387 0 010 4.929c-1.419 1.361-3.719 1.361-5.138 0a3.387 3.387 0 010-4.929zM437.609 238.665c1.419-1.361 3.719-1.361 5.138 0a3.386 3.386 0 010 4.928c-1.419 1.361-3.719 1.361-5.138 0a3.386 3.386 0 010-4.928zM437.609 224.726c1.419-1.361 3.719-1.361 5.138 0a3.386 3.386 0 010 4.928c-1.419 1.361-3.719 1.361-5.138 0a3.386 3.386 0 010-4.928zM437.609 210.787c1.419-1.361 3.719-1.361 5.138 0a3.386 3.386 0 010 4.928c-1.419 1.361-3.719 1.361-5.138 0a3.386 3.386 0 010-4.928zM277.775 391.993c1.419-1.361 3.719-1.361 5.137 0a3.386 3.386 0 010 4.929c-1.418 1.361-3.718 1.361-5.137 0a3.386 3.386 0 010-4.929zM292.305 391.993c1.419-1.361 3.719-1.361 5.137 0a3.386 3.386 0 010 4.929c-1.418 1.361-3.718 1.361-5.137 0a3.387 3.387 0 010-4.929zM292.305 405.933c1.419-1.361 3.719-1.361 5.137 0a3.385 3.385 0 010 4.928c-1.418 1.361-3.718 1.361-5.137 0a3.386 3.386 0 010-4.928zM292.305 419.872c1.419-1.361 3.719-1.361 5.137 0a3.385 3.385 0 010 4.928c-1.418 1.361-3.718 1.361-5.137 0a3.386 3.386 0 010-4.928zM306.836 419.872c1.418-1.361 3.718-1.361 5.137 0a3.385 3.385 0 010 4.928c-1.419 1.361-3.719 1.361-5.137 0a3.385 3.385 0 010-4.928zM306.836 405.933c1.418-1.361 3.718-1.361 5.137 0a3.385 3.385 0 010 4.928c-1.419 1.361-3.719 1.361-5.137 0a3.385 3.385 0 010-4.928zM306.836 391.993c1.418-1.361 3.718-1.361 5.137 0a3.386 3.386 0 010 4.929c-1.419 1.361-3.719 1.361-5.137 0a3.386 3.386 0 010-4.929zM321.366 391.993c1.419-1.361 3.719-1.361 5.138 0a3.387 3.387 0 010 4.929c-1.419 1.361-3.719 1.361-5.138 0a3.387 3.387 0 010-4.929zM321.366 405.933c1.419-1.361 3.719-1.361 5.138 0a3.386 3.386 0 010 4.928c-1.419 1.361-3.719 1.361-5.138 0a3.386 3.386 0 010-4.928zM321.366 419.872c1.419-1.361 3.719-1.361 5.138 0a3.386 3.386 0 010 4.928c-1.419 1.361-3.719 1.361-5.138 0a3.386 3.386 0 010-4.928zM335.897 419.872c1.418-1.361 3.718-1.361 5.137 0a3.386 3.386 0 010 4.928c-1.419 1.361-3.719 1.361-5.137 0a3.385 3.385 0 010-4.928zM335.897 405.933c1.418-1.361 3.718-1.361 5.137 0a3.386 3.386 0 010 4.928c-1.419 1.361-3.719 1.361-5.137 0a3.385 3.385 0 010-4.928zM335.897 391.993c1.418-1.361 3.718-1.361 5.137 0a3.387 3.387 0 010 4.929c-1.419 1.361-3.719 1.361-5.137 0a3.386 3.386 0 010-4.929zM350.427 391.993c1.419-1.361 3.719-1.361 5.137 0a3.386 3.386 0 010 4.929c-1.418 1.361-3.718 1.361-5.137 0a3.387 3.387 0 010-4.929zM364.957 391.993c1.419-1.361 3.719-1.361 5.138 0a3.387 3.387 0 010 4.929c-1.419 1.361-3.719 1.361-5.138 0a3.387 3.387 0 010-4.929zM379.488 405.933c1.419-1.361 3.719-1.361 5.137 0a3.385 3.385 0 010 4.928c-1.418 1.361-3.718 1.361-5.137 0a3.385 3.385 0 010-4.928zM379.488 419.872c1.419-1.361 3.719-1.361 5.137 0a3.385 3.385 0 010 4.928c-1.418 1.361-3.718 1.361-5.137 0a3.385 3.385 0 010-4.928zM364.957 433.811c1.419-1.361 3.719-1.361 5.138 0a3.386 3.386 0 010 4.928c-1.419 1.361-3.719 1.361-5.138 0a3.386 3.386 0 010-4.928zM379.488 391.993c1.419-1.361 3.719-1.361 5.137 0a3.386 3.386 0 010 4.929c-1.418 1.361-3.718 1.361-5.137 0a3.386 3.386 0 010-4.929zM394.019 391.993c1.418-1.361 3.718-1.361 5.137 0a3.386 3.386 0 010 4.929c-1.419 1.361-3.719 1.361-5.137 0a3.386 3.386 0 010-4.929zM408.549 391.993c1.419-1.361 3.719-1.361 5.138 0a3.387 3.387 0 010 4.929c-1.419 1.361-3.719 1.361-5.138 0a3.387 3.387 0 010-4.929zM408.549 405.933c1.419-1.361 3.719-1.361 5.138 0a3.386 3.386 0 010 4.928c-1.419 1.361-3.719 1.361-5.138 0a3.386 3.386 0 010-4.928zM408.549 419.872c1.419-1.361 3.719-1.361 5.138 0a3.386 3.386 0 010 4.928c-1.419 1.361-3.719 1.361-5.138 0a3.386 3.386 0 010-4.928zM423.079 419.872c1.418-1.361 3.718-1.361 5.137 0a3.385 3.385 0 010 4.928c-1.419 1.361-3.719 1.361-5.137 0a3.385 3.385 0 010-4.928zM466.67 350.177c1.419-1.361 3.719-1.361 5.137 0a3.385 3.385 0 010 4.928c-1.418 1.361-3.718 1.361-5.137 0a3.385 3.385 0 010-4.928zM495.731 350.177c1.419-1.361 3.719-1.361 5.138 0a3.386 3.386 0 010 4.928c-1.419 1.361-3.719 1.361-5.138 0a3.386 3.386 0 010-4.928zM524.792 350.177c1.419-1.361 3.719-1.361 5.137 0a3.385 3.385 0 010 4.928c-1.418 1.361-3.718 1.361-5.137 0a3.385 3.385 0 010-4.928zM466.67 252.604c1.419-1.361 3.719-1.361 5.137 0a3.386 3.386 0 010 4.929c-1.418 1.361-3.718 1.361-5.137 0a3.386 3.386 0 010-4.929zM495.731 252.604c1.419-1.361 3.719-1.361 5.138 0a3.387 3.387 0 010 4.929c-1.419 1.361-3.719 1.361-5.138 0a3.387 3.387 0 010-4.929zM524.792 252.604c1.419-1.361 3.719-1.361 5.137 0a3.386 3.386 0 010 4.929c-1.418 1.361-3.718 1.361-5.137 0a3.386 3.386 0 010-4.929zM466.67 238.665c1.419-1.361 3.719-1.361 5.137 0a3.385 3.385 0 010 4.928c-1.418 1.361-3.718 1.361-5.137 0a3.385 3.385 0 010-4.928zM495.731 238.665c1.419-1.361 3.719-1.361 5.138 0a3.386 3.386 0 010 4.928c-1.419 1.361-3.719 1.361-5.138 0a3.386 3.386 0 010-4.928zM524.792 238.665c1.419-1.361 3.719-1.361 5.137 0a3.385 3.385 0 010 4.928c-1.418 1.361-3.718 1.361-5.137 0a3.385 3.385 0 010-4.928zM466.67 224.726c1.419-1.361 3.719-1.361 5.137 0a3.385 3.385 0 010 4.928c-1.418 1.361-3.718 1.361-5.137 0a3.385 3.385 0 010-4.928zM466.67 210.787c1.419-1.361 3.719-1.361 5.137 0a3.385 3.385 0 010 4.928c-1.418 1.361-3.718 1.361-5.137 0a3.385 3.385 0 010-4.928zM495.731 224.726c1.419-1.361 3.719-1.361 5.138 0a3.386 3.386 0 010 4.928c-1.419 1.361-3.719 1.361-5.138 0a3.386 3.386 0 010-4.928zM495.731 210.787c1.419-1.361 3.719-1.361 5.138 0a3.386 3.386 0 010 4.928c-1.419 1.361-3.719 1.361-5.138 0a3.386 3.386 0 010-4.928zM524.792 224.726c1.419-1.361 3.719-1.361 5.137 0a3.385 3.385 0 010 4.928c-1.418 1.361-3.718 1.361-5.137 0a3.385 3.385 0 010-4.928zM524.792 210.787c1.419-1.361 3.719-1.361 5.137 0a3.385 3.385 0 010 4.928c-1.418 1.361-3.718 1.361-5.137 0a3.385 3.385 0 010-4.928zM466.67 322.298c1.419-1.361 3.719-1.361 5.137 0a3.386 3.386 0 010 4.929c-1.418 1.361-3.718 1.361-5.137 0a3.386 3.386 0 010-4.929zM495.731 322.298c1.419-1.361 3.719-1.361 5.138 0a3.387 3.387 0 010 4.929c-1.419 1.361-3.719 1.361-5.138 0a3.387 3.387 0 010-4.929zM524.792 322.298c1.419-1.361 3.719-1.361 5.137 0a3.386 3.386 0 010 4.929c-1.418 1.361-3.718 1.361-5.137 0a3.386 3.386 0 010-4.929zM452.14 350.177c1.419-1.361 3.719-1.361 5.137 0a3.385 3.385 0 010 4.928c-1.418 1.361-3.718 1.361-5.137 0a3.385 3.385 0 010-4.928zM539.323 350.177c1.418-1.361 3.718-1.361 5.137 0a3.385 3.385 0 010 4.928c-1.419 1.361-3.719 1.361-5.137 0a3.385 3.385 0 010-4.928zM553.853 350.177c1.418-1.361 3.718-1.361 5.137 0a3.385 3.385 0 010 4.928c-1.419 1.361-3.719 1.361-5.137 0a3.385 3.385 0 010-4.928zM481.201 350.177c1.418-1.361 3.718-1.361 5.137 0a3.385 3.385 0 010 4.928c-1.419 1.361-3.719 1.361-5.137 0a3.385 3.385 0 010-4.928zM510.261 350.177c1.419-1.361 3.719-1.361 5.138 0a3.386 3.386 0 010 4.928c-1.419 1.361-3.719 1.361-5.138 0a3.386 3.386 0 010-4.928zM452.14 252.604c1.419-1.361 3.719-1.361 5.137 0a3.386 3.386 0 010 4.929c-1.418 1.361-3.718 1.361-5.137 0a3.386 3.386 0 010-4.929zM539.323 252.604c1.418-1.361 3.718-1.361 5.137 0a3.386 3.386 0 010 4.929c-1.419 1.361-3.719 1.361-5.137 0a3.386 3.386 0 010-4.929zM481.201 252.604c1.418-1.361 3.718-1.361 5.137 0a3.386 3.386 0 010 4.929c-1.419 1.361-3.719 1.361-5.137 0a3.386 3.386 0 010-4.929zM510.261 252.604c1.419-1.361 3.719-1.361 5.138 0a3.387 3.387 0 010 4.929c-1.419 1.361-3.719 1.361-5.138 0a3.387 3.387 0 010-4.929zM452.14 238.665c1.419-1.361 3.719-1.361 5.137 0a3.385 3.385 0 010 4.928c-1.418 1.361-3.718 1.361-5.137 0a3.385 3.385 0 010-4.928zM539.323 238.665c1.418-1.361 3.718-1.361 5.137 0a3.385 3.385 0 010 4.928c-1.419 1.361-3.719 1.361-5.137 0a3.385 3.385 0 010-4.928zM481.201 238.665c1.418-1.361 3.718-1.361 5.137 0a3.385 3.385 0 010 4.928c-1.419 1.361-3.719 1.361-5.137 0a3.385 3.385 0 010-4.928zM510.261 238.665c1.419-1.361 3.719-1.361 5.138 0a3.386 3.386 0 010 4.928c-1.419 1.361-3.719 1.361-5.138 0a3.386 3.386 0 010-4.928zM452.14 224.726c1.419-1.361 3.719-1.361 5.137 0a3.385 3.385 0 010 4.928c-1.418 1.361-3.718 1.361-5.137 0a3.385 3.385 0 010-4.928zM452.14 210.787c1.419-1.361 3.719-1.361 5.137 0a3.385 3.385 0 010 4.928c-1.418 1.361-3.718 1.361-5.137 0a3.385 3.385 0 010-4.928zM539.323 224.726c1.418-1.361 3.718-1.361 5.137 0a3.385 3.385 0 010 4.928c-1.419 1.361-3.719 1.361-5.137 0a3.385 3.385 0 010-4.928zM539.323 210.787c1.418-1.361 3.718-1.361 5.137 0a3.385 3.385 0 010 4.928c-1.419 1.361-3.719 1.361-5.137 0a3.385 3.385 0 010-4.928zM481.201 224.726c1.418-1.361 3.718-1.361 5.137 0a3.385 3.385 0 010 4.928c-1.419 1.361-3.719 1.361-5.137 0a3.385 3.385 0 010-4.928zM481.201 210.787c1.418-1.361 3.718-1.361 5.137 0a3.385 3.385 0 010 4.928c-1.419 1.361-3.719 1.361-5.137 0a3.385 3.385 0 010-4.928zM510.261 224.726c1.419-1.361 3.719-1.361 5.138 0a3.386 3.386 0 010 4.928c-1.419 1.361-3.719 1.361-5.138 0a3.386 3.386 0 010-4.928zM510.261 210.787c1.419-1.361 3.719-1.361 5.138 0a3.386 3.386 0 010 4.928c-1.419 1.361-3.719 1.361-5.138 0a3.386 3.386 0 010-4.928zM452.14 419.872c1.419-1.361 3.719-1.361 5.137 0a3.385 3.385 0 010 4.928c-1.418 1.361-3.718 1.361-5.137 0a3.385 3.385 0 010-4.928zM452.14 322.298c1.419-1.361 3.719-1.361 5.137 0a3.386 3.386 0 010 4.929c-1.418 1.361-3.718 1.361-5.137 0a3.386 3.386 0 010-4.929zM539.323 322.298c1.418-1.361 3.718-1.361 5.137 0a3.386 3.386 0 010 4.929c-1.419 1.361-3.719 1.361-5.137 0a3.386 3.386 0 010-4.929zM481.201 322.298c1.418-1.361 3.718-1.361 5.137 0a3.386 3.386 0 010 4.929c-1.419 1.361-3.719 1.361-5.137 0a3.386 3.386 0 010-4.929zM510.261 322.298c1.419-1.361 3.719-1.361 5.138 0a3.387 3.387 0 010 4.929c-1.419 1.361-3.719 1.361-5.138 0a3.387 3.387 0 010-4.929zM452.14 364.116c1.419-1.361 3.719-1.361 5.137 0a3.385 3.385 0 010 4.928c-1.418 1.361-3.718 1.361-5.137 0a3.385 3.385 0 010-4.928zM539.323 364.116c1.418-1.361 3.718-1.361 5.137 0a3.385 3.385 0 010 4.928c-1.419 1.361-3.719 1.361-5.137 0a3.385 3.385 0 010-4.928zM481.201 364.116c1.418-1.361 3.718-1.361 5.137 0a3.385 3.385 0 010 4.928c-1.419 1.361-3.719 1.361-5.137 0a3.385 3.385 0 010-4.928zM452.14 266.543c1.419-1.361 3.719-1.361 5.137 0a3.386 3.386 0 010 4.929c-1.418 1.361-3.718 1.361-5.137 0a3.386 3.386 0 010-4.929zM539.323 266.543c1.418-1.361 3.718-1.361 5.137 0a3.386 3.386 0 010 4.929c-1.419 1.361-3.719 1.361-5.137 0a3.386 3.386 0 010-4.929zM481.201 266.543c1.418-1.361 3.718-1.361 5.137 0a3.386 3.386 0 010 4.929c-1.419 1.361-3.719 1.361-5.137 0a3.386 3.386 0 010-4.929zM510.261 266.543c1.419-1.361 3.719-1.361 5.138 0a3.387 3.387 0 010 4.929c-1.419 1.361-3.719 1.361-5.138 0a3.387 3.387 0 010-4.929zM452.14 336.238c1.419-1.361 3.719-1.361 5.137 0a3.385 3.385 0 010 4.928c-1.418 1.361-3.718 1.361-5.137 0a3.385 3.385 0 010-4.928zM539.323 336.238c1.418-1.361 3.718-1.361 5.137 0a3.385 3.385 0 010 4.928c-1.419 1.361-3.719 1.361-5.137 0a3.385 3.385 0 010-4.928zM481.201 336.238c1.418-1.361 3.718-1.361 5.137 0a3.385 3.385 0 010 4.928c-1.419 1.361-3.719 1.361-5.137 0a3.385 3.385 0 010-4.928zM510.261 336.238c1.419-1.361 3.719-1.361 5.138 0a3.386 3.386 0 010 4.928c-1.419 1.361-3.719 1.361-5.138 0a3.386 3.386 0 010-4.928zM452.14 378.055c1.419-1.361 3.719-1.361 5.137 0a3.385 3.385 0 010 4.928c-1.418 1.361-3.718 1.361-5.137 0a3.385 3.385 0 010-4.928zM481.201 378.055c1.418-1.361 3.718-1.361 5.137 0a3.385 3.385 0 010 4.928c-1.419 1.361-3.719 1.361-5.137 0a3.385 3.385 0 010-4.928zM452.14 280.482c1.419-1.361 3.719-1.361 5.137 0a3.385 3.385 0 010 4.928c-1.418 1.361-3.718 1.361-5.137 0a3.385 3.385 0 010-4.928zM539.323 280.482c1.418-1.361 3.718-1.361 5.137 0a3.385 3.385 0 010 4.928c-1.419 1.361-3.719 1.361-5.137 0a3.385 3.385 0 010-4.928zM481.201 280.482c1.418-1.361 3.718-1.361 5.137 0a3.385 3.385 0 010 4.928c-1.419 1.361-3.719 1.361-5.137 0a3.385 3.385 0 010-4.928zM510.261 280.482c1.419-1.361 3.719-1.361 5.138 0a3.386 3.386 0 010 4.928c-1.419 1.361-3.719 1.361-5.138 0a3.386 3.386 0 010-4.928zM466.67 364.116c1.419-1.361 3.719-1.361 5.137 0a3.385 3.385 0 010 4.928c-1.418 1.361-3.718 1.361-5.137 0a3.385 3.385 0 010-4.928zM553.853 364.116c1.418-1.361 3.718-1.361 5.137 0a3.385 3.385 0 010 4.928c-1.419 1.361-3.719 1.361-5.137 0a3.385 3.385 0 010-4.928zM466.67 266.543c1.419-1.361 3.719-1.361 5.137 0a3.386 3.386 0 010 4.929c-1.418 1.361-3.718 1.361-5.137 0a3.386 3.386 0 010-4.929zM495.731 266.543c1.419-1.361 3.719-1.361 5.138 0a3.387 3.387 0 010 4.929c-1.419 1.361-3.719 1.361-5.138 0a3.387 3.387 0 010-4.929zM524.792 266.543c1.419-1.361 3.719-1.361 5.137 0a3.386 3.386 0 010 4.929c-1.418 1.361-3.718 1.361-5.137 0a3.386 3.386 0 010-4.929zM466.67 433.811c1.419-1.361 3.719-1.361 5.137 0a3.385 3.385 0 010 4.928c-1.418 1.361-3.718 1.361-5.137 0a3.385 3.385 0 010-4.928zM466.67 336.238c1.419-1.361 3.719-1.361 5.137 0a3.385 3.385 0 010 4.928c-1.418 1.361-3.718 1.361-5.137 0a3.385 3.385 0 010-4.928zM495.731 336.238c1.419-1.361 3.719-1.361 5.138 0a3.386 3.386 0 010 4.928c-1.419 1.361-3.719 1.361-5.138 0a3.386 3.386 0 010-4.928zM524.792 336.238c1.419-1.361 3.719-1.361 5.137 0a3.385 3.385 0 010 4.928c-1.418 1.361-3.718 1.361-5.137 0a3.385 3.385 0 010-4.928zM466.67 378.055c1.419-1.361 3.719-1.361 5.137 0a3.385 3.385 0 010 4.928c-1.418 1.361-3.718 1.361-5.137 0a3.385 3.385 0 010-4.928zM466.67 280.482c1.419-1.361 3.719-1.361 5.137 0a3.385 3.385 0 010 4.928c-1.418 1.361-3.718 1.361-5.137 0a3.385 3.385 0 010-4.928zM495.731 280.482c1.419-1.361 3.719-1.361 5.138 0a3.386 3.386 0 010 4.928c-1.419 1.361-3.719 1.361-5.138 0a3.386 3.386 0 010-4.928zM524.792 280.482c1.419-1.361 3.719-1.361 5.137 0a3.385 3.385 0 010 4.928c-1.418 1.361-3.718 1.361-5.137 0a3.385 3.385 0 010-4.928zM437.609 405.933c1.419-1.361 3.719-1.361 5.138 0a3.386 3.386 0 010 4.928c-1.419 1.361-3.719 1.361-5.138 0a3.386 3.386 0 010-4.928zM423.079 405.933c1.418-1.361 3.718-1.361 5.137 0a3.385 3.385 0 010 4.928c-1.419 1.361-3.719 1.361-5.137 0a3.385 3.385 0 010-4.928zM350.427 405.933c1.419-1.361 3.719-1.361 5.137 0a3.385 3.385 0 010 4.928c-1.418 1.361-3.718 1.361-5.137 0a3.386 3.386 0 010-4.928zM292.305 447.75c1.419-1.361 3.719-1.361 5.137 0a3.386 3.386 0 010 4.929c-1.418 1.361-3.718 1.361-5.137 0a3.387 3.387 0 010-4.929zM292.305 461.689c1.419-1.361 3.719-1.361 5.137 0a3.386 3.386 0 010 4.929c-1.418 1.361-3.718 1.361-5.137 0a3.387 3.387 0 010-4.929zM306.836 461.689c1.418-1.361 3.718-1.361 5.137 0a3.386 3.386 0 010 4.929c-1.419 1.361-3.719 1.361-5.137 0a3.386 3.386 0 010-4.929zM306.836 475.627c1.418-1.361 3.718-1.361 5.137 0a3.385 3.385 0 010 4.928c-1.419 1.361-3.719 1.361-5.137 0a3.385 3.385 0 010-4.928zM306.836 447.75c1.418-1.361 3.718-1.361 5.137 0a3.386 3.386 0 010 4.929c-1.419 1.361-3.719 1.361-5.137 0a3.386 3.386 0 010-4.929zM321.366 447.75c1.419-1.361 3.719-1.361 5.138 0a3.387 3.387 0 010 4.929c-1.419 1.361-3.719 1.361-5.138 0a3.387 3.387 0 010-4.929zM321.366 433.811c1.419-1.361 3.719-1.361 5.138 0a3.386 3.386 0 010 4.928c-1.419 1.361-3.719 1.361-5.138 0a3.386 3.386 0 010-4.928zM292.305 433.811c1.419-1.361 3.719-1.361 5.137 0a3.385 3.385 0 010 4.928c-1.418 1.361-3.718 1.361-5.137 0a3.386 3.386 0 010-4.928zM306.836 433.811c1.418-1.361 3.718-1.361 5.137 0a3.385 3.385 0 010 4.928c-1.419 1.361-3.719 1.361-5.137 0a3.385 3.385 0 010-4.928zM292.305 252.604c1.419-1.361 3.719-1.361 5.137 0a3.386 3.386 0 010 4.929c-1.418 1.361-3.718 1.361-5.137 0a3.387 3.387 0 010-4.929zM306.836 266.543c1.418-1.361 3.718-1.361 5.137 0a3.386 3.386 0 010 4.929c-1.419 1.361-3.719 1.361-5.137 0a3.386 3.386 0 010-4.929zM292.305 196.848c1.419-1.361 3.719-1.361 5.137 0a3.386 3.386 0 010 4.929c-1.418 1.361-3.718 1.361-5.137 0a3.387 3.387 0 010-4.929zM292.305 182.909c1.419-1.361 3.719-1.361 5.137 0a3.386 3.386 0 010 4.929c-1.418 1.361-3.718 1.361-5.137 0a3.387 3.387 0 010-4.929zM321.366 155.031c1.419-1.361 3.719-1.361 5.138 0a3.386 3.386 0 010 4.928c-1.419 1.361-3.719 1.361-5.138 0a3.386 3.386 0 010-4.928zM481.201 182.909c1.418-1.361 3.718-1.361 5.137 0a3.386 3.386 0 010 4.929c-1.419 1.361-3.719 1.361-5.137 0a3.386 3.386 0 010-4.929zM510.261 182.909c1.419-1.361 3.719-1.361 5.138 0a3.387 3.387 0 010 4.929c-1.419 1.361-3.719 1.361-5.138 0a3.387 3.387 0 010-4.929zM524.792 182.909c1.419-1.361 3.719-1.361 5.137 0a3.386 3.386 0 010 4.929c-1.418 1.361-3.718 1.361-5.137 0a3.386 3.386 0 010-4.929zM553.853 182.909c1.418-1.361 3.718-1.361 5.137 0a3.386 3.386 0 010 4.929c-1.419 1.361-3.719 1.361-5.137 0a3.386 3.386 0 010-4.929zM539.323 182.909c1.418-1.361 3.718-1.361 5.137 0a3.386 3.386 0 010 4.929c-1.419 1.361-3.719 1.361-5.137 0a3.386 3.386 0 010-4.929zM495.731 182.909c1.419-1.361 3.719-1.361 5.138 0a3.387 3.387 0 010 4.929c-1.419 1.361-3.719 1.361-5.138 0a3.387 3.387 0 010-4.929zM568.384 182.909c1.418-1.361 3.718-1.361 5.137 0a3.387 3.387 0 010 4.929c-1.419 1.361-3.719 1.361-5.137 0a3.386 3.386 0 010-4.929zM582.914 182.909c1.419-1.361 3.719-1.361 5.137 0a3.386 3.386 0 010 4.929c-1.418 1.361-3.718 1.361-5.137 0a3.386 3.386 0 010-4.929zM1.697 196.848c1.418-1.361 3.718-1.361 5.137 0a3.385 3.385 0 010 4.928c-1.419 1.361-3.719 1.361-5.137 0a3.385 3.385 0 010-4.928zM16.227 210.786c1.419-1.36 3.72-1.36 5.138 0a3.386 3.386 0 010 4.929c-1.419 1.361-3.719 1.361-5.138 0a3.386 3.386 0 010-4.929zM30.758 210.786c1.418-1.36 3.718-1.36 5.137 0a3.386 3.386 0 010 4.929c-1.419 1.361-3.719 1.361-5.138 0a3.386 3.386 0 010-4.929zM30.758 196.848c1.418-1.361 3.718-1.361 5.137 0a3.385 3.385 0 010 4.928c-1.419 1.361-3.719 1.361-5.138 0a3.385 3.385 0 010-4.928zM16.227 196.848c1.419-1.361 3.72-1.361 5.138 0a3.385 3.385 0 010 4.928c-1.419 1.361-3.719 1.361-5.138 0a3.385 3.385 0 010-4.928zM45.288 196.848c1.419-1.361 3.719-1.361 5.137 0a3.385 3.385 0 010 4.928c-1.418 1.361-3.718 1.361-5.137 0a3.385 3.385 0 010-4.928zM45.288 182.909c1.419-1.361 3.719-1.361 5.137 0a3.385 3.385 0 010 4.928c-1.418 1.361-3.718 1.361-5.137 0a3.385 3.385 0 010-4.928zM59.819 196.848c1.418-1.361 3.718-1.361 5.137 0a3.385 3.385 0 010 4.928c-1.419 1.361-3.719 1.361-5.137 0a3.385 3.385 0 010-4.928zM45.288 210.786c1.419-1.36 3.719-1.36 5.137 0a3.386 3.386 0 010 4.929c-1.418 1.361-3.718 1.361-5.137 0a3.386 3.386 0 010-4.929zM30.758 224.726c1.418-1.361 3.718-1.361 5.137 0a3.385 3.385 0 010 4.928c-1.419 1.361-3.719 1.361-5.138 0a3.385 3.385 0 010-4.928zM88.88 141.091c1.418-1.36 3.718-1.36 5.137 0a3.386 3.386 0 010 4.929c-1.419 1.36-3.719 1.36-5.138 0a3.386 3.386 0 010-4.929zM219.653 29.58c1.419-1.361 3.719-1.361 5.137 0a3.385 3.385 0 010 4.928c-1.418 1.36-3.718 1.36-5.137 0a3.385 3.385 0 010-4.928zM234.184 29.58c1.418-1.361 3.718-1.361 5.137 0a3.385 3.385 0 010 4.928c-1.419 1.36-3.719 1.36-5.137 0a3.385 3.385 0 010-4.928zM248.714 29.58c1.418-1.361 3.718-1.361 5.137 0a3.385 3.385 0 010 4.928c-1.419 1.36-3.719 1.36-5.137 0a3.385 3.385 0 010-4.928zM248.714 43.518c1.418-1.36 3.718-1.36 5.137 0a3.385 3.385 0 010 4.928c-1.419 1.361-3.719 1.361-5.137 0a3.385 3.385 0 010-4.928zM248.714 57.457c1.418-1.36 3.718-1.36 5.137 0a3.385 3.385 0 010 4.928c-1.419 1.361-3.719 1.361-5.137 0a3.385 3.385 0 010-4.928zM234.184 43.518c1.418-1.36 3.718-1.36 5.137 0a3.385 3.385 0 010 4.928c-1.419 1.361-3.719 1.361-5.137 0a3.385 3.385 0 010-4.928zM263.244 43.518c1.419-1.36 3.719-1.36 5.138 0a3.386 3.386 0 010 4.928c-1.419 1.361-3.719 1.361-5.138 0a3.386 3.386 0 010-4.928zM277.775 43.518c1.419-1.36 3.719-1.36 5.137 0a3.385 3.385 0 010 4.928c-1.418 1.361-3.718 1.361-5.137 0a3.385 3.385 0 010-4.928zM292.305 57.457c1.419-1.36 3.719-1.36 5.137 0a3.385 3.385 0 010 4.928c-1.418 1.361-3.718 1.361-5.137 0a3.386 3.386 0 010-4.928zM277.775 15.64c1.419-1.36 3.719-1.36 5.137 0a3.385 3.385 0 010 4.929c-1.418 1.36-3.718 1.36-5.137 0a3.385 3.385 0 010-4.928zM292.305 15.64c1.419-1.36 3.719-1.36 5.137 0a3.385 3.385 0 010 4.929c-1.418 1.36-3.718 1.36-5.137 0a3.386 3.386 0 010-4.928zM306.836 1.701c1.418-1.36 3.718-1.36 5.137 0a3.385 3.385 0 010 4.928c-1.419 1.361-3.719 1.361-5.137 0a3.385 3.385 0 010-4.928zM495.731 378.055c1.419-1.361 3.719-1.361 5.138 0a3.386 3.386 0 010 4.928c-1.419 1.361-3.719 1.361-5.138 0a3.386 3.386 0 010-4.928z" fill="#006EB3"/></svg>
