<?xml version="1.0" encoding="UTF-8"?>
<svg width="48px" height="48px" viewBox="0 0 48 48" version="1.1" xmlns="http://www.w3.org/2000/svg" xmlns:xlink="http://www.w3.org/1999/xlink">
    <title>06 Icon/Cat/Alle cat</title>
    <g id="06-Icon/Cat/Alle-cat." stroke="none" stroke-width="1" fill="none" fill-rule="evenodd">
        <path d="M11,19 C13.7614237,19 16,21.2385763 16,24 C16,26.7614237 13.7614237,29 11,29 C8.23857625,29 6,26.7614237 6,24 C6,21.2385763 8.23857625,19 11,19 Z M24,19 C26.7614237,19 29,21.2385763 29,24 C29,26.7614237 26.7614237,29 24,29 C21.2385763,29 19,26.7614237 19,24 C19,21.2385763 21.2385763,19 24,19 Z M37,19 C39.7614237,19 42,21.2385763 42,24 C42,26.7614237 39.7614237,29 37,29 C34.2385763,29 32,26.7614237 32,24 C32,21.2385763 34.2385763,19 37,19 Z M11,20.5 C9.06700338,20.5 7.5,22.0670034 7.5,24 C7.5,25.9329966 9.06700338,27.5 11,27.5 C12.9329966,27.5 14.5,25.9329966 14.5,24 C14.5,22.0670034 12.9329966,20.5 11,20.5 Z M24,20.5 C22.0670034,20.5 20.5,22.0670034 20.5,24 C20.5,25.9329966 22.0670034,27.5 24,27.5 C25.9329966,27.5 27.5,25.9329966 27.5,24 C27.5,22.0670034 25.9329966,20.5 24,20.5 Z M37,20.5 C35.0670034,20.5 33.5,22.0670034 33.5,24 C33.5,25.9329966 35.0670034,27.5 37,27.5 C38.9329966,27.5 40.5,25.9329966 40.5,24 C40.5,22.0670034 38.9329966,20.5 37,20.5 Z" id="Combined-Shape" fill="#006EB3"></path>
    </g>
</svg>