<?xml version="1.0" encoding="UTF-8"?>
<svg width="48px" height="48px" viewBox="0 0 48 48" version="1.1" xmlns="http://www.w3.org/2000/svg" xmlns:xlink="http://www.w3.org/1999/xlink">
    <!-- Generator: Sketch 64 (93537) - https://sketch.com -->
    <title>06 Icon/Cat/Art</title>
    <desc>Created with Sketch.</desc>
    <g id="06-Icon/Cat/Art" stroke="none" stroke-width="1" fill="none" fill-rule="evenodd">
        <path d="M23.6068866,1.21958837 C23.9028405,0.927355489 24.3787538,0.926248843 24.6735057,1.21960017 L24.6735057,1.21960017 L32.2369165,8.70646042 L38.6693935,8.70497197 C39.0889682,8.70478473 39.4285356,9.04453675 39.4287228,9.46411148 L39.4287228,9.46411148 L39.4393613,42.230452 C39.4400357,42.6484818 39.1013414,42.9900812 38.6802218,42.9897813 L38.6802218,42.9897813 L9.76948175,43 C9.35039412,42.9986424 9.01033964,42.6604352 9.0101524,42.2408605 L9.0101524,42.2408605 L9.000001,9.47297513 C8.99932667,9.05494527 9.3390787,8.71537788 9.75865342,8.71519064 L9.75865342,8.71519064 L16.0486974,8.71295278 Z M37.9103489,10.2235357 L10.5170199,10.2315326 L10.5285263,41.4814362 L37.9223424,41.4718945 L37.9103489,10.2235357 Z M34.8732244,13.0880029 C35.2923121,13.0893605 35.6308217,13.4270806 35.6305218,13.8482002 L35.6305218,13.8482002 L35.6394851,37.941757 C35.6401594,38.3597869 35.2988625,38.6988672 34.8808327,38.6995415 L34.8808327,38.6995415 L13.6786908,38.7064015 C13.2606609,38.7070758 12.9195487,38.3668367 12.9193614,37.947262 L12.9193614,37.947262 L12.911943,13.8541922 C12.9112687,13.4361624 13.2515078,13.0950501 13.6705955,13.0964077 L13.6705955,13.0964077 Z M34.112635,14.6060796 L14.4305068,14.6132368 L14.4372483,37.1893826 L34.1209213,37.1827124 L34.1201329,31.954653 L29.8552012,31.9550929 L29.8570709,35.051946 C29.8572582,35.4715207 29.5159613,35.810601 29.0979314,35.8112753 L29.0979314,35.8112753 L22.3514031,35.8122535 C21.9318284,35.8124408 21.592261,35.4726887 21.5915867,35.0546589 L21.5915867,35.0546589 L21.5895186,29.8737524 C21.2166529,29.9735891 20.8266958,30.0306712 20.421999,30.0321525 C17.8778845,30.0316619 15.8077037,27.9624341 15.8061623,25.4193773 C15.8051081,22.8747757 17.8743359,20.8045949 20.4189376,20.8035406 C22.9619943,20.8019993 25.03372,22.8717143 25.0347742,25.4163159 C25.0338289,25.4839556 25.0277618,25.5516788 25.0247845,25.6203763 L25.0247845,25.6203763 L25.4443592,25.620189 L25.4435472,22.5253679 C25.44336,22.1057932 25.7820542,21.7641939 26.2011418,21.7655515 L26.2011418,21.7655515 L34.116723,21.7629134 L34.112635,14.6060796 Z M28.335964,27.1365546 L24.6991348,27.138015 C24.3677266,27.957476 23.8079841,28.6607839 23.0979979,29.167257 C23.1021598,29.2025381 23.1083536,29.2367615 23.1094258,29.2710684 L23.1094258,29.2710684 L23.1099606,34.2952346 L28.3369623,34.2924143 L28.335964,27.1365546 Z M34.1173999,23.2798374 L26.9610532,23.2823806 L26.9612832,25.6195121 L29.0929766,25.6190486 C29.5125513,25.6188614 29.8521187,25.9586134 29.852306,26.3781881 L29.852306,26.3781881 L29.8545242,30.4381689 L34.1199431,30.4361841 L34.1173999,23.2798374 Z M20.4196145,22.3204646 C18.7121304,22.3222022 17.3228936,23.7117033 17.3251183,25.4176426 C17.3253109,27.1246396 18.7148121,28.5138764 20.4218092,28.5136837 C22.1288062,28.513491 23.5164981,27.1235028 23.5163054,25.4165057 C23.5161127,23.7095087 22.1266115,22.320272 20.4196145,22.3204646 Z M24.1413198,2.82667665 L18.2059993,8.71207137 L30.0811595,8.70782892 L24.1413198,2.82667665 Z" id="Art" fill="#006EB3"></path>
    </g>
</svg>