<?xml version="1.0" encoding="UTF-8"?>
<svg width="48px" height="48px" viewBox="0 0 48 48" version="1.1" xmlns="http://www.w3.org/2000/svg" xmlns:xlink="http://www.w3.org/1999/xlink">
    <!-- Generator: Sketch 64 (93537) - https://sketch.com -->
    <title>06 Icon/Cat/Fiets</title>
    <desc>Created with Sketch.</desc>
    <g id="06-Icon/Cat/Fiets" stroke="none" stroke-width="1" fill="none" fill-rule="evenodd">
        <path d="M46.4510502,29.9371354 C46.4515732,34.1095518 43.05752,37.503131 38.8864,37.5031822 C34.71528,37.5032333 31.3217008,34.1091801 31.3211778,29.9367637 C31.3225752,27.0806181 32.916525,24.5903477 35.2617896,23.3050923 L38.2372633,30.2457875 C38.3631187,30.5391326 38.6490092,30.715502 38.9484028,30.715178 C39.0509509,30.7145584 39.1551433,30.6942538 39.2543788,30.6522622 C39.6469594,30.4844153 39.8291723,30.0290238 39.6595571,29.6356187 L36.690923,22.7056477 C37.3865387,22.495042 38.1222585,22.3784858 38.8873628,22.3789675 C43.0584827,22.3789163 46.4506463,25.7690802 46.4510502,29.9371354 L46.4510502,29.9371354 Z M25.1250078,26.2810369 C24.601939,26.0338966 24.0214975,25.8913253 23.4047936,25.8911536 C22.9718516,25.8916348 22.5551962,25.9610661 22.1631923,26.0861255 L19.2504439,18.8054703 L31.8519717,18.8055267 L25.1250078,26.2810369 Z M25.9058066,29.9389497 C25.9059777,31.3189896 24.7831108,32.4412219 23.4043673,32.4409212 C22.0256239,32.4406205 20.9033916,31.3177535 20.9036923,29.9390101 C20.9026966,28.5607386 22.0242671,27.4389781 23.4047788,27.4401034 C24.7835222,27.4404041 25.9065791,28.5615028 25.9058066,29.9389497 L25.9058066,29.9389497 Z M19.4313666,29.165264 L18.1866434,29.1661025 C17.9917099,26.8556422 16.9293146,24.791907 15.3272347,23.2945857 L17.9167374,19.6388617 L20.7990528,26.8439702 C20.1062586,27.4294067 19.6116732,28.2407444 19.4313666,29.165264 L19.4313666,29.165264 Z M16.63899,29.1656158 L11.1659793,29.1667581 L14.4265989,24.5635026 C15.6435052,25.764962 16.4564679,27.3733151 16.63899,29.1656158 L16.63899,29.1656158 Z M9.11240369,37.501824 C4.94258018,37.5014032 1.54900096,34.10735 1.54894983,29.9362301 C1.54927974,26.6576332 3.65352469,23.8671115 6.58149949,22.8234387 L8.91658532,29.7916689 C8.88233427,29.9597638 8.89853504,30.1373915 8.9809738,30.295315 C9.11283007,30.5527076 9.37867804,30.7143489 9.6675809,30.7134386 L16.6376788,30.7150375 C16.2467605,34.5219319 13.0207881,37.5019682 9.11240369,37.501824 L9.11240369,37.501824 Z M8.09203264,22.4557056 C8.42594894,22.4090479 8.76552766,22.3779476 9.11336646,22.3776093 C10.6256583,22.3777527 12.0319987,22.8290218 13.2164797,23.5944839 L9.99485846,28.1394993 L8.09203264,22.4557056 Z M7.23576793,19.9014462 L12.965032,19.902468 L15.1987252,20.7955114 L14.1115771,22.3305193 C12.6751516,21.3851416 10.9591318,20.8292939 9.11338124,20.8286594 C8.59533603,20.8292837 8.087915,20.8833006 7.5926434,20.9666639 L7.23576793,19.9014462 Z M14.1482613,14.8235062 C13.393114,14.6123852 12.6856066,13.6689143 12.2115217,12.8504363 L18.3614688,12.849566 L17.6114021,13.479339 C17.0741579,13.9274092 15.2833392,15.1385958 14.1482613,14.8235062 L14.1482613,14.8235062 Z M38.8860811,20.8304895 C37.90539,20.8306608 36.964822,20.9894753 36.0783949,21.2768717 L32.8706713,13.7908534 C33.4801209,13.5734365 34.2414551,13.1803462 34.7373704,12.4815754 C35.1812084,11.8575505 35.3283221,11.0919315 35.1622341,10.2685299 C35.0055882,9.48720572 34.5889664,8.87097831 33.9547033,8.48372159 C32.6320649,7.67751666 30.7912712,8.09791781 30.3813459,8.206009 L26.5658671,8.68298137 C26.141781,8.73603073 25.8407333,9.12309174 25.8942545,9.54847432 C25.9455356,9.97173588 26.3329493,10.2697188 26.7579792,10.2192623 L30.6282663,9.7355551 C30.667398,9.73012147 30.7060579,9.72339139 30.7433022,9.71277197 C31.1733796,9.59147323 32.4444417,9.37256464 33.1502667,9.80718462 C33.4148182,9.96929785 33.5724843,10.2128918 33.6442559,10.5714359 C33.7255888,10.9764185 33.6713476,11.3074177 33.4776478,11.5819977 C33.0511306,12.1850363 32.0467078,12.4507791 31.6967622,12.5018028 C31.458907,12.5340519 31.2485488,12.6781529 31.1294424,12.88741 C31.0103359,13.0966671 30.9972093,13.3510378 31.0927508,13.5731974 L32.6711936,17.2564532 L18.6311618,17.2572925 L17.8249151,15.2398053 C18.2364419,14.9666935 18.5220942,14.7349917 18.6052909,14.6650693 L20.9874759,12.6704521 C21.2370659,12.460685 21.3293759,12.117298 21.218015,11.8113364 C21.1066541,11.5053747 20.8152156,11.3016607 20.4896547,11.3026997 L10.9624521,11.3024441 C10.7053742,11.3020484 10.4657792,11.4303633 10.3222738,11.6411599 C10.1779439,11.8537248 10.1482018,12.1229522 10.2429234,12.3630286 C10.3792838,12.7054052 11.6368037,15.7287929 13.7320249,16.3139966 C14.0020911,16.3904156 14.2766234,16.4226315 14.5529145,16.4233751 C15.2080447,16.4242428 15.8645335,16.235219 16.4555849,15.983389 L17.2318705,17.926626 L16.0816874,19.5506455 C16.0085859,19.4788833 15.9218145,19.4179693 15.820315,19.3770978 L13.4008343,18.4092608 C13.3094729,18.3720403 13.2121059,18.354624 13.113919,18.3551245 L2.46894031,18.3535483 C2.04083139,18.3552068 1.69498006,18.6998473 1.69404572,19.1288999 C1.6952324,19.5557124 2.03987287,19.9015637 2.46892553,19.9024981 L5.60348321,19.902399 L6.08966014,21.3551402 C2.54846079,22.6058583 0.00130721857,25.9745526 -7.80708831e-13,29.9362153 C-0.000168393144,34.9619039 4.08799671,39.0501335 9.11368536,39.0503019 C13.875342,39.0511375 17.7898332,35.3771064 18.1861568,30.7137559 L19.4313518,30.7142138 C19.7938847,32.577538 21.4368408,33.9895082 23.4043526,33.9898711 C25.6363682,33.9908632 27.4542362,32.1722766 27.4547564,29.9389645 C27.453384,28.8823645 27.0434972,27.9215966 26.3787248,27.2004188 L33.5280019,19.2555375 L34.6519735,21.8797337 C31.75467,23.4070243 29.7749697,26.4429179 29.7748209,29.9358051 C29.7746525,34.9614938 33.861993,39.0514917 38.8859133,39.0508355 C43.911602,39.0510039 47.9998316,34.9628388 48,29.9371502 C48.0002876,24.9158227 43.9117697,20.8306579 38.8860811,20.8304895 L38.8860811,20.8304895 Z" id="Fiets" fill="#006EB3"></path>
    </g>
</svg>