<?xml version="1.0" encoding="UTF-8"?>
<svg width="48px" height="48px" viewBox="0 0 48 48" version="1.1" xmlns="http://www.w3.org/2000/svg" xmlns:xlink="http://www.w3.org/1999/xlink">
    <!-- Generator: Sketch 64 (93537) - https://sketch.com -->
    <title>06 Icon/Cat/Auto</title>
    <desc>Created with Sketch.</desc>
    <g id="06-Icon/Cat/Auto" stroke="none" stroke-width="1" fill="none" fill-rule="evenodd">
        <path d="M34.0203962,29.9050334 C34.0072008,27.9696227 35.5711358,26.3859665 37.5046344,26.3736628 C39.4400451,26.3604674 41.0228096,27.9224903 41.034603,29.8573907 C41.0469068,31.7908893 39.4838634,33.3764576 37.5503648,33.3887613 C35.6182683,33.4015753 34.0326999,31.8385319 34.0203962,29.9050334 L34.0203962,29.9050334 Z M32.4672327,29.1079281 L15.6193198,29.2200996 C15.2144497,26.7817296 13.0838067,24.9234473 10.5342754,24.9401581 C7.98614609,24.9573792 5.87874466,26.8433461 5.50710533,29.2864582 L1.93697091,29.3111532 C1.78732835,29.3122563 1.66321462,29.1908744 1.66262184,29.0398299 L1.61207717,21.492697 C1.61148439,21.3416525 1.73235603,21.2189407 1.88340054,21.2183479 L32.0874824,21.017066 C32.3022589,21.0158547 32.5057167,20.9279649 32.6575704,20.7768378 L33.3667345,20.0585348 C33.3944024,20.030501 33.4197766,20.0000447 33.442347,19.9685678 C37.1325491,20.3860793 43.0741935,21.4880967 44.4547319,22.8510894 C44.4721893,22.868557 46.1123924,24.5912009 46.3876396,28.7335932 C46.3953864,28.8300854 46.3454008,28.8976264 46.3167124,28.9284641 C46.2870034,28.9621057 46.2189213,29.0182971 46.1155482,29.0187764 L42.5780452,29.0410592 C42.174577,26.6031995 40.0425321,24.7444069 37.4944027,24.761628 C34.9448715,24.7783388 32.838872,26.664816 32.4672327,29.1079281 L32.4672327,29.1079281 Z M10.5916394,33.5678017 C8.65814092,33.5801054 7.07397452,32.0175723 7.06218105,30.0826718 C7.04707342,28.1481528 8.61100851,26.5644966 10.544507,26.5521929 C12.4799178,26.5389975 14.0640842,28.1015306 14.0777899,30.0355394 C14.0895833,31.9704399 12.5265399,33.5560082 10.5916394,33.5678017 L10.5916394,33.5678017 Z M6.43777363,16.5570733 L6.45676789,19.5757987 L3.32944307,19.5965454 C3.94534668,18.7331613 4.96413004,17.5480505 6.43777363,16.5570733 L6.43777363,16.5570733 Z M12.623753,14.6758779 L18.2883729,14.6371422 L18.3212275,19.4978477 L8.06880268,19.565567 L8.04433436,15.6589289 C9.32079813,15.0788361 10.841299,14.6875889 12.623753,14.6758779 L12.623753,14.6758779 Z M22.3271912,14.6115657 C22.3762645,14.6119625 27.0996667,14.6640857 31.9988086,19.1494437 L31.7444426,19.4077373 L19.9323706,19.4857038 L19.9004077,14.6269105 L22.3271912,14.6115657 Z M42.5882768,30.653094 L46.1257798,30.6308112 C46.6431556,30.6270124 47.14428,30.4061383 47.498741,30.0255092 C47.846955,29.648957 48.0293783,29.139029 47.9961334,28.6284002 C47.6782555,23.8179587 45.6767824,21.7923549 45.591279,21.708841 C43.4303806,19.5759933 35.3455382,18.560784 33.5052795,18.3561722 C27.9741677,13.0247796 22.5491985,12.9983247 22.3183615,13.0000411 L12.6116091,13.0647348 C5.64558394,13.1108621 2.19886382,18.2229195 1.35857645,19.6809825 C0.571676138,19.9105673 -0.00569454265,20.6419105 4.23767011e-05,21.5029286 L0.0505870467,29.0500615 C0.0580558407,30.0895291 0.908245192,30.9292549 1.94771281,30.9217861 L5.51733697,30.898493 C5.92169683,33.338265 8.05285009,35.1951453 10.6023814,35.1784345 C13.1514023,35.1631257 15.259314,33.2757568 15.6295514,30.8321344 L32.4774643,30.7199629 C32.8804222,33.1592246 35.0129774,35.0166152 37.5611067,34.9993942 C40.1101277,34.9840853 42.2175292,33.0981184 42.5882768,30.653094 L42.5882768,30.653094 Z" id="Auto" fill="#006EB3"></path>
    </g>
</svg>