<?xml version="1.0" encoding="UTF-8"?>
<svg width="48px" height="48px" viewBox="0 0 48 48" version="1.1" xmlns="http://www.w3.org/2000/svg" xmlns:xlink="http://www.w3.org/1999/xlink">
    <title>06 Icon/Cat/BBQ</title>
    <g id="06-Icon/Cat/BBQ" stroke="none" stroke-width="1" fill="none" fill-rule="evenodd">
        <path d="M31.3721515,13.7185984 L31.3721515,15.2348018 L11.5735632,16.5942049 C12.5293279,24.8892236 19.4102691,28.9170326 25.6008573,28.4928317 C27.4587397,28.3660847 29.3203115,27.8307857 31.0122523,26.9222206 L31.3721515,26.7218277 L31.3721515,31.6190387 L29.9970926,29.0430329 C28.6276809,29.5708341 27.180622,29.9012348 25.7067397,30.0020351 C24.2608103,30.1015753 22.7817185,29.981119 21.3363609,29.6478105 L20.8559162,29.528834 L19.092622,33.7988436 L31.3721515,32.8398415 L31.3721515,34.3560449 L18.444622,35.3654471 L18.2921515,35.737848 C19.5921515,36.4492051 20.5836329,37.6663134 20.974028,39.1403211 L21.036622,39.4030562 L31.3721515,38.6932546 L31.3721515,40.2094581 L21.1382691,40.9108596 C20.9519162,43.5918657 18.7975632,45.8010706 16.0192103,45.9914711 C12.9839162,46.1986715 10.3439162,43.9194664 10.1335632,40.9094596 C9.92321028,37.8966528 12.222975,35.278647 15.2582691,35.0714465 C15.7009985,35.0412064 16.1355962,35.0647265 16.5548338,35.1348386 L16.8662691,35.1960468 L19.4017985,29.062633 C14.8186917,27.3401148 10.9319159,23.3283693 10.1023502,17.0905658 L10.0545044,16.6978051 L8.81497498,16.7818053 C8.3942691,16.8112054 8.03003381,16.4962047 8.00179851,16.0804037 C7.97462204,15.6992529 8.2392691,15.3639813 8.6065289,15.288104 L8.70909263,15.2740019 L10.6912103,15.1382016 L31.3721515,13.7185984 Z M41.1720668,13.8001654 C41.1975868,14.184366 40.9377085,14.5212936 40.5757771,14.5975303 L40.474676,14.6116983 L39.253894,14.6960865 C39.3541178,18.7242153 38.053992,22.4597985 35.5456121,25.2811764 C34.4686699,26.4943736 33.1870364,27.5066606 31.7779094,28.2887871 L31.390499,28.4963658 L39.245542,43.4654214 C39.4404217,43.8367294 39.2998299,44.2966449 38.9337345,44.4935506 C38.8376867,44.54559 38.7360709,44.5723129 38.634455,44.5793453 C38.3835474,44.5978052 38.1337056,44.4859689 37.9781825,44.2739876 L37.9175762,44.177095 L35.7432758,40.0322292 L31.373795,40.3374331 L31.373795,38.8142265 L34.9707171,38.5624685 L32.7588328,34.3472792 L31.373795,34.4569838 L31.373795,32.9337773 L31.991842,32.8845509 L31.373795,31.7073359 L31.373795,26.7875053 C35.0119202,24.6476713 37.7663819,20.6737287 37.7594838,15.1772788 L37.7547125,14.8001653 L31.373795,15.2474226 L31.373795,13.724216 L38.4159114,13.2319517 L40.3702762,13.0955241 C40.7850915,13.0659883 41.1428349,13.3810375 41.1720668,13.8001654 Z M15.609959,36.5700907 L15.3627397,36.5792499 C13.1674456,36.7290502 11.502975,38.6260545 11.6540338,40.8058594 C11.8079162,42.9828643 13.7180338,44.633468 15.9147397,44.4836677 C18.1128573,44.3310673 19.7745044,42.4368631 19.6234456,40.2584582 C19.5167653,38.7278286 18.5420818,37.4623475 17.2121327,36.894517 L17.028622,36.8214504 L17.0201515,36.8186504 L17.0116809,36.8144504 C16.6466388,36.6804501 16.2578273,36.5978785 15.8539926,36.5759193 L15.609959,36.5700907 Z M26.9284123,4.11172915 L26.9886421,4.28481296 L31.1384958,3.99655098 L31.1390757,3.99170991 L31.3789198,3.97615545 C34.537569,3.75415097 37.4339325,5.78754238 38.2642701,8.80652059 C38.5265558,9.75392827 38.6934649,10.7352729 38.7607896,11.7236878 C38.7877896,12.1086606 38.524861,12.447294 38.1589057,12.5228429 L38.0566857,12.5367616 L31.1390757,13.0203637 L31.1384958,12.979551 L10.5661721,14.400403 C10.1809693,14.4261997 9.84434776,14.1646856 9.76810972,13.7979425 L9.75393244,13.6954495 C9.68483567,12.7118916 9.71726885,11.7227054 9.84700157,10.7532185 C10.2492992,7.74318782 12.7291347,5.3854879 15.7908371,5.06215279 L16.0403288,5.04042179 L20.6655822,4.71960463 C20.9095361,3.27170616 22.122255,2.11789007 23.6550753,2.01235811 C25.1226767,1.91122332 26.4309839,2.80255797 26.9284123,4.11172915 Z M31.713805,5.48821519 L31.4855172,5.49907795 L31.1390757,5.52311665 L31.1384958,5.52055098 L16.144679,6.55586071 C13.7649826,6.71943525 11.800828,8.46103549 11.3919364,10.7329497 L11.3572596,10.9544328 C11.294861,11.4177181 11.2578449,11.8873353 11.2462112,12.3591291 L11.2430384,12.8314945 L31.2585407,11.4483223 L31.2584958,11.480551 L37.1758546,11.0675727 C37.1158936,10.5977574 37.0314747,10.1311238 36.9225981,9.67244414 L36.8055689,9.21659257 C36.1846128,6.96455502 34.0657019,5.42779453 31.713805,5.48821519 Z M23.9156229,3.52417972 L23.7594255,3.52779704 C23.1281175,3.57325696 22.6049478,3.95082409 22.3363194,4.47457002 L22.27455,4.6084443 L25.3782642,4.3945662 C25.106216,3.92546311 24.6241657,3.5963949 24.068801,3.53437714 L23.9156229,3.52417972 Z" id="Combined-Shape" fill="#006EB3" transform="translate(24.586838, 24.004551) rotate(3.000000) translate(-24.586838, -24.004551) "></path>
    </g>
</svg>