<?xml version="1.0" encoding="UTF-8"?>
<svg width="48px" height="48px" viewBox="0 0 48 48" version="1.1" xmlns="http://www.w3.org/2000/svg" xmlns:xlink="http://www.w3.org/1999/xlink">
    <title>06 Icon/Cat/Mobiel</title>
    <g id="06-Icon/Cat/Mobiel" stroke="none" stroke-width="1" fill="none" fill-rule="evenodd">
        <path d="M13.8046491,40.3476694 L13.7785832,37.22286 L34.335025,37.0477448 L34.362649,40.1721657 C34.3771375,41.8964 32.9885283,43.3101106 31.2658521,43.3242106 L16.9555243,43.4464129 C15.2344063,43.4601244 13.818749,42.0703455 13.8046491,40.3476694 L13.8046491,40.3476694 Z M13.5956287,12.5072996 L34.1540172,12.3333541 L34.3508546,35.4927002 L13.7928546,35.6682039 L13.5956287,12.5072996 Z M13.5822753,7.8282214 C13.5681753,6.10554528 14.9583427,4.69144615 16.6821885,4.67539951 L30.9894,4.5539742 C32.7136343,4.53948573 34.1277335,5.92965311 34.1418334,7.65232923 L34.1678993,10.7771386 L13.6098993,10.9526423 L13.5822753,7.8282214 Z M30.9498317,3.00018089 C33.5293678,2.9776649 35.6456498,5.0599918 35.6681658,7.63952783 L35.6681658,7.63952783 L35.945937,40.1577246 C35.9672833,42.7392073 33.8869031,44.856659 31.3054204,44.8780053 L31.3054204,44.8780053 L16.9966507,44.9998191 C14.4171147,45.0223351 12.3008326,42.9400082 12.2783167,40.3604722 L12.2783167,40.3604722 L12.0001569,7.84071725 C11.9791991,5.26079273 14.0599679,3.14489917 16.641062,3.12199469 L16.641062,3.12199469 Z M24.0620567,37.8563293 C22.7374306,37.8671758 21.6695694,38.9543161 21.6792462,40.2808889 C21.6916509,41.6051266 22.7787912,42.6729877 24.1034174,42.6621412 C25.4280435,42.6512948 26.4974628,41.5637659 26.4850582,40.2395283 C26.4757699,38.9145136 25.388241,37.8450943 24.0620567,37.8563293 Z M24.0708319,38.7610954 C24.8965327,38.7538281 25.5757526,39.4202675 25.5818503,40.247915 C25.5891175,41.0736158 24.9207315,41.751666 24.0950307,41.7589333 C23.2693298,41.7662006 22.5912796,41.0978146 22.5840123,40.2721137 C22.5767451,39.4464129 23.2431844,38.767193 24.0708319,38.7610954 Z M27.1086192,6.93569824 L20.6050576,6.99156412 C20.17546,6.99440821 19.8293803,7.34549967 19.8353407,7.77432021 C19.8381848,8.20391774 20.1892762,8.5499975 20.6184853,8.54559525 L27.1204888,8.49011787 C27.5496978,8.48571562 27.8957775,8.13462416 27.8913753,7.70541512 C27.8889197,7.27737575 27.5378282,6.931296 27.1086192,6.93569824 Z" id="Mobiel" fill="#006EB3" transform="translate(23.973050, 24.000000) rotate(0.100000) translate(-23.973050, -24.000000) "></path>
    </g>
</svg>