<?xml version="1.0" encoding="UTF-8"?>
<svg width="48px" height="48px" viewBox="0 0 48 48" version="1.1" xmlns="http://www.w3.org/2000/svg" xmlns:xlink="http://www.w3.org/1999/xlink">
    <title>06 Icon/Cat/Bank</title>
    <g id="06-Icon/Cat/Bank" stroke="none" stroke-width="1" fill="none" fill-rule="evenodd">
        <path d="M41.390482,29.9045362 C41.5231715,29.9045595 41.6545625,29.8897408 41.7849435,29.8633784 C42.6937002,29.6725367 43.3503681,28.8656468 43.3455898,27.9471298 L43.316575,22.0289347 C43.3136757,21.3046754 43.9051812,20.712864 44.6369687,20.7070014 L45.0330818,20.7039188 C45.7650136,20.6997052 46.3619918,21.2839179 46.3665579,22.0080314 L46.4118956,31.5108054 C46.4146591,31.849556 46.1382268,32.1263232 45.795885,32.1296866 L2.25607193,32.4193887 C1.91525274,32.4209572 1.63606886,32.1479334 1.63511654,31.8106862 L1.58630088,22.3065547 C1.58340157,21.5822953 2.17490707,20.990484 2.90669461,20.9846213 L3.30295201,20.9831878 C4.03640638,20.9771793 4.63352881,21.5630411 4.63628384,22.2856513 L4.66544293,28.2054955 C4.67016022,29.2768968 5.55552207,30.1432986 6.63994088,30.1364958 L41.390482,29.9045362 Z M6.23416146,24.4041423 L21.9057689,24.300952 C22.6140766,24.2954819 23.196133,24.862721 23.2006347,25.5668994 L23.2131773,28.4555455 L6.63194413,28.5668634 C6.42367017,28.566806 6.2529287,28.4006157 6.25337336,28.1945226 L6.23416146,24.4041423 Z M41.7401143,24.1675766 L41.7576593,27.9581027 C41.7606434,28.1073971 41.6702204,28.2449228 41.529246,28.3037848 C41.4823507,28.3245049 41.4344455,28.3336812 41.3824852,28.3349037 L24.8011078,28.4445725 L24.7868983,25.5560723 C24.7823966,24.8518939 25.3585323,24.2763828 26.0703179,24.2722701 L41.7401143,24.1675766 Z M6.18556641,14.7105546 C6.17729636,13.0994028 7.49783437,11.7791186 9.12772411,11.7677982 L38.723217,11.5697533 C40.3531067,11.5584329 41.6847717,12.8610422 41.693186,14.473843 L41.7321175,22.5979441 L26.0621769,22.7009885 C25.9699241,22.7024127 25.8831047,22.7083467 25.7515694,22.7215162 C25.6683722,22.7304568 25.5856078,22.7443446 25.4585604,22.7704154 C25.3744178,22.7877473 25.2923748,22.8098806 25.1942406,22.8400687 C25.1174867,22.8650628 25.0410213,22.8933551 24.9340403,22.937611 C24.8596746,22.9707048 24.7872643,23.006951 24.6715809,23.0669238 C24.6027927,23.1061765 24.5326263,23.1488733 24.437522,23.2136925 C24.3741672,23.2574551 24.3111009,23.3045158 24.2311423,23.3696718 C24.1685089,23.4216798 24.1093535,23.4750453 24.0180801,23.5644554 C24.0074223,23.5770199 23.9950976,23.5897302 23.9826286,23.6007915 C23.9624179,23.5809573 23.9402517,23.5579706 23.9146077,23.5336266 C23.8575977,23.4771304 23.7958757,23.4243699 23.7143759,23.3567225 C23.6530868,23.3089094 23.5902751,23.2628911 23.4975403,23.2012118 C23.4298724,23.1572802 23.360682,23.1151435 23.2478009,23.053565 C23.1757097,23.0166673 23.1022401,22.9832136 22.9924687,22.9379804 C22.9192877,22.9078249 22.8430616,22.8812592 22.7480676,22.8513504 C22.6686522,22.8267256 22.584669,22.8074855 22.4546716,22.7806391 C22.3727881,22.7662005 22.291049,22.753411 22.1640168,22.7412607 C22.0758989,22.7323528 21.986547,22.728538 21.8976279,22.7296705 L6.2261647,22.8345098 L6.18556641,14.7105546 Z M42.5483192,36.2274754 C42.5170212,36.3880777 42.227665,36.3635413 42.2265718,36.1974642 L42.2149509,33.7225076 L43.0426135,33.7182273 L42.5483192,36.2274754 Z M5.86628724,36.4406435 C5.8673804,36.6067205 5.57764056,36.6353929 5.54502192,36.4737357 L5.02714812,33.9716162 L5.85299952,33.9658326 L5.86628724,36.4406435 Z M2.89869786,19.4149889 C1.29228802,19.4259168 -0.00802397988,20.7278142 3.7280142e-05,22.3173818 L0.0470418334,31.82001 C0.0533003786,33.0242146 1.04877148,33.997304 2.26406868,33.9890212 L3.40725937,33.9820617 L3.99073878,36.7925078 C4.1568771,37.5972041 4.88125571,38.1785793 5.7121076,38.1723582 C6.67731582,38.1660146 7.45716965,37.3849053 7.45255084,36.4298164 L7.43926312,33.9550055 L40.6286873,33.7333347 L40.6403082,36.2082913 C40.644927,37.1633803 41.4345242,37.9334717 42.3980656,37.9272739 C43.2290618,37.922702 43.9465895,37.3314972 44.1061246,36.5248959 L44.6606911,33.7062786 L45.8038818,33.6993191 C47.0208458,33.6908904 48.0062289,32.7056862 47.9999704,31.5014816 L47.9528215,21.9972043 C47.9464271,20.4074909 46.6314949,19.1233584 45.0250851,19.1342863 L44.6288277,19.1357198 C44.1622748,19.1399799 43.7117674,19.2508485 43.3038304,19.4643431 L43.2794497,14.4630159 C43.2675402,11.9847611 41.219588,9.98208605 38.7152202,10.0001209 L9.11958307,10.1965166 C6.61340421,10.2130482 4.58739336,12.2431268 4.59930281,14.7213817 L4.62353926,19.7210597 C4.2124365,19.5144144 3.7631749,19.4091495 3.29481098,19.4119063 L2.89869786,19.4149889 Z" id="Bank" fill="#006EB3"></path>
    </g>
</svg>