<?xml version="1.0" encoding="UTF-8"?>
<svg width="48px" height="48px" viewBox="0 0 48 48" version="1.1" xmlns="http://www.w3.org/2000/svg" xmlns:xlink="http://www.w3.org/1999/xlink">
    <title>06 Icon/Cat/Ring</title>
    <g id="06-Icon/Cat/Ring" stroke="none" stroke-width="1" fill="none" fill-rule="evenodd">
        <path d="M11.488485,25.7406601 C12.3942135,19.9711957 16.9908975,15.5150905 22.6922343,14.8623372 L23.979177,16.7784733 C18.7527238,16.8499971 14.2557486,20.766283 13.4263313,26.0448394 C12.4906262,32.0073229 16.5095587,37.6089784 22.3854083,38.5310385 C28.2612578,39.4530987 33.8023638,35.3518588 34.7395841,29.3893488 C35.5783387,24.0378751 32.4407881,18.9134424 27.4000104,17.2917028 L29.1995402,15.8370353 L29.268282,15.8676654 C34.5385422,18.2190056 37.5843304,23.9043389 36.6759152,29.6935545 C35.5697408,36.7442657 29.0201023,41.5936843 22.0757763,40.5038415 C15.1314503,39.4139987 10.3823106,32.7913712 11.488485,25.7406601 L11.488485,25.7406601 Z M21.4572817,10.6277651 L23.7994286,10.9961259 L24.431114,15.0563108 L21.4572817,10.6277651 Z M23.4673471,7.42786599 L25.8079522,7.79473796 L24.1267061,9.6868982 L21.5246839,9.27911782 L23.4673471,7.42786599 Z M27.7061838,10.2579871 L27.1848649,10.1761439 L25.6936933,9.93237507 L26.9438473,8.52518986 L27.7061838,10.2579871 Z M26.1116355,18.3327521 C31.0092848,19.3961754 34.2175275,24.141961 33.4264113,29.1833973 C32.6037504,34.4148486 27.7450306,38.0130857 22.592637,37.204202 C17.4433003,36.3967806 13.9183585,31.4822157 14.7410194,26.2507644 C15.5211773,21.2762108 19.9716779,17.7366336 24.9019495,18.1507614 L25.144571,18.5042352 L25.7826437,18.5885876 L26.1116355,18.3327521 Z M25.877723,15.6994906 L25.1794577,11.2115204 L27.8211675,11.6352809 L25.877723,15.6994906 Z M30.5957329,8.5554203 L31.8964861,10.9154199 L29.2701405,10.5035169 L28.2520707,8.18708598 L30.5957329,8.5554203 Z M27.4212715,15.5573535 L29.1936203,11.8508077 L31.5494309,12.2204457 L27.4212715,15.5573535 Z M21.8670324,41.8307045 C29.536356,43.0352125 36.7683807,37.682791 37.9906033,29.8994795 C38.9563643,23.7485227 35.8242715,17.6342328 30.354856,14.9013772 L33.9957873,11.9594814 L31.4428405,7.32957754 L28.4243428,6.85479673 L28.4317604,6.84557296 L23.0316663,6.00008853 L19.1955234,9.65474653 L21.8597004,13.6233727 C15.8186782,14.6139968 11.1452222,19.3609437 10.1768274,25.5346822 C8.95457835,33.3164784 14.1992504,40.6276853 21.8670324,41.8307045 L21.8670324,41.8307045 Z" id="Ring" fill="#006EB3" transform="translate(24.082152, 24.000000) rotate(-9.000000) translate(-24.082152, -24.000000) "></path>
    </g>
</svg>