<?xml version="1.0" encoding="UTF-8"?>
<svg width="48px" height="48px" viewBox="0 0 48 48" version="1.1" xmlns="http://www.w3.org/2000/svg" xmlns:xlink="http://www.w3.org/1999/xlink">
    <title>06 Icon/Cat/Huis</title>
    <g id="06-Icon/Cat/Huis" stroke="none" stroke-width="1" fill="none" fill-rule="evenodd">
        <path d="M40.5017587,19.3251956 L40.5094877,22.6878221 L38.0525058,22.6923612 L38.0473078,20.6291286 C38.0470858,20.3961889 37.9336397,20.1780936 37.7421952,20.0430623 L24.3663094,10.6139867 C24.1158791,10.437129 23.7822405,10.4378347 23.5346042,10.6155549 L10.2001462,20.1056346 C10.0108986,20.241158 9.89851558,20.4603734 9.89873757,20.6933131 L9.90198327,22.2000513 L7.44435614,22.2057544 L7.43793419,19.4007863 L23.9427011,7.63102716 L40.5017587,19.3251956 Z M31.3392119,7.45050122 L36.5797038,7.43981915 L36.597066,14.806754 L31.3478604,11.0997128 L31.3392119,7.45050122 Z M36.6552945,40.5036436 L31.9706519,40.5135374 L31.950158,31.2169012 C31.9486152,30.8188882 31.6256582,30.4983542 31.2306185,30.5000234 L25.6642439,30.5111453 C25.2680402,30.5121692 24.9475062,30.8351262 24.9467208,31.2318488 L24.9688976,40.5309394 L11.3820133,40.5608221 L11.3437523,23.4724786 C11.3431421,23.374753 11.3221113,23.2809249 11.2858349,23.1953844 C11.3216887,23.108741 11.341765,23.0148737 11.3418,22.9159841 L11.3366714,21.0612598 L23.9530181,12.081566 L36.6111167,21.0047266 L36.6170335,23.4153001 C36.6169985,23.5141898 36.6368652,23.6073727 36.6731416,23.6929131 C36.637933,23.7783925 36.6178568,23.8722598 36.6178218,23.9711494 L36.6552945,40.5036436 Z M26.4059601,40.5271138 L26.3865376,31.9477816 L30.5141669,31.9380308 L30.5335894,40.5173631 L26.4059601,40.5271138 Z M37.2956366,6.00000245 C37.6918404,5.99897852 38.0147974,6.31951252 38.0151761,6.71688027 L38.0151761,6.71688027 L38.036006,15.823493 L41.635684,18.366631 C41.8248004,18.5003719 41.9382466,18.7184672 41.9402778,18.9508881 L41.9402778,18.9508881 L41.9499496,23.402591 C41.9503283,23.7999587 41.6286303,24.1222705 41.2324266,24.1232944 L41.2324266,24.1232944 L38.0556862,24.1305878 L38.0951112,41.2195765 C38.0949711,41.615135 37.7744371,41.938092 37.3775882,41.9402799 L37.3775882,41.9402799 L31.2558831,41.9539994 L25.6906725,41.9657665 L10.6649164,41.9999935 C10.2698767,42.0016627 9.94640092,41.6793195 9.945377,41.2831157 L9.945377,41.2831157 L9.90516368,23.6382778 L6.72842329,23.6455711 C6.33105554,23.6459498 6.00990779,23.324897 6.00888386,22.9286933 L6.00888386,22.9286933 L6.00000033,19.0328396 C5.99977833,18.7998999 6.11151613,18.5818485 6.301409,18.4451611 L6.301409,18.4451611 L23.5249324,6.16385206 C23.7725687,5.98613186 24.1062073,5.9854261 24.3566376,6.16228382 L24.3566376,6.16228382 L29.9089204,10.0829738 L29.9005593,6.7352136 C29.8995353,6.33900988 30.2212334,6.0166981 30.6174371,6.01567417 L30.6174371,6.01567417 Z M22.3273684,30.5199098 L16.7609938,30.5310317 C16.3641448,30.5332196 16.0436108,30.8561766 16.0434707,31.2517351 L16.0564019,36.817591 C16.0574258,37.2137947 16.3797376,37.5354927 16.7771053,37.535114 L22.3417972,37.5215376 C22.7391649,37.5211589 23.0608629,37.1988471 23.058675,36.8019982 L23.0469078,31.2367876 C23.0453651,30.8387746 22.7224081,30.5182406 22.3273684,30.5199098 Z M21.6109168,31.9579172 L21.6206675,36.0855466 L17.4930382,36.0952973 L17.4832874,31.967668 L21.6109168,31.9579172 Z M22.3067836,21.6162725 L16.741573,21.6280396 C16.34356,21.6295824 16.023026,21.9525394 16.02405,22.3487431 L16.0358171,27.9139537 C16.036841,28.3101574 16.3591528,28.6318555 16.7565206,28.6314768 L22.3212124,28.6179004 C22.7185801,28.6175217 23.0402781,28.2952099 23.0387354,27.8971969 L23.026323,22.3331503 C23.0247803,21.9351374 22.7018233,21.6146034 22.3067836,21.6162725 Z M31.2104727,21.5958686 L25.6446169,21.6087998 C25.2472492,21.6091785 24.9267152,21.9321355 24.9277391,22.3283392 L24.9395062,27.8935498 C24.9405302,28.2897536 25.2628419,28.6114516 25.6602097,28.6110729 L31.2249015,28.5974965 C31.6222692,28.5971178 31.9439673,28.274806 31.9417793,27.8779571 L31.9300122,22.3127465 C31.9284695,21.9147335 31.6055125,21.5941995 31.2104727,21.5958686 Z M21.5896867,23.055444 L21.6000827,27.1819093 L17.4724534,27.1916601 L17.4627026,23.0640307 L21.5896867,23.055444 Z M30.4933759,23.0350401 L30.5037719,27.1615054 L26.3761425,27.1712562 L26.3657465,23.0447909 L30.4933759,23.0350401 Z" id="Huis" fill="#006EB3"></path>
    </g>
</svg>