<?xml version="1.0" encoding="UTF-8"?>
<svg width="48px" height="48px" viewBox="0 0 48 48" version="1.1" xmlns="http://www.w3.org/2000/svg" xmlns:xlink="http://www.w3.org/1999/xlink">
    <title>06 Icon/Cat/Gereedschap</title>
    <g id="06-Icon/Cat/Gereedschap" stroke="none" stroke-width="1" fill="none" fill-rule="evenodd">
        <path d="M29.7662962,24.6186589 L27.0586202,21.9427161 L29.6354813,19.3380498 C29.9481491,19.9268602 30.3412723,20.457928 30.8034426,20.918133 C31.2500545,21.3583112 31.758807,21.7317764 32.3231342,22.0354237 L29.7662962,24.6186589 Z M38.3941931,35.0726745 C39.1211477,35.7897338 39.1205124,36.9698234 38.397584,37.7026546 L38.3523579,37.7486293 C37.6259763,38.4835354 36.4417479,38.4936119 35.7123738,37.7744814 L17.0946264,19.3556556 L19.7799027,16.6576466 L38.3941931,35.0726745 Z M16.6037312,37.9278618 C16.2681592,38.2669697 15.8219448,38.4551819 15.3365768,38.4589435 C14.8550066,38.4592481 14.4026816,38.2716043 14.0576971,37.9301632 L13.9456986,37.8200325 C13.2253097,37.1060783 13.2131731,35.9418879 13.9233295,35.2249559 L22.4641847,26.5868691 L25.1715161,29.2641939 L16.6037312,37.9278618 Z M15.3855022,19.1394428 L14.2746705,18.8551415 C13.6358125,18.6914524 12.9391572,18.9067688 12.5034995,19.4000149 C12.1703693,19.7764309 12.0135051,20.2819372 12.0718597,20.7838527 L12.1444464,21.3935426 L11.0731704,22.4755081 C10.9198848,22.6310617 10.6521552,22.6333038 10.4969462,22.4786362 L7.48334647,19.4988827 C7.32295374,19.3414547 7.32313487,19.0816691 7.48194494,18.921621 L8.55045683,17.8389664 L9.38376197,17.929295 C9.95553633,17.991116 10.5240237,17.7717352 10.9051366,17.3382881 C11.2382668,16.9618721 11.3965131,16.4567104 11.3364318,15.9558323 L11.2367595,15.1250656 L14.7799421,11.541447 C15.7635263,10.5462473 16.9732345,9.85698154 18.2788756,9.54835133 C18.7797166,9.42954195 19.2795572,9.367734 19.7663073,9.36431696 C20.4503133,9.35870239 21.0345559,9.47060712 21.4965255,9.61368053 C18.9027687,10.0841096 17.7647769,11.6456149 17.305914,12.591082 C17.177224,12.854058 17.2309691,13.168392 17.4380294,13.3741548 L19.2963812,15.211514 L15.3855022,19.1394428 Z M35.2825882,10.9605425 C35.7251199,10.9578443 36.1224367,11.0187393 36.4347775,11.0907427 L33.3514516,14.2077003 C33.1632961,14.397131 33.1044017,14.680445 33.1981781,14.9284255 L34.0688023,17.2182704 C34.1383574,17.404429 34.2883792,17.5504634 34.4784248,17.6183987 L36.7873026,18.4377496 C37.0367803,18.5263748 37.3158701,18.4609065 37.5002278,18.2749327 L40.5210649,15.2201974 C40.5820574,15.5231267 40.6188695,15.8288349 40.6325349,16.133176 C40.6890681,17.5785422 40.1879179,18.8466951 39.1418449,19.9041171 C38.1617139,20.8972418 36.8527718,21.4487321 35.4591936,21.4565228 C34.06596,21.4629314 32.7532219,20.9286453 31.7632058,19.9478215 C29.7178428,17.9243779 29.7019307,14.6145418 31.7257188,12.5677967 C32.7721364,11.5089927 33.9701918,10.9665545 35.2825882,10.9605425 Z M40.1118118,20.8652624 C41.7727537,19.1845883 42.0517368,17.312022 41.9928917,16.0348959 C41.930534,14.6658799 41.4725238,13.6826468 41.4534973,13.6412037 C41.358024,13.4412431 41.1703496,13.2990326 40.9495765,13.2601353 C40.7329495,13.2222718 40.5091383,13.2956508 40.3510174,13.4529348 L36.8354536,17.0082083 L35.2304349,16.4392156 L34.6286789,14.8549741 L38.1597787,11.2844906 C38.3106485,11.1327385 38.3806401,10.9167822 38.3501049,10.703653 C38.3188805,10.493288 38.1864511,10.3061328 37.9988028,10.2050319 C37.95215,10.1801884 36.8414697,9.58911905 35.2761981,9.59667292 C33.6121262,9.60601659 32.0500534,10.301378 30.7564447,11.60976 C29.1117281,13.27246 28.4758868,15.6931506 29.0849803,17.9544878 L26.0900353,20.9819154 L20.7413964,15.6921703 C20.8729322,15.5590853 20.9450248,15.3876918 20.9435276,15.2052902 C20.9427232,15.0259973 20.869374,14.8491685 20.7407834,14.7231572 L18.7683581,12.772214 C19.3654303,11.8670782 20.588751,10.8523811 23.0774316,10.8387158 C23.2480876,10.837226 23.4249647,10.8402233 23.6018455,10.8490933 L23.6426106,10.8504494 C23.8101578,10.8496525 23.9735218,10.7890937 24.099548,10.6839944 C24.2594104,10.5491641 24.3515224,10.3504667 24.3493174,10.1414652 C24.3454815,9.53864098 23.4600725,8.99786623 22.931349,8.72805146 C22.2706188,8.39302837 21.1828594,7.99263812 19.7585351,8.00010283 C19.1678012,8.00254927 18.564677,8.07824093 17.9640132,8.22060469 C16.4110621,8.5908831 14.974812,9.4056939 13.8110126,10.5820283 L10.036175,14.4000149 C9.88910308,14.54831 9.81806654,14.7507941 9.84376273,14.9597808 L9.98129577,16.1156008 C9.9958798,16.2337387 9.96175101,16.347071 9.88200696,16.4372863 C9.79397801,16.5371798 9.66100812,16.5877009 9.53110605,16.5729284 L8.37028349,16.4479154 C8.16541327,16.4276629 7.95990961,16.4982666 7.81283772,16.6465617 L6.51163337,17.9618577 C5.82426416,18.6580477 5.83015735,19.7825142 6.52530986,20.4681568 L9.53752748,23.4475657 C9.87421587,23.7810665 10.3210089,23.9614591 10.7942868,23.959087 C11.2661826,23.9563703 11.7103258,23.7705776 12.0438266,23.4338893 L13.3450309,22.1185933 C13.4921028,21.9702982 13.5617573,21.7674694 13.5374431,21.5588274 L13.4259583,20.6223575 C13.4113743,20.5042197 13.4468851,20.391232 13.5249025,20.3020541 C13.6284675,20.1869506 13.7859661,20.1381412 13.9366102,20.175701 L15.4254359,20.5571827 C15.6583141,20.6181817 15.9080361,20.5468591 16.0778952,20.3778221 L16.1310616,20.3235513 L21.4949106,25.6288324 L12.9540554,34.2669193 C11.716029,35.517229 11.7297492,37.5464486 12.987662,38.7893066 L13.0979339,38.9004748 C13.6997549,39.4953206 14.4959006,39.8230034 15.3519484,39.8221164 C16.1931381,39.816057 16.9805753,39.4839179 17.5730053,38.8858984 L26.1404456,30.2236126 L34.7543372,38.7437555 C35.3616901,39.3458524 36.1709635,39.6738724 37.0308091,39.6695284 C37.8996362,39.6644878 38.7129768,39.3226595 39.3237032,38.7042463 L39.3685847,38.6596537 C39.9734421,38.0471171 40.3049153,37.2357688 40.30368,36.3752303 C40.3000253,35.5126206 39.9623468,34.7061865 39.3536117,34.103745 L30.7352257,25.5780776 L33.6932295,22.5869465 C34.2692094,22.7437662 34.8648308,22.8218087 35.4659283,22.8190103 C37.2239651,22.8096072 38.87413,22.11419 40.1118118,20.8652624 Z" id="Gereedschap" fill="#006EB3"></path>
    </g>
</svg>